NewsreaderCaption-Bold.ufo
<glyph name="exclam" format="2">
	<unicode hex="0021"/>
	<advance width="723.872"/>
	<outline>
		<contour>
			<point x="591.152" y="1339.288" type="line" smooth="yes"/>
			<point x="593.744" y="1399.152"/>
			<point x="565.504" y="1432.352"/>
			<point x="361.936" y="1432.352" type="curve" smooth="yes"/>
			<point x="159.664" y="1432.352"/>
			<point x="130.128" y="1399.152"/>
			<point x="132.72" y="1339.288" type="curve" smooth="yes"/>
			<point x="135.96" y="1257.864" type="line" smooth="yes"/>
			<point x="140.496" y="1161.192"/>
			<point x="221.544" y="763.8"/>
			<point x="246.8" y="512.76" type="curve"/>
			<point x="477.072" y="512.76" type="line"/>
			<point x="501.976" y="763.8"/>
			<point x="583.376" y="1161.192"/>
			<point x="587.912" y="1257.864" type="curve" smooth="yes"/>
		</contour>
		<contour>
			<point x="361.936" y="367.872" type="curve" smooth="yes"/>
			<point x="221.576" y="367.872"/>
			<point x="140.136" y="298.968"/>
			<point x="140.136" y="174.344" type="curve" smooth="yes"/>
			<point x="140.136" y="46.48"/>
			<point x="221.576" y="-24.368"/>
			<point x="361.936" y="-24.368" type="curve" smooth="yes"/>
			<point x="502.296" y="-24.368"/>
			<point x="583.736" y="46.48"/>
			<point x="583.736" y="174.344" type="curve" smooth="yes"/>
			<point x="583.736" y="298.968"/>
			<point x="502.296" y="367.872"/>
		</contour>
	</outline>
</glyph>
<glyph name="ampersand" format="2">
  <advance width="1747.96"/>
  <unicode hex="0026"/>
  <outline>
    <contour>
      <point x="801.752" y="846.056" type="line"/>
      <point x="1179.104" y="900.2320000000001"/>
      <point x="1263.4959999999999" y="995.312"/>
      <point x="1263.4959999999999" y="1171.776" type="curve" smooth="yes"/>
      <point x="1263.4959999999999" y="1347.16"/>
      <point x="1122.9279999999999" y="1440.48"/>
      <point x="803.256" y="1440.48" type="curve" smooth="yes"/>
      <point x="418.224" y="1440.48"/>
      <point x="280.616" y="1306.424"/>
      <point x="280.616" y="1100.0240000000001" type="curve" smooth="yes"/>
      <point x="280.616" y="980.8"/>
      <point x="317.504" y="900.76"/>
      <point x="452.136" y="755.296" type="curve" smooth="yes"/>
      <point x="1149.976" y="0.0" type="line"/>
      <point x="1676.512" y="0.0" type="line"/>
      <point x="1676.512" y="116.312" type="line"/>
      <point x="1499.448" y="171.568" type="line"/>
      <point x="805.912" y="914.024" type="line" smooth="yes"/>
      <point x="685.6320000000001" y="1042.84"/>
      <point x="662.0559999999999" y="1093.456"/>
      <point x="662.0559999999999" y="1160.072" type="curve" smooth="yes"/>
      <point x="662.0559999999999" y="1250.0"/>
      <point x="707.248" y="1286.8000000000002"/>
      <point x="801.0160000000001" y="1286.8000000000002" type="curve" smooth="yes"/>
      <point x="892.192" y="1286.8000000000002"/>
      <point x="930.272" y="1244.352"/>
      <point x="930.272" y="1156.72" type="curve" smooth="yes"/>
      <point x="930.272" y="1045.384"/>
      <point x="880.6" y="961.088"/>
      <point x="766.808" y="893.048" type="curve"/>
      <point x="523.352" y="769.528" type="line"/>
      <point x="200.39999999999998" y="707.9839999999999"/>
      <point x="76.27199999999999" y="578.072"/>
      <point x="76.27199999999999" y="353.408" type="curve" smooth="yes"/>
      <point x="76.27199999999999" y="110.984"/>
      <point x="207.864" y="-26.48"/>
      <point x="596.304" y="-26.48" type="curve" smooth="yes"/>
      <point x="826.096" y="-26.48"/>
      <point x="1000.184" y="24.983999999999998"/>
      <point x="1168.584" y="176.816" type="curve"/>
      <point x="1237.856" y="241.96" type="line"/>
      <point x="1342.168" y="354.71999999999997"/>
      <point x="1445.6080000000002" y="508.944"/>
      <point x="1559.768" y="716.928" type="curve"/>
      <point x="1697.696" y="748.336" type="line"/>
      <point x="1697.696" y="864.0" type="line"/>
      <point x="1143.952" y="864.0" type="line"/>
      <point x="1143.952" y="748.336" type="line"/>
      <point x="1286.176" y="716.928" type="line"/>
      <point x="1273.392" y="531.336"/>
      <point x="1233.832" y="401.984"/>
      <point x="1163.832" y="317.168" type="curve"/>
      <point x="1099.688" y="259.39200000000005" type="line"/>
      <point x="1021.776" y="200.27200000000002"/>
      <point x="925.272" y="172.712"/>
      <point x="801.304" y="172.712" type="curve" smooth="yes"/>
      <point x="548.9920000000001" y="172.712"/>
      <point x="463.12" y="262.512"/>
      <point x="463.12" y="492.944" type="curve" smooth="yes"/>
      <point x="463.12" y="583.656"/>
      <point x="484.256" y="666.104"/>
      <point x="550.0" y="729.792" type="curve"/>
    </contour>
  </outline>
</glyph>
<glyph name="quotesingle" format="2">
  <advance width="551"/>
  <unicode hex="0027"/>
  <outline>
    <contour>
      <point x="164.76" y="834.144" type="line"/>
      <point x="386.632" y="834.144" type="line"/>
      <point x="441.776" y="1349.376" type="line"/>
      <point x="441.776" y="1414.0" type="line"/>
      <point x="109.616" y="1414.0" type="line"/>
      <point x="109.616" y="1349.376" type="line"/>
    </contour>
  </outline>
</glyph>
<glyph name="parenleft" format="2">
	<unicode hex="0028"/>
	<advance width="758.008"/>
	<outline>
		<contour>
			<point x="405.368" y="622.296" type="curve" smooth="yes"/>
			<point x="405.368" y="936.184"/>
			<point x="481.76" y="1148.984"/>
			<point x="708.32" y="1361.896" type="curve"/>
			<point x="589.624" y="1490.48" type="line"/>
			<point x="207.816" y="1190.368"/>
			<point x="85.56" y="933.944"/>
			<point x="85.56" y="622.296" type="curve" smooth="yes"/>
			<point x="85.56" y="310.648"/>
			<point x="207.816" y="54.224"/>
			<point x="589.624" y="-245.888" type="curve"/>
			<point x="708.32" y="-117.304" type="line"/>
			<point x="481.76" y="95.608"/>
			<point x="405.368" y="308.408"/>
		</contour>
	</outline>
</glyph>
<glyph name="parenright" format="2">
	<unicode hex="0029"/>
	<advance width="758.656"/>
	<outline>
		<contour>
			<point x="353.288" y="622.648" type="curve" smooth="yes"/>
			<point x="353.288" y="308.76"/>
			<point x="276.896" y="95.96"/>
			<point x="50.336" y="-116.952" type="curve"/>
			<point x="169.032" y="-245.536" type="line"/>
			<point x="550.84" y="54.576"/>
			<point x="673.096" y="311"/>
			<point x="673.096" y="622.648" type="curve" smooth="yes"/>
			<point x="673.096" y="934.296"/>
			<point x="550.84" y="1190.72"/>
			<point x="169.032" y="1490.832" type="curve"/>
			<point x="50.336" y="1362.248" type="line"/>
			<point x="276.896" y="1149.336"/>
			<point x="353.288" y="936.536"/>
		</contour>
	</outline>
</glyph>
<glyph name="asterisk" format="2">
	<unicode hex="002A"/>
	<advance width="964.528"/>
	<outline>
		<contour>
			<point x="695.488" y="746.896" type="line"/>
			<point x="624.264" y="973.936" type="line"/>
			<point x="858.712" y="1008.712" type="line"/>
			<point x="847.176" y="1167.312" type="line"/>
			<point x="608.08" y="1168.904" type="line"/>
			<point x="647.768" y="1403.24" type="line"/>
			<point x="493.464" y="1440.96" type="line"/>
			<point x="419.408" y="1214.512" type="line"/>
			<point x="207.184" y="1323.96" type="line"/>
			<point x="124.56" y="1189.84" type="line"/>
			<point x="316.304" y="1048.32" type="line"/>
			<point x="146.8" y="881.56" type="line"/>
			<point x="248.552" y="760.624" type="line"/>
			<point x="443.48" y="898.96" type="line"/>
			<point x="549.424" y="686.104" type="line"/>
		</contour>
	</outline>
</glyph>
<glyph name="plus" format="2">
  <advance width="1140.0"/>
  <unicode hex="002B"/>
  <outline>
    <contour>
      <point x="455.184" y="970.7360000000001" type="line"/>
      <point x="455.184" y="69.392" type="line"/>
      <point x="684.816" y="69.392" type="line"/>
      <point x="684.816" y="970.7360000000001" type="line"/>
    </contour>
    <contour>
      <point x="1020.672" y="634.8800000000001" type="line"/>
      <point x="119.328" y="634.8800000000001" type="line"/>
      <point x="119.328" y="405.248" type="line"/>
      <point x="1020.672" y="405.248" type="line"/>
    </contour>
  </outline>
</glyph>
<glyph name="comma" format="2">
	<unicode hex="002C"/>
	<advance width="632.52"/>
	<outline>
		<contour>
			<point x="57.648" y="-275.576" type="curve"/>
			<point x="137.272" y="-387.048" type="line"/>
			<point x="452.2" y="-182.128"/>
			<point x="524.96" y="-41.832"/>
			<point x="524.96" y="163.88" type="curve" smooth="yes"/>
			<point x="524.96" y="309.744"/>
			<point x="451.816" y="386.664"/>
			<point x="307.936" y="386.664" type="curve" smooth="yes"/>
			<point x="176.24" y="386.664"/>
			<point x="93.728" y="307.984"/>
			<point x="93.728" y="185.88" type="curve" smooth="yes"/>
			<point x="93.728" y="132.864"/>
			<point x="255.608" y="90.864"/>
			<point x="255.608" y="-25.168" type="curve" smooth="yes"/>
			<point x="255.608" y="-111.888"/>
			<point x="200.944" y="-173.408"/>
		</contour>
	</outline>
</glyph>
<glyph name="hyphen" format="2">
  <advance width="890.872"/>
  <unicode hex="002D"/>
  <outline>
    <contour>
      <point x="133.504" y="650.4159999999999" type="line"/>
      <point x="133.504" y="393.584" type="line"/>
      <point x="757.3679999999999" y="393.584" type="line"/>
      <point x="757.3679999999999" y="650.4159999999999" type="line"/>
    </contour>
  </outline>
</glyph>
<glyph name="period" format="2">
	<unicode hex="002E"/>
	<advance width="631.872"/>
	<outline>
		<contour>
			<point x="315.936" y="401.568" type="curve" smooth="yes"/>
			<point x="184" y="401.568"/>
			<point x="99.968" y="321"/>
			<point x="99.968" y="188.6" type="curve" smooth="yes"/>
			<point x="99.968" y="56.2"/>
			<point x="184" y="-24.368"/>
			<point x="315.936" y="-24.368" type="curve" smooth="yes"/>
			<point x="447.872" y="-24.368"/>
			<point x="531.904" y="56.2"/>
			<point x="531.904" y="188.6" type="curve" smooth="yes"/>
			<point x="531.904" y="321"/>
			<point x="447.872" y="401.568"/>
		</contour>
	</outline>
</glyph>
<glyph name="slash" format="2">
  <advance width="976.5360000000001"/>
  <unicode hex="002F"/>
  <outline>
    <contour>
      <point x="52.279999999999994" y="0.0" type="line"/>
      <point x="335.608" y="0.0" type="line"/>
      <point x="926.6080000000001" y="1414.0" type="line"/>
      <point x="642.928" y="1414.0" type="line"/>
    </contour>
  </outline>
</glyph>
<glyph name="zero" format="2">
  <advance width="1462.0"/>
  <unicode hex="0030"/>
  <outline>
    <contour>
      <point x="733.7040000000001" y="217.59199999999998" type="curve" smooth="yes"/>
      <point x="581.9622505992087" y="217.59199999999998"/>
      <point x="508.80800000000005" y="326.944"/>
      <point x="508.80800000000005" y="755.1999999999999" type="curve" smooth="yes"/>
      <point x="508.80800000000005" y="1069.768"/>
      <point x="571.76136776165" y="1196.408"/>
      <point x="726.704" y="1196.408" type="curve" smooth="yes"/>
      <point x="879.6086550312432" y="1196.408"/>
      <point x="952.248" y="1087.056"/>
      <point x="952.248" y="658.8000000000001" type="curve" smooth="yes"/>
      <point x="952.248" y="344.232"/>
      <point x="890.3572814589666" y="217.59199999999998"/>
    </contour>
    <contour>
      <point x="745.184" y="1440.48" type="curve" smooth="yes"/>
      <point x="308.4972733564014" y="1440.48"/>
      <point x="89.98400000000001" y="1172.144"/>
      <point x="89.98400000000001" y="680.0" type="curve" smooth="yes"/>
      <point x="89.98400000000001" y="220.15200000000002"/>
      <point x="311.6246256684492" y="-26.48"/>
      <point x="717.168" y="-26.48" type="curve" smooth="yes"/>
      <point x="1152.6288754933955" y="-26.48"/>
      <point x="1373.0159999999998" y="241.85599999999994"/>
      <point x="1373.0159999999998" y="734.0" type="curve" smooth="yes"/>
      <point x="1373.0159999999998" y="1193.8480000000002"/>
      <point x="1149.5045406758447" y="1440.48"/>
    </contour>
  </outline>
</glyph>
<glyph name="one" format="2">
	<unicode hex="0031"/>
	<advance width="1462"/>
	<outline>
		<contour>
			<point x="611.56" y="190.272" type="line"/>
			<point x="283.888" y="127.736" type="line"/>
			<point x="283.888" y="0" type="line"/>
			<point x="1338.592" y="0" type="line"/>
			<point x="1338.592" y="127.736" type="line"/>
			<point x="1024.976" y="190.272" type="line"/>
			<point x="1024.976" y="1421.04" type="line"/>
			<point x="705.848" y="1421.04" type="line"/>
			<point x="155.872" y="1149.12" type="line"/>
			<point x="219.184" y="964" type="line"/>
			<point x="707.016" y="1124.856" type="line"/>
			<point x="611.56" y="1304.04" type="line"/>
		</contour>
	</outline>
</glyph>
<glyph name="colon" format="2">
	<unicode hex="003A"/>
	<advance width="677.504"/>
	<outline>
		<contour>
			<point x="338.752" y="386.664" type="curve" smooth="yes"/>
			<point x="206.816" y="386.664"/>
			<point x="122.784" y="309.336"/>
			<point x="122.784" y="181.472" type="curve" smooth="yes"/>
			<point x="122.784" y="52.96"/>
			<point x="206.816" y="-24.368"/>
			<point x="338.752" y="-24.368" type="curve" smooth="yes"/>
			<point x="470.688" y="-24.368"/>
			<point x="554.72" y="52.96"/>
			<point x="554.72" y="181.472" type="curve" smooth="yes"/>
			<point x="554.72" y="309.336"/>
			<point x="470.688" y="386.664"/>
		</contour>
		<contour>
			<point x="338.752" y="1061.328" type="curve" smooth="yes"/>
			<point x="206.816" y="1061.328"/>
			<point x="122.784" y="984"/>
			<point x="122.784" y="856.136" type="curve" smooth="yes"/>
			<point x="122.784" y="727.624"/>
			<point x="206.816" y="650.296"/>
			<point x="338.752" y="650.296" type="curve" smooth="yes"/>
			<point x="470.688" y="650.296"/>
			<point x="554.72" y="727.624"/>
			<point x="554.72" y="856.136" type="curve" smooth="yes"/>
			<point x="554.72" y="984"/>
			<point x="470.688" y="1061.328"/>
		</contour>
	</outline>
</glyph>
<glyph name="semicolon" format="2">
	<unicode hex="003B"/>
	<advance width="681.784"/>
	<outline>
		<contour>
			<point x="86.632" y="-275.576" type="curve"/>
			<point x="166.256" y="-387.048" type="line"/>
			<point x="481.184" y="-182.128"/>
			<point x="553.944" y="-41.832"/>
			<point x="553.944" y="163.88" type="curve" smooth="yes"/>
			<point x="553.944" y="309.744"/>
			<point x="480.8" y="386.664"/>
			<point x="336.92" y="386.664" type="curve" smooth="yes"/>
			<point x="205.224" y="386.664"/>
			<point x="122.712" y="307.984"/>
			<point x="122.712" y="185.88" type="curve" smooth="yes"/>
			<point x="122.712" y="132.864"/>
			<point x="284.592" y="90.864"/>
			<point x="284.592" y="-25.168" type="curve" smooth="yes"/>
			<point x="284.592" y="-111.888"/>
			<point x="229.928" y="-173.408"/>
		</contour>
		<contour>
			<point x="337.976" y="1061.328" type="curve" smooth="yes"/>
			<point x="206.04" y="1061.328"/>
			<point x="122.008" y="984"/>
			<point x="122.008" y="856.136" type="curve" smooth="yes"/>
			<point x="122.008" y="727.624"/>
			<point x="206.04" y="650.296"/>
			<point x="337.976" y="650.296" type="curve" smooth="yes"/>
			<point x="469.912" y="650.296"/>
			<point x="553.944" y="727.624"/>
			<point x="553.944" y="856.136" type="curve" smooth="yes"/>
			<point x="553.944" y="984"/>
			<point x="469.912" y="1061.328"/>
		</contour>
	</outline>
</glyph>
<glyph name="less" format="2">
	<unicode hex="003C"/>
	<advance width="1140"/>
	<outline>
		<contour>
			<point x="235.024" y="455.264" type="line"/>
			<point x="1021.912" y="797.8" type="line"/>
			<point x="1021.912" y="1042.672" type="line"/>
			<point x="97.68" y="629.288" type="line"/>
			<point x="97.68" y="410.192" type="line"/>
			<point x="1021.912" y="-2.544" type="line"/>
			<point x="1021.912" y="247.92" type="line"/>
			<point x="235.024" y="590.864" type="line"/>
		</contour>
	</outline>
</glyph>
<glyph name="greater" format="2">
	<unicode hex="003E"/>
	<advance width="1140"/>
	<outline>
		<contour>
			<point x="904.976" y="455.264" type="line"/>
			<point x="904.976" y="590.864" type="line"/>
			<point x="118.088" y="247.92" type="line"/>
			<point x="118.088" y="-2.544" type="line"/>
			<point x="1042.32" y="410.192" type="line"/>
			<point x="1042.32" y="629.288" type="line"/>
			<point x="118.088" y="1042.672" type="line"/>
			<point x="118.088" y="797.8" type="line"/>
		</contour>
	</outline>
</glyph>
<glyph name="A" format="2">
	<unicode hex="0041"/>
	<advance width="1851.176"/>
	<outline>
		<contour>
			<point x="447.184" y="403.552" type="line"/>
			<point x="1189.808" y="403.552" type="line"/>
			<point x="1189.808" y="630.832" type="line"/>
			<point x="447.184" y="630.832" type="line"/>
		</contour>
		<contour>
			<point x="1657.528" y="175.624" type="line"/>
			<point x="1170.632" y="1421.04" type="line"/>
			<point x="663.984" y="1421.04" type="line"/>
			<point x="184.224" y="162.664" type="line"/>
			<point x="16.224" y="125.44" type="line"/>
			<point x="16.224" y="0" type="line"/>
			<point x="626.392" y="0" type="line"/>
			<point x="626.392" y="125.44" type="line"/>
			<point x="459.184" y="166.552" type="line"/>
			<point x="840.304" y="1250.464" type="line"/>
			<point x="800.376" y="1250.464" type="line"/>
			<point x="1203.576" y="162.664" type="line"/>
			<point x="1034.424" y="125.44" type="line"/>
			<point x="1034.424" y="0" type="line"/>
			<point x="1842.88" y="0" type="line"/>
			<point x="1842.88" y="125.44" type="line"/>
		</contour>
	</outline>
	<anchor name="UCtop" x="909.552" y="1414"/>
	<anchor name="right" x="1618.08" y="0"/>
	<anchor name="bottom" x="843.488" y="0"/>
</glyph>
<glyph name="B" format="2">
  <advance width="1667.344"/>
  <unicode hex="0042"/>
  <anchor x="862.9200000000001" y="1414.0" name="UCtop"/>
  <anchor x="873.48" y="0.0" name="bottom"/>
  <outline>
    <contour>
      <point x="506.168" y="1192.5520000000001" type="line"/>
      <point x="896.168" y="1192.5520000000001" type="line" smooth="yes"/>
      <point x="1034.624" y="1192.5520000000001"/>
      <point x="1078.6480000000001" y="1137.808"/>
      <point x="1078.6480000000001" y="1022.8399999999999" type="curve" smooth="yes"/>
      <point x="1078.6480000000001" y="890.704"/>
      <point x="1021.216" y="840.3679999999999"/>
      <point x="911.336" y="840.3679999999999" type="curve" smooth="yes"/>
      <point x="506.872" y="840.3679999999999" type="line"/>
      <point x="504.408" y="644.192" type="line"/>
      <point x="912.8720000000001" y="644.192" type="line" smooth="yes"/>
      <point x="1075.032" y="644.192"/>
      <point x="1132.6480000000001" y="568.336"/>
      <point x="1132.6480000000001" y="440.2" type="curve" smooth="yes"/>
      <point x="1132.6480000000001" y="270.488"/>
      <point x="1065.216" y="221.448"/>
      <point x="906.52" y="221.448" type="curve" smooth="yes"/>
      <point x="506.168" y="221.448" type="line"/>
      <point x="506.168" y="0.0" type="line"/>
      <point x="1015.7919999999999" y="0.0" type="line" smooth="yes"/>
      <point x="1418.0639999999999" y="0.0"/>
      <point x="1570.08" y="150.928"/>
      <point x="1570.08" y="403.32" type="curve" smooth="yes"/>
      <point x="1570.08" y="618.928"/>
      <point x="1426.0639999999999" y="760.648"/>
      <point x="1165.2160000000001" y="774.0" type="curve"/>
      <point x="1165.2160000000001" y="755.0" type="line"/>
      <point x="1383.824" y="773.0"/>
      <point x="1500.248" y="891.0"/>
      <point x="1500.248" y="1081.0" type="curve" smooth="yes"/>
      <point x="1500.248" y="1282.0"/>
      <point x="1377.824" y="1414.0"/>
      <point x="1031.144" y="1414.0" type="curve" smooth="yes"/>
      <point x="506.168" y="1414.0" type="line"/>
    </contour>
    <contour>
      <point x="102.44800000000001" y="0.0" type="line"/>
      <point x="702.144" y="0.0" type="line"/>
      <point x="702.144" y="1414.0" type="line"/>
      <point x="102.44800000000001" y="1414.0" type="line"/>
      <point x="102.44800000000001" y="1288.56" type="line"/>
      <point x="276.784" y="1240.9679999999998" type="line"/>
      <point x="276.784" y="173.03199999999998" type="line"/>
      <point x="102.44800000000001" y="125.44" type="line"/>
    </contour>
  </outline>
</glyph>
<glyph name="D" format="2">
  <advance width="1786"/>
  <unicode hex="0044"/>
  <anchor x="884.4559999999999" y="1414.0" name="UCtop"/>
  <anchor x="884.456" y="0.0" name="bottom"/>
  <outline>
    <contour>
      <point x="1247.464" y="722.0559999999999" type="curve" smooth="yes"/>
      <point x="1247.464" y="383.56"/>
      <point x="1143.112" y="245.424"/>
      <point x="913.5840000000001" y="245.424" type="curve" smooth="yes"/>
      <point x="511.752" y="245.424" type="line"/>
      <point x="476.76" y="0.0" type="line"/>
      <point x="924.12" y="0.0" type="line" smooth="yes"/>
      <point x="1383.1200000000001" y="0.0"/>
      <point x="1682.1200000000001" y="257.0"/>
      <point x="1682.1200000000001" y="736.0" type="curve" smooth="yes"/>
      <point x="1682.1200000000001" y="1177.0"/>
      <point x="1428.1200000000001" y="1414.0"/>
      <point x="933.12" y="1414.0" type="curve" smooth="yes"/>
      <point x="476.76" y="1414.0" type="line"/>
      <point x="511.752" y="1168.576" type="line"/>
      <point x="867.064" y="1168.576" type="line" smooth="yes"/>
      <point x="1145.816" y="1168.576"/>
      <point x="1247.464" y="1032.864"/>
    </contour>
    <contour>
      <point x="99.632" y="0.0" type="line"/>
      <point x="702.848" y="0.0" type="line"/>
      <point x="702.848" y="1414.0" type="line"/>
      <point x="99.632" y="1414.0" type="line"/>
      <point x="99.632" y="1288.56" type="line"/>
      <point x="277.488" y="1240.9679999999998" type="line"/>
      <point x="277.488" y="173.03199999999998" type="line"/>
      <point x="99.632" y="125.44" type="line"/>
    </contour>
  </outline>
</glyph>
<glyph name="E" format="2">
	<unicode hex="0045"/>
	<advance width="1641.928"/>
	<outline>
		<contour>
			<point x="1145.68" y="990" type="line"/>
			<point x="980.336" y="990" type="line"/>
			<point x="963.336" y="835.088" type="line"/>
			<point x="494.904" y="835.088" type="line"/>
			<point x="494.904" y="638.912" type="line"/>
			<point x="963.336" y="638.912" type="line"/>
			<point x="980.336" y="480" type="line"/>
			<point x="1145.68" y="480" type="line"/>
			<point x="1145.68" y="735" type="line"/>
		</contour>
		<contour>
			<point x="1507.352" y="981.088" type="line"/>
			<point x="1507.352" y="1502.144" type="line"/>
			<point x="1376.264" y="1502.144" type="line"/>
			<point x="1264.272" y="1414" type="line"/>
			<point x="494.904" y="1414" type="line"/>
			<point x="494.904" y="1192.552" type="line"/>
			<point x="1325.824" y="1192.552" type="line"/>
			<point x="1198.872" y="1332.928" type="line"/>
			<point x="1325.88" y="981.088" type="line"/>
		</contour>
		<contour>
			<point x="1173.616" y="84.312" type="line"/>
			<point x="1286.976" y="221.448" type="line"/>
			<point x="494.904" y="221.448" type="line"/>
			<point x="494.904" y="0" type="line"/>
			<point x="1236.944" y="0" type="line"/>
			<point x="1319.12" y="-92.088" type="line"/>
			<point x="1470.096" y="-92.088" type="line"/>
			<point x="1563.592" y="498.744" type="line"/>
			<point x="1377.104" y="498.744" type="line"/>
		</contour>
		<contour>
			<point x="99.632" y="0" type="line"/>
			<point x="702.848" y="0" type="line"/>
			<point x="702.848" y="1414" type="line"/>
			<point x="99.632" y="1414" type="line"/>
			<point x="99.632" y="1288.56" type="line"/>
			<point x="277.488" y="1240.968" type="line"/>
			<point x="277.488" y="173.032" type="line"/>
			<point x="99.632" y="125.44" type="line"/>
		</contour>
	</outline>
	<anchor name="UCtop" x="831.112" y="1414"/>
	<anchor name="right" x="1377.112" y="0"/>
	<anchor name="bottom" x="824.072" y="0"/>
</glyph>
<glyph name="F" format="2">
	<unicode hex="0046"/>
	<advance width="1523.952"/>
	<outline>
		<contour>
			<point x="1142.16" y="921.408" type="line"/>
			<point x="976.816" y="921.408" type="line"/>
			<point x="959.816" y="750.016" type="line"/>
			<point x="494.904" y="750.016" type="line"/>
			<point x="494.904" y="553.84" type="line"/>
			<point x="959.816" y="553.84" type="line"/>
			<point x="976.816" y="378.448" type="line"/>
			<point x="1142.16" y="378.448" type="line"/>
			<point x="1142.16" y="649.928" type="line"/>
		</contour>
		<contour>
			<point x="1326.824" y="1502.144" type="line"/>
			<point x="1214.832" y="1414" type="line"/>
			<point x="494.904" y="1414" type="line"/>
			<point x="494.904" y="1192.552" type="line"/>
			<point x="1276.384" y="1192.552" type="line"/>
			<point x="1149.432" y="1332.928" type="line"/>
			<point x="1276.44" y="952.496" type="line"/>
			<point x="1457.912" y="952.496" type="line"/>
			<point x="1457.912" y="1502.144" type="line"/>
		</contour>
		<contour>
			<point x="702.848" y="1414" type="line"/>
			<point x="99.632" y="1414" type="line"/>
			<point x="99.632" y="1288.56" type="line"/>
			<point x="277.488" y="1240.968" type="line"/>
			<point x="277.488" y="173.032" type="line"/>
			<point x="99.632" y="125.44" type="line"/>
			<point x="99.632" y="0" type="line"/>
			<point x="880.704" y="0" type="line"/>
			<point x="880.704" y="125.44" type="line"/>
			<point x="702.848" y="173.032" type="line"/>
		</contour>
	</outline>
	<anchor name="UCtop" x="776.136" y="1414"/>
	<anchor name="bottom" x="490.168" y="0"/>
</glyph>
<glyph name="G" format="2">
	<unicode hex="0047"/>
	<advance width="1749.08"/>
	<outline>
		<contour>
			<point x="1532.256" y="247.4" type="line"/>
			<point x="1532.256" y="503.968" type="line"/>
			<point x="1664.928" y="564.52" type="line"/>
			<point x="1664.928" y="677" type="line"/>
			<point x="935.048" y="677" type="line"/>
			<point x="935.048" y="564.52" type="line"/>
			<point x="1106.896" y="510.448" type="line"/>
			<point x="1106.896" y="25.856" type="line"/>
			<point x="1321.144" y="280.304" type="line"/>
			<point x="1220.496" y="230.744"/>
			<point x="1129.168" y="213.576"/>
			<point x="1025.608" y="213.576" type="curve" smooth="yes"/>
			<point x="697.6" y="213.576"/>
			<point x="527.104" y="366.624"/>
			<point x="532.032" y="735.872" type="curve" smooth="yes"/>
			<point x="536.256" y="1066.376"/>
			<point x="667.856" y="1197.072"/>
			<point x="990.336" y="1197.072" type="curve" smooth="yes"/>
			<point x="1129.24" y="1197.072"/>
			<point x="1233.032" y="1171.648"/>
			<point x="1349.736" y="1100.688" type="curve"/>
			<point x="1195.944" y="1278.592" type="line"/>
			<point x="1318.008" y="919.088" type="line"/>
			<point x="1502.464" y="919.088" type="line"/>
			<point x="1502.464" y="1502.144" type="line"/>
			<point x="1358.248" y="1502.144" type="line"/>
			<point x="1244.44" y="1369.056" type="line"/>
			<point x="1350.32" y="1379.832" type="line"/>
			<point x="1222.824" y="1418.72"/>
			<point x="1096.68" y="1440.832"/>
			<point x="961.752" y="1440.832" type="curve" smooth="yes"/>
			<point x="382.416" y="1440.832"/>
			<point x="104.32" y="1140.952"/>
			<point x="102.208" y="689.632" type="curve" smooth="yes"/>
			<point x="100.096" y="210.688"/>
			<point x="382.856" y="-26.48"/>
			<point x="951.512" y="-26.48" type="curve" smooth="yes"/>
			<point x="1191.192" y="-26.48"/>
			<point x="1446.696" y="31.352"/>
			<point x="1648.928" y="123.184" type="curve"/>
			<point x="1648.928" y="247.4" type="line"/>
		</contour>
	</outline>
	<anchor name="UCtop" x="883.568" y="1414"/>
	<anchor name="bottom" x="952.512" y="0"/>
</glyph>
<glyph name="H" format="2">
	<unicode hex="0048"/>
	<advance width="1963.056"/>
	<outline>
		<contour>
			<point x="702.848" y="173.032" type="line"/>
			<point x="702.848" y="1240.968" type="line"/>
			<point x="880.704" y="1288.56" type="line"/>
			<point x="880.704" y="1414" type="line"/>
			<point x="99.632" y="1414" type="line"/>
			<point x="99.632" y="1288.56" type="line"/>
			<point x="277.488" y="1240.968" type="line"/>
			<point x="277.488" y="173.032" type="line"/>
			<point x="99.632" y="125.44" type="line"/>
			<point x="99.632" y="0" type="line"/>
			<point x="880.704" y="0" type="line"/>
			<point x="880.704" y="125.44" type="line"/>
		</contour>
		<contour>
			<point x="1685.568" y="173.032" type="line"/>
			<point x="1685.568" y="1240.968" type="line"/>
			<point x="1863.424" y="1288.56" type="line"/>
			<point x="1863.424" y="1414" type="line"/>
			<point x="1082.352" y="1414" type="line"/>
			<point x="1082.352" y="1288.56" type="line"/>
			<point x="1260.208" y="1240.968" type="line"/>
			<point x="1260.208" y="173.032" type="line"/>
			<point x="1082.352" y="125.44" type="line"/>
			<point x="1082.352" y="0" type="line"/>
			<point x="1863.424" y="0" type="line"/>
			<point x="1863.424" y="125.44" type="line"/>
		</contour>
		<contour>
			<point x="479.352" y="599.232" type="line"/>
			<point x="1485.352" y="599.232" type="line"/>
			<point x="1485.352" y="844.656" type="line"/>
			<point x="479.352" y="844.656" type="line"/>
		</contour>
	</outline>
	<anchor name="UCtop" x="981.704" y="1414"/>
	<anchor name="bottom" x="981.704" y="0"/>
</glyph>
<glyph name="I" format="2">
	<unicode hex="0049"/>
	<advance width="980.336"/>
	<outline>
		<contour>
			<point x="880.704" y="125.44" type="line"/>
			<point x="702.848" y="173.032" type="line"/>
			<point x="702.848" y="1240.968" type="line"/>
			<point x="880.704" y="1288.56" type="line"/>
			<point x="880.704" y="1414" type="line"/>
			<point x="99.632" y="1414" type="line"/>
			<point x="99.632" y="1288.56" type="line"/>
			<point x="277.488" y="1240.968" type="line"/>
			<point x="277.488" y="173.032" type="line"/>
			<point x="99.632" y="125.44" type="line"/>
			<point x="99.632" y="0" type="line"/>
			<point x="880.704" y="0" type="line"/>
		</contour>
	</outline>
	<anchor name="UCtop" x="490.168" y="1414"/>
	<anchor name="right" x="669.048" y="0"/>
	<anchor name="bottom" x="490.168" y="0"/>
</glyph>
<glyph name="J" format="2">
  <advance width="1307.496"/>
  <unicode hex="004A"/>
  <anchor x="858.5279999999999" y="1414.0" name="UCtop"/>
  <anchor x="615.8000000000001" y="0.0" name="bottom"/>
  <outline>
    <contour>
      <point x="1071.208" y="467.35200000000003" type="curve" smooth="yes"/>
      <point x="1071.208" y="1240.9679999999998" type="line"/>
      <point x="1249.064" y="1288.56" type="line"/>
      <point x="1249.064" y="1414.0" type="line"/>
      <point x="467.99199999999996" y="1414.0" type="line"/>
      <point x="467.99199999999996" y="1288.56" type="line"/>
      <point x="645.848" y="1240.9679999999998" type="line"/>
      <point x="645.848" y="424.432" type="line" smooth="yes"/>
      <point x="645.848" y="271.096"/>
      <point x="586.9359999999999" y="216.632"/>
      <point x="435.824" y="216.632" type="curve" smooth="yes"/>
      <point x="299.392" y="216.632"/>
      <point x="207.144" y="361.776"/>
      <point x="159.256" y="361.776" type="curve" smooth="yes"/>
      <point x="78.296" y="361.776"/>
      <point x="19.152" y="305.352"/>
      <point x="19.152" y="209.72799999999998" type="curve" smooth="yes"/>
      <point x="19.152" y="71.96"/>
      <point x="126.496" y="-22.48"/>
      <point x="434.336" y="-22.48" type="curve" smooth="yes"/>
      <point x="877.24" y="-22.48"/>
      <point x="1071.208" y="176.472"/>
    </contour>
  </outline>
</glyph>
<glyph name="K" format="2">
	<unicode hex="004B"/>
	<advance width="1836.408"/>
	<outline>
		<contour>
			<point x="1660.368" y="177.176" type="line"/>
			<point x="1121.048" y="943.248" type="line"/>
			<point x="1014.16" y="704.52" type="line"/>
			<point x="1558.776" y="1238.376" type="line"/>
			<point x="1725.48" y="1288.56" type="line"/>
			<point x="1725.48" y="1414" type="line"/>
			<point x="1093.152" y="1414" type="line"/>
			<point x="1093.152" y="1288.56" type="line"/>
			<point x="1260.928" y="1250.856" type="line"/>
			<point x="855.544" y="851.12" type="line"/>
			<point x="562.976" y="851.12" type="line"/>
			<point x="562.976" y="605.696" type="line"/>
			<point x="838.896" y="605.696" type="line"/>
			<point x="1179.824" y="112.48" type="line"/>
			<point x="1179.824" y="98.4" type="line"/>
			<point x="1179.824" y="0" type="line"/>
			<point x="1815.072" y="0" type="line"/>
			<point x="1815.072" y="125.44" type="line"/>
		</contour>
		<contour>
			<point x="702.848" y="1240.968" type="line"/>
			<point x="880.704" y="1288.56" type="line"/>
			<point x="880.704" y="1414" type="line"/>
			<point x="99.632" y="1414" type="line"/>
			<point x="99.632" y="1288.56" type="line"/>
			<point x="277.488" y="1240.968" type="line"/>
			<point x="277.488" y="173.032" type="line"/>
			<point x="99.632" y="125.44" type="line"/>
			<point x="99.632" y="0" type="line"/>
			<point x="880.704" y="0" type="line"/>
			<point x="880.704" y="125.44" type="line"/>
			<point x="702.848" y="173.032" type="line"/>
		</contour>
	</outline>
	<anchor name="bottom" x="990.872" y="0"/>
	<anchor name="UCtop" x="959.752" y="1414"/>
</glyph>
<glyph name="L" format="2">
	<unicode hex="004C"/>
	<advance width="1535.096"/>
	<outline>
		<contour>
			<point x="1384.376" y="-92.088" type="line"/>
			<point x="1491.944" y="563.928" type="line"/>
			<point x="1305.456" y="563.928" type="line"/>
			<point x="1077.656" y="121.248" type="line"/>
			<point x="1209.68" y="245.424" type="line"/>
			<point x="503.328" y="245.424" type="line"/>
			<point x="494.904" y="0" type="line"/>
			<point x="1151.224" y="0" type="line"/>
			<point x="1233.4" y="-92.088" type="line"/>
		</contour>
		<contour>
			<point x="702.848" y="1240.968" type="line"/>
			<point x="880.704" y="1288.56" type="line"/>
			<point x="880.704" y="1414" type="line"/>
			<point x="99.632" y="1414" type="line"/>
			<point x="99.632" y="1288.56" type="line"/>
			<point x="277.488" y="1240.968" type="line"/>
			<point x="277.488" y="173.032" type="line"/>
			<point x="99.632" y="125.44" type="line"/>
			<point x="99.632" y="0" type="line"/>
			<point x="702.848" y="0" type="line"/>
		</contour>
	</outline>
	<anchor name="UCtop" x="490.168" y="1414"/>
	<anchor name="bottom" x="771.944" y="0"/>
	<anchor name="mid" x="1263.352" y="825.136"/>
	<anchor name="right" x="916.584" y="1414"/>
</glyph>
<glyph name="M" format="2">
	<unicode hex="004D"/>
	<advance width="2427.336"/>
	<outline>
		<contour>
			<point x="2170.48" y="179.512" type="line"/>
			<point x="2113.92" y="1227.08" type="line"/>
			<point x="2293.664" y="1288.56" type="line"/>
			<point x="2293.664" y="1414" type="line"/>
			<point x="1503.728" y="1414" type="line"/>
			<point x="1196.624" y="350.176" type="line"/>
			<point x="1212.384" y="350.176" type="line"/>
			<point x="911.168" y="1414" type="line"/>
			<point x="116.192" y="1414" type="line"/>
			<point x="116.192" y="1288.56" type="line"/>
			<point x="315.6" y="1215.6" type="line"/>
			<point x="253.688" y="174.976" type="line"/>
			<point x="85.688" y="125.44" type="line"/>
			<point x="85.688" y="0" type="line"/>
			<point x="641.92" y="0" type="line"/>
			<point x="641.92" y="125.44" type="line"/>
			<point x="499.984" y="172.384" type="line"/>
			<point x="553.712" y="1178" type="line"/>
			<point x="543.656" y="1176.648" type="line"/>
			<point x="891.696" y="0" type="line"/>
			<point x="1338.872" y="0" type="line"/>
			<point x="1693.08" y="1194.072" type="line"/>
			<point x="1677.84" y="1195.424" type="line"/>
			<point x="1737.696" y="172.384" type="line"/>
			<point x="1591.224" y="125.44" type="line"/>
			<point x="1591.224" y="0" type="line"/>
			<point x="2349.352" y="0" type="line"/>
			<point x="2349.352" y="125.44" type="line"/>
		</contour>
	</outline>
	<anchor name="UCtop" x="1194.944" y="1414"/>
	<anchor name="bottom" x="1126.064" y="0"/>
</glyph>
<glyph name="N" format="2">
	<unicode hex="004E"/>
	<advance width="1864.232"/>
	<outline>
		<contour>
			<point x="280.672" y="171.736" type="line"/>
			<point x="105.632" y="125.44" type="line"/>
			<point x="105.632" y="0" type="line"/>
			<point x="705.92" y="0" type="line"/>
			<point x="705.92" y="125.44" type="line"/>
			<point x="524.544" y="171.736" type="line"/>
			<point x="524.544" y="1298" type="line"/>
			<point x="419.744" y="1273.376" type="line"/>
			<point x="1115.088" y="0" type="line"/>
			<point x="1609.152" y="0" type="line"/>
			<point x="1609.152" y="1242.264" type="line"/>
			<point x="1784.192" y="1288.56" type="line"/>
			<point x="1784.192" y="1414" type="line"/>
			<point x="1183.904" y="1414" type="line"/>
			<point x="1183.904" y="1288.56" type="line"/>
			<point x="1365.28" y="1242.264" type="line"/>
			<point x="1365.28" y="177.232" type="line"/>
			<point x="1422.968" y="298.008" type="line"/>
			<point x="808.232" y="1414" type="line"/>
			<point x="92.672" y="1414" type="line"/>
			<point x="92.672" y="1288.56" type="line"/>
			<point x="280.672" y="1229.304" type="line"/>
		</contour>
	</outline>
	<anchor name="UCtop" x="964.912" y="1414"/>
	<anchor name="bottom" x="977.872" y="0"/>
</glyph>
<glyph name="O" format="2">
	<unicode hex="004F"/>
	<advance width="1760.744"/>
	<outline>
		<contour>
			<point x="902.024" y="1440.48" type="curve" smooth="yes"/>
			<point x="405.776" y="1440.48"/>
			<point x="101.504" y="1164.456"/>
			<point x="101.504" y="705.648" type="curve" smooth="yes"/>
			<point x="101.504" y="249.84"/>
			<point x="376.024" y="-25.832"/>
			<point x="858.72" y="-25.832" type="curve" smooth="yes"/>
			<point x="1354.968" y="-25.832"/>
			<point x="1659.24" y="250.192"/>
			<point x="1659.24" y="709" type="curve" smooth="yes"/>
			<point x="1659.24" y="1164.808"/>
			<point x="1384.72" y="1440.48"/>
		</contour>
		<contour>
			<point x="882.568" y="229.944" type="curve" smooth="yes"/>
			<point x="636.584" y="229.944"/>
			<point x="531.624" y="399.752"/>
			<point x="531.624" y="761.032" type="curve" smooth="yes"/>
			<point x="531.624" y="1053.096"/>
			<point x="650.024" y="1184.704"/>
			<point x="878.176" y="1184.704" type="curve" smooth="yes"/>
			<point x="1124.16" y="1184.704"/>
			<point x="1229.12" y="1014.896"/>
			<point x="1229.12" y="653.616" type="curve" smooth="yes"/>
			<point x="1229.12" y="361.552"/>
			<point x="1110.72" y="229.944"/>
		</contour>
	</outline>
	<anchor name="UCtop" x="880.048" y="1414"/>
	<anchor name="bottom" x="880.048" y="0"/>
	<anchor name="horn" x="1229.8" y="1414"/>
	<anchor name="right" x="1079.488" y="0"/>
</glyph>
<glyph name="P" format="2">
	<unicode hex="0050"/>
	<advance width="1596.624"/>
	<outline>
		<contour>
			<point x="1117.256" y="957.952" type="curve" smooth="yes"/>
			<point x="1117.256" y="807.072"/>
			<point x="1048.488" y="744.92"/>
			<point x="908.2" y="744.92" type="curve" smooth="yes"/>
			<point x="560.88" y="744.92" type="line"/>
			<point x="434.52" y="508.568" type="line"/>
			<point x="987.24" y="508.568" type="line" smooth="yes"/>
			<point x="1378.808" y="508.568"/>
			<point x="1531.12" y="694.048"/>
			<point x="1531.12" y="959.36" type="curve" smooth="yes"/>
			<point x="1531.12" y="1241.576"/>
			<point x="1366.552" y="1414"/>
			<point x="951.944" y="1414" type="curve" smooth="yes"/>
			<point x="455.904" y="1414" type="line"/>
			<point x="560.88" y="1168.576" type="line"/>
			<point x="892.776" y="1168.576" type="line" smooth="yes"/>
			<point x="1065.416" y="1168.576"/>
			<point x="1117.256" y="1099.072"/>
		</contour>
		<contour>
			<point x="702.848" y="1414" type="line"/>
			<point x="99.632" y="1414" type="line"/>
			<point x="99.632" y="1288.56" type="line"/>
			<point x="277.488" y="1240.968" type="line"/>
			<point x="277.488" y="173.032" type="line"/>
			<point x="99.632" y="125.44" type="line"/>
			<point x="99.632" y="0" type="line"/>
			<point x="880.704" y="0" type="line"/>
			<point x="880.704" y="125.44" type="line"/>
			<point x="702.848" y="173.032" type="line"/>
		</contour>
	</outline>
	<anchor name="UCtop" x="829.28" y="1414"/>
	<anchor name="bottom" x="490.168" y="0"/>
</glyph>
<glyph name="Q" format="2">
  <advance width="1761"/>
  <unicode hex="0051"/>
  <anchor x="880.048" y="1414.0" name="UCtop"/>
  <anchor x="899.488" y="-438.52" name="bottom"/>
  <outline>
    <contour>
      <point x="653.5120000000001" y="-208.792" type="line" smooth="yes"/>
      <point x="839.984" y="-407.704"/>
      <point x="938.56" y="-465.0"/>
      <point x="1200.392" y="-465.0" type="curve" smooth="yes"/>
      <point x="1346.6960000000001" y="-465.0"/>
      <point x="1418.376" y="-453.464"/>
      <point x="1502.9279999999999" y="-437.872" type="curve"/>
      <point x="1502.9279999999999" y="-256.2" type="line"/>
      <point x="1293.008" y="-271.84799999999996"/>
      <point x="1233.472" y="-254.79199999999997"/>
      <point x="1060.5439999999999" y="-130.88" type="curve" smooth="yes"/>
      <point x="692.968" y="132.77599999999998" type="line"/>
      <point x="710.816" y="55.12" type="line"/>
      <point x="1250.224" y="-75.976"/>
      <point x="1659.24" y="229.76800000000003"/>
      <point x="1659.24" y="709.0" type="curve" smooth="yes"/>
      <point x="1659.24" y="1164.808"/>
      <point x="1384.72" y="1440.48"/>
      <point x="902.024" y="1440.48" type="curve" smooth="yes"/>
      <point x="405.776" y="1440.48"/>
      <point x="101.504" y="1164.456"/>
      <point x="101.504" y="705.648" type="curve" smooth="yes"/>
      <point x="101.504" y="456.632"/>
      <point x="183.024" y="281.0"/>
      <point x="323.12" y="134.296" type="curve" smooth="yes"/>
    </contour>
    <contour>
      <point x="882.568" y="240.312" type="curve" smooth="yes"/>
      <point x="636.5840000000001" y="240.312"/>
      <point x="531.624" y="406.88"/>
      <point x="531.624" y="761.032" type="curve" smooth="yes"/>
      <point x="531.624" y="1053.096"/>
      <point x="650.024" y="1184.7040000000002"/>
      <point x="878.176" y="1184.7040000000002" type="curve" smooth="yes"/>
      <point x="1124.16" y="1184.7040000000002"/>
      <point x="1229.12" y="1014.896"/>
      <point x="1229.12" y="653.616" type="curve" smooth="yes"/>
      <point x="1229.12" y="369.328"/>
      <point x="1110.72" y="240.312"/>
    </contour>
  </outline>
</glyph>
<glyph name="R" format="2">
	<unicode hex="0052"/>
	<advance width="1747.712"/>
	<outline>
		<contour>
			<point x="972.504" y="784.352" type="curve" smooth="yes"/>
			<point x="478.08" y="784.352" type="line"/>
			<point x="478.08" y="588.824" type="line"/>
			<point x="866.672" y="588.824" type="line" smooth="yes"/>
			<point x="1020.712" y="588.824"/>
			<point x="1052.232" y="557.728"/>
			<point x="1074.808" y="418.168" type="curve" smooth="yes"/>
			<point x="1109.68" y="200.28" type="line" smooth="yes"/>
			<point x="1140.552" y="8.28"/>
			<point x="1222.136" y="-32.624"/>
			<point x="1681.248" y="0" type="curve"/>
			<point x="1681.248" y="162.656" type="line"/>
			<point x="1571.136" y="162.656"/>
			<point x="1548.08" y="178.064"/>
			<point x="1529.856" y="296.584" type="curve" smooth="yes"/>
			<point x="1505.424" y="437.904" type="line" smooth="yes"/>
			<point x="1482.312" y="599.656"/>
			<point x="1423.312" y="672.488"/>
			<point x="1148.728" y="690.024" type="curve"/>
			<point x="1148.728" y="684.56" type="line"/>
			<point x="1443.488" y="711.896"/>
			<point x="1578.368" y="857.632"/>
			<point x="1578.368" y="1059.648" type="curve" smooth="yes"/>
			<point x="1578.368" y="1275.648"/>
			<point x="1454.664" y="1414"/>
			<point x="1090.664" y="1414" type="curve" smooth="yes"/>
			<point x="478.08" y="1414" type="line"/>
			<point x="478.08" y="1168.576" type="line"/>
			<point x="960.488" y="1168.576" type="line" smooth="yes"/>
			<point x="1121.312" y="1168.576"/>
			<point x="1167.504" y="1108.128"/>
			<point x="1167.504" y="976.344" type="curve" smooth="yes"/>
			<point x="1167.504" y="839.744"/>
			<point x="1104.088" y="784.352"/>
		</contour>
		<contour>
			<point x="702.848" y="1414" type="line"/>
			<point x="99.632" y="1414" type="line"/>
			<point x="99.632" y="1288.56" type="line"/>
			<point x="277.488" y="1240.968" type="line"/>
			<point x="277.488" y="173.032" type="line"/>
			<point x="99.632" y="125.44" type="line"/>
			<point x="99.632" y="0" type="line"/>
			<point x="861.264" y="0" type="line"/>
			<point x="861.264" y="125.44" type="line"/>
			<point x="702.848" y="173.032" type="line"/>
		</contour>
	</outline>
	<anchor name="UCtop" x="879.88" y="1414"/>
	<anchor name="bottom" x="946.92" y="0"/>
</glyph>
<glyph name="S" format="2">
	<unicode hex="0053"/>
	<advance width="1458.264"/>
	<outline>
		<contour>
			<point x="1191.936" y="1358.368" type="line"/>
			<point x="1051.68" y="1419.368"/>
			<point x="929.256" y="1440.48"/>
			<point x="773.296" y="1440.48" type="curve" smooth="yes"/>
			<point x="360.2" y="1440.48"/>
			<point x="120.544" y="1293.04"/>
			<point x="120.544" y="994.272" type="curve" smooth="yes"/>
			<point x="120.544" y="675.408"/>
			<point x="329.6" y="604.224"/>
			<point x="540.08" y="571.536" type="curve" smooth="yes"/>
			<point x="750.56" y="538.848"/>
			<point x="966.816" y="544.248"/>
			<point x="966.816" y="374.112" type="curve" smooth="yes"/>
			<point x="966.816" y="248.192"/>
			<point x="881.4" y="192.616"/>
			<point x="603.2" y="192.616" type="curve" smooth="yes"/>
			<point x="450.368" y="192.616"/>
			<point x="352.296" y="209.728"/>
			<point x="227.168" y="264.432" type="curve"/>
			<point x="525.648" y="33.928" type="line"/>
			<point x="289.664" y="441.408" type="line"/>
			<point x="126.536" y="441.408" type="line"/>
			<point x="169.04" y="22.928" type="line"/>
			<point x="319.072" y="-22.016"/>
			<point x="455.864" y="-26.48"/>
			<point x="637.248" y="-26.48" type="curve" smooth="yes"/>
			<point x="1108.096" y="-26.48"/>
			<point x="1349.296" y="125.272"/>
			<point x="1349.296" y="453.6" type="curve" smooth="yes"/>
			<point x="1349.296" y="796.672"/>
			<point x="1097" y="859.336"/>
			<point x="884.928" y="892.504" type="curve" smooth="yes"/>
			<point x="672.856" y="925.672"/>
			<point x="498.08" y="934.936"/>
			<point x="498.08" y="1078.592" type="curve" smooth="yes"/>
			<point x="498.08" y="1192.416"/>
			<point x="597.104" y="1222.144"/>
			<point x="777.552" y="1222.144" type="curve" smooth="yes"/>
			<point x="915.952" y="1222.144"/>
			<point x="1018.8" y="1202.144"/>
			<point x="1094.488" y="1152.272" type="curve"/>
			<point x="1000.68" y="1259.8" type="line"/>
			<point x="1109.84" y="998.552" type="line"/>
			<point x="1289.872" y="998.552" type="line"/>
			<point x="1289.872" y="1502.144" type="line"/>
			<point x="1143.952" y="1502.144" type="line"/>
			<point x="1034.92" y="1357.392" type="line"/>
		</contour>
	</outline>
	<anchor name="UCtop" x="700.376" y="1414"/>
	<anchor name="bottom" x="733.336" y="0"/>
</glyph>
<glyph name="U" format="2">
	<unicode hex="0055"/>
	<advance width="1793.52"/>
	<outline>
		<contour>
			<point x="1318.584" y="573.28" type="line" smooth="yes"/>
			<point x="1318.584" y="365.104"/>
			<point x="1217.336" y="273.584"/>
			<point x="993.088" y="273.584" type="curve" smooth="yes"/>
			<point x="769.04" y="273.584"/>
			<point x="658.016" y="358.312"/>
			<point x="658.016" y="549.864" type="curve" smooth="yes"/>
			<point x="658.016" y="1242.264" type="line"/>
			<point x="835.872" y="1288.56" type="line"/>
			<point x="835.872" y="1414" type="line"/>
			<point x="54.8" y="1414" type="line"/>
			<point x="54.8" y="1288.56" type="line"/>
			<point x="232.656" y="1242.264" type="line"/>
			<point x="232.656" y="525.888" type="line" smooth="yes"/>
			<point x="232.656" y="137.392"/>
			<point x="459.688" y="-26.48"/>
			<point x="921.472" y="-26.48" type="curve" smooth="yes"/>
			<point x="1340.552" y="-26.48"/>
			<point x="1562.456" y="156.816"/>
			<point x="1562.456" y="556.064" type="curve" smooth="yes"/>
			<point x="1562.456" y="1242.264" type="line"/>
			<point x="1740.312" y="1288.56" type="line"/>
			<point x="1740.312" y="1414" type="line"/>
			<point x="1140.728" y="1414" type="line"/>
			<point x="1140.728" y="1288.56" type="line"/>
			<point x="1318.584" y="1242.264" type="line"/>
		</contour>
	</outline>
	<anchor name="UCtop" x="973.24" y="1414"/>
	<anchor name="right" x="1146.792" y="0"/>
	<anchor name="bottom" x="943.24" y="0"/>
	<anchor name="horn" x="1555.512" y="1414"/>
</glyph>
<glyph name="V" format="2">
	<unicode hex="0056"/>
	<advance width="1816.808"/>
	<outline>
		<contour>
			<point x="189" y="1238.376" type="line"/>
			<point x="675.192" y="-7.04" type="line"/>
			<point x="1181.84" y="-7.04" type="line"/>
			<point x="1629.344" y="1251.336" type="line"/>
			<point x="1797.344" y="1288.56" type="line"/>
			<point x="1797.344" y="1414" type="line"/>
			<point x="1199.488" y="1414" type="line"/>
			<point x="1199.488" y="1288.56" type="line"/>
			<point x="1366.696" y="1247.448" type="line"/>
			<point x="1005.52" y="163.536" type="line"/>
			<point x="1045.448" y="163.536" type="line"/>
			<point x="642.952" y="1251.336" type="line"/>
			<point x="812.104" y="1288.56" type="line"/>
			<point x="812.104" y="1414" type="line"/>
			<point x="3.648" y="1414" type="line"/>
			<point x="3.648" y="1288.56" type="line"/>
		</contour>
	</outline>
	<anchor name="UCtop" x="982.896" y="1414"/>
	<anchor name="bottom" x="930.496" y="0"/>
</glyph>
<glyph name="W" format="2">
	<unicode hex="0057"/>
	<advance width="2495.72"/>
	<outline>
		<contour>
			<point x="1313.96" y="1096.304" type="line"/>
			<point x="1234.456" y="1096.304" type="line"/>
			<point x="1551.968" y="0" type="line"/>
			<point x="2039.736" y="0" type="line"/>
			<point x="2302.664" y="1253.28" type="line"/>
			<point x="2470.664" y="1288.56" type="line"/>
			<point x="2470.664" y="1414" type="line"/>
			<point x="1893.176" y="1414" type="line"/>
			<point x="1893.176" y="1288.56" type="line"/>
			<point x="2040.944" y="1249.392" type="line"/>
			<point x="1851.248" y="96.104" type="line"/>
			<point x="1957.368" y="122.024" type="line"/>
			<point x="1560.976" y="1414" type="line"/>
			<point x="1140.16" y="1414" type="line"/>
			<point x="772.432" y="124.568" type="line"/>
			<point x="861.032" y="136.88" type="line"/>
			<point x="655.36" y="1253.28" type="line"/>
			<point x="805.072" y="1288.56" type="line"/>
			<point x="805.072" y="1414" type="line"/>
			<point x="17.464" y="1414" type="line"/>
			<point x="17.464" y="1288.56" type="line"/>
			<point x="202.464" y="1240.32" type="line"/>
			<point x="467.888" y="0" type="line"/>
			<point x="980.024" y="0" type="line"/>
		</contour>
	</outline>
	<anchor name="UCtop" x="1341.824" y="1414"/>
	<anchor name="bottom" x="1274.064" y="0"/>
</glyph>
<glyph name="X" format="2">
  <advance width="1867.2"/>
  <unicode hex="0058"/>
  <anchor x="942.424" y="1414.0" name="UCtop"/>
  <anchor x="931.864" y="0.0" name="bottom"/>
  <outline>
    <contour>
      <point x="859.224" y="630.0640000000001" type="line"/>
      <point x="1158.5919999999999" y="624.056" type="line"/>
      <point x="1616.712" y="1240.32" type="line"/>
      <point x="1767.216" y="1288.56" type="line"/>
      <point x="1767.216" y="1414.0" type="line"/>
      <point x="1184.2640000000001" y="1414.0" type="line"/>
      <point x="1184.2640000000001" y="1288.56" type="line"/>
      <point x="1324.16" y="1246.8" type="line"/>
      <point x="1021.1039999999999" y="812.76" type="line"/>
      <point x="696.296" y="809.528" type="line"/>
      <point x="202.56" y="173.67999999999998" type="line"/>
      <point x="52.056" y="125.44" type="line"/>
      <point x="52.056" y="0.0" type="line"/>
      <point x="669.3520000000001" y="0.0" type="line"/>
      <point x="669.3520000000001" y="125.44" type="line"/>
      <point x="516.496" y="167.2" type="line"/>
    </contour>
    <contour>
      <point x="1123.568" y="173.67999999999998" type="line"/>
      <point x="969.968" y="125.44" type="line"/>
      <point x="969.968" y="0.0" type="line"/>
      <point x="1850.288" y="0.0" type="line"/>
      <point x="1850.288" y="125.44" type="line"/>
      <point x="1684.288" y="178.86399999999998" type="line"/>
      <point x="1164.872" y="799.336" type="line"/>
      <point x="1116.656" y="856.7360000000001" type="line"/>
      <point x="797.3520000000001" y="1240.32" type="line"/>
      <point x="950.952" y="1288.56" type="line"/>
      <point x="950.952" y="1414.0" type="line"/>
      <point x="70.632" y="1414.0" type="line"/>
      <point x="70.632" y="1288.56" type="line"/>
      <point x="236.632" y="1235.136" type="line"/>
      <point x="686.976" y="698.328" type="line"/>
      <point x="733.712" y="641.704" type="line"/>
    </contour>
  </outline>
</glyph>
<glyph name="Y" format="2">
  <advance width="1727.4080000000001"/>
  <unicode hex="0059"/>
  <anchor x="952.336" y="1414.0" name="UCtop"/>
  <anchor x="885.352" y="0.0" name="bottom"/>
  <outline>
    <contour>
      <point x="163.688" y="1247.448" type="line"/>
      <point x="672.6719999999999" y="593.312" type="line"/>
      <point x="672.6719999999999" y="173.03199999999998" type="line"/>
      <point x="494.816" y="125.44" type="line"/>
      <point x="494.816" y="0.0" type="line"/>
      <point x="1275.8880000000001" y="0.0" type="line"/>
      <point x="1275.8880000000001" y="125.44" type="line"/>
      <point x="1098.032" y="173.03199999999998" type="line"/>
      <point x="1098.032" y="598.1279999999999" type="line"/>
      <point x="1556.424" y="1247.448" type="line"/>
      <point x="1695.352" y="1288.56" type="line"/>
      <point x="1695.352" y="1414.0" type="line"/>
      <point x="1130.768" y="1414.0" type="line"/>
      <point x="1130.768" y="1288.56" type="line"/>
      <point x="1283.648" y="1247.448" type="line"/>
      <point x="927.44" y="726.72" type="line"/>
      <point x="1060.9360000000001" y="732.256" type="line"/>
      <point x="678.264" y="1247.448" type="line"/>
      <point x="829.92" y="1288.56" type="line"/>
      <point x="829.92" y="1414.0" type="line"/>
      <point x="6.76" y="1414.0" type="line"/>
      <point x="6.76" y="1288.56" type="line"/>
    </contour>
  </outline>
</glyph>
<glyph name="Z" format="2">
	<unicode hex="005A"/>
	<advance width="1549.056"/>
	<outline>
		<contour>
			<point x="1385.984" y="1414" type="line"/>
			<point x="365.12" y="1414" type="line"/>
			<point x="255.072" y="1497.608" type="line"/>
			<point x="129.168" y="1497.608" type="line"/>
			<point x="129.168" y="912.576" type="line"/>
			<point x="283.424" y="912.576" type="line"/>
			<point x="379.656" y="1168.576" type="line"/>
			<point x="1197.984" y="1168.576" type="line"/>
			<point x="955.896" y="1280" type="line"/>
			<point x="131.48" y="225.424" type="line"/>
			<point x="131.48" y="0" type="line"/>
			<point x="1157.328" y="0" type="line"/>
			<point x="1234.968" y="-92.736" type="line"/>
			<point x="1380.112" y="-92.736" type="line"/>
			<point x="1476.848" y="540.216" type="line"/>
			<point x="1322.76" y="540.216" type="line"/>
			<point x="1143.904" y="245.424" type="line"/>
			<point x="355.768" y="245.424" type="line"/>
			<point x="556.736" y="133" type="line"/>
			<point x="1385.984" y="1189.224" type="line"/>
		</contour>
	</outline>
	<anchor name="UCtop" x="814.032" y="1414"/>
	<anchor name="bottom" x="728.672" y="0"/>
</glyph>
<glyph name="bracketleft" format="2">
  <advance width="870"/>
  <unicode hex="005B"/>
  <outline>
    <contour>
      <point x="197.02399999999997" y="-218.76" type="line"/>
      <point x="808.384" y="-218.76" type="line"/>
      <point x="808.384" y="-33.440000000000005" type="line"/>
      <point x="501.76" y="-33.440000000000005" type="line"/>
      <point x="501.76" y="1278.6799999999998" type="line"/>
      <point x="808.384" y="1278.6799999999998" type="line"/>
      <point x="808.384" y="1464.0" type="line"/>
      <point x="197.02399999999997" y="1464.0" type="line"/>
    </contour>
  </outline>
</glyph>
<glyph name="backslash" format="2">
	<unicode hex="005C"/>
	<advance width="976.536"/>
	<outline>
		<contour>
			<point x="924.256" y="0" type="line"/>
			<point x="333.608" y="1414" type="line"/>
			<point x="49.928" y="1414" type="line"/>
			<point x="640.928" y="0" type="line"/>
		</contour>
	</outline>
</glyph>
<glyph name="bracketright" format="2">
	<unicode hex="005D"/>
	<advance width="869.848"/>
	<outline>
		<contour>
			<point x="672.824" y="1464.352" type="line"/>
			<point x="61.464" y="1464.352" type="line"/>
			<point x="61.464" y="1279.032" type="line"/>
			<point x="368.088" y="1279.032" type="line"/>
			<point x="368.088" y="-33.088" type="line"/>
			<point x="61.464" y="-33.088" type="line"/>
			<point x="61.464" y="-218.408" type="line"/>
			<point x="672.824" y="-218.408" type="line"/>
		</contour>
	</outline>
</glyph>
<glyph name="asciicircum" format="2">
	<unicode hex="005E"/>
	<advance width="1140"/>
	<outline>
		<contour>
			<point x="506.848" y="1267.712" type="line"/>
			<point x="798.648" y="649.296" type="line"/>
			<point x="1049.408" y="649.296" type="line"/>
			<point x="684.112" y="1414" type="line"/>
			<point x="456.184" y="1414" type="line"/>
			<point x="90.592" y="649.296" type="line"/>
			<point x="341.352" y="649.296" type="line"/>
			<point x="633.448" y="1267.712" type="line"/>
		</contour>
	</outline>
</glyph>
<glyph name="a" format="2">
	<unicode hex="0061"/>
	<advance width="1314.176"/>
	<outline>
		<contour>
			<point x="821.944" y="650.928" type="line"/>
			<point x="194.288" y="573.056"/>
			<point x="86.896" y="465.888"/>
			<point x="86.896" y="263.128" type="curve" smooth="yes"/>
			<point x="86.896" y="70.28"/>
			<point x="206.08" y="-26.48"/>
			<point x="425.04" y="-26.48" type="curve" smooth="yes"/>
			<point x="622.224" y="-26.48"/>
			<point x="725.672" y="59.952"/>
			<point x="776.592" y="292.736" type="curve"/>
			<point x="764.056" y="282.368" type="line"/>
			<point x="776.24" y="63.28"/>
			<point x="861.496" y="-24.72"/>
			<point x="1021.84" y="-24.72" type="curve" smooth="yes"/>
			<point x="1122.888" y="-24.72"/>
			<point x="1219.384" y="8.816"/>
			<point x="1298.936" y="59.096" type="curve"/>
			<point x="1298.936" y="182.144" type="line"/>
			<point x="1264.824" y="176.088"/>
			<point x="1238.896" y="173.032"/>
			<point x="1216.672" y="173.032" type="curve" smooth="yes"/>
			<point x="1158.224" y="173.032"/>
			<point x="1129.24" y="193.664"/>
			<point x="1129.24" y="258.76" type="curve" smooth="yes"/>
			<point x="1129.24" y="706.84" type="line" smooth="yes"/>
			<point x="1129.24" y="932.424"/>
			<point x="1016.096" y="1063.44"/>
			<point x="697.848" y="1063.44" type="curve" smooth="yes"/>
			<point x="334.032" y="1063.44"/>
			<point x="99.688" y="896.776"/>
			<point x="99.688" y="788.576" type="curve" smooth="yes"/>
			<point x="99.688" y="735.504"/>
			<point x="144.632" y="698.856"/>
			<point x="241.536" y="698.856" type="curve" smooth="yes"/>
			<point x="334.416" y="698.856"/>
			<point x="381.08" y="711.688"/>
			<point x="404.08" y="772.76" type="curve" smooth="yes"/>
			<point x="427.08" y="832.536"/>
			<point x="444.672" y="893.088"/>
			<point x="463.376" y="973.848" type="curve"/>
			<point x="400.336" y="891.128" type="line"/>
			<point x="438.6" y="898.296"/>
			<point x="484.512" y="903.056"/>
			<point x="563.384" y="903.056" type="curve" smooth="yes"/>
			<point x="701.984" y="903.056"/>
			<point x="752.744" y="841.592"/>
			<point x="752.744" y="709.328" type="curve" smooth="yes"/>
			<point x="752.744" y="332.128" type="line" smooth="yes"/>
			<point x="752.744" y="262.472"/>
			<point x="686.864" y="214.632"/>
			<point x="588.096" y="214.632" type="curve" smooth="yes"/>
			<point x="487.424" y="214.632"/>
			<point x="457.232" y="247.784"/>
			<point x="457.232" y="335.712" type="curve" smooth="yes"/>
			<point x="457.232" y="434.624"/>
			<point x="500.736" y="474.48"/>
			<point x="805.4" y="505.32" type="curve"/>
		</contour>
	</outline>
	<anchor name="top" x="636.224" y="1036.96"/>
	<anchor name="right" x="1298.936" y="0"/>
	<anchor name="bottom" x="657.28" y="0"/>
</glyph>
<glyph name="c" format="2">
	<unicode hex="0063"/>
	<advance width="1188.016"/>
	<outline>
		<contour>
			<point x="718.792" y="1063.44" type="curve" smooth="yes"/>
			<point x="303.0117647059" y="1063.44"/>
			<point x="84.504" y="832.56"/>
			<point x="84.504" y="501.888" type="curve" smooth="yes"/>
			<point x="84.504" y="156.816"/>
			<point x="290.336" y="-26.48"/>
			<point x="640.064" y="-26.48" type="curve" smooth="yes"/>
			<point x="755.176" y="-26.48"/>
			<point x="889.92" y="19.8"/>
			<point x="1100.92" y="152.512" type="curve"/>
			<point x="1100.92" y="294.8" type="line"/>
			<point x="987.752" y="262.296"/>
			<point x="881.992" y="244.72"/>
			<point x="755.072" y="244.72" type="curve" smooth="yes"/>
			<point x="519.312" y="244.72"/>
			<point x="432.136" y="333.008"/>
			<point x="432.136" y="599.952" type="curve" smooth="yes"/>
			<point x="432.136" y="826.768"/>
			<point x="511.5086020067" y="901.648"/>
			<point x="651.344" y="901.648" type="curve" smooth="yes"/>
			<point x="716.696" y="901.648"/>
			<point x="916.784" y="672.736"/>
			<point x="964.464" y="672.736" type="curve" smooth="yes"/>
			<point x="1037.336" y="672.736"/>
			<point x="1126.328" y="741.328"/>
			<point x="1126.328" y="844.84" type="curve" smooth="yes"/>
			<point x="1126.328" y="965.144"/>
			<point x="1025.168" y="1063.44"/>
		</contour>
	</outline>
	<anchor name="top" x="633.4" y="1036.96"/>
	<anchor name="right" x="1116.472" y="0"/>
	<anchor name="bottom" x="634.856" y="0"/>
</glyph>
<glyph name="d" format="2">
  <advance width="1451.664"/>
  <unicode hex="0064"/>
  <anchor x="1246.64" y="1431.6" name="right"/>
  <anchor x="683.712" y="1431.6" name="UCtop"/>
  <anchor x="746.672" y="0.0" name="bottom"/>
  <anchor x="1019.504" y="1193.9759999999999" name="center"/>
  <outline>
    <contour>
      <point x="867.848" y="658.928" type="curve" smooth="yes"/>
      <point x="867.848" y="197.704" type="line"/>
      <point x="962.2879999999999" y="-26.480000000000004" type="line"/>
      <point x="1016.4879999999999" y="-26.480000000000004" type="line"/>
      <point x="1419.624" y="101.464" type="line"/>
      <point x="1419.624" y="174.56799999999998" type="line"/>
      <point x="1377.624" y="202.61565217391305"/>
      <point x="1269.992" y="273.5167701863354"/>
      <point x="1245.992" y="289.544" type="curve"/>
      <point x="1245.992" y="1223.568" type="line"/>
      <point x="1269.88" y="1490.48" type="line"/>
      <point x="1176.0400000000002" y="1490.48" type="line"/>
      <point x="671.88" y="1402.336" type="line"/>
      <point x="671.88" y="1288.992" type="line"/>
      <point x="728.88" y="1266.3562245712008"/>
      <point x="843.8480000000001" y="1221.170852812126"/>
      <point x="867.848" y="1211.64" type="curve"/>
      <point x="867.848" y="941.136" type="line"/>
      <point x="1101.136" y="958.032" type="line"/>
      <point x="957.2320000000001" y="1037.384"/>
      <point x="856.936" y="1063.44"/>
      <point x="700.9200000000001" y="1063.44" type="curve" smooth="yes"/>
      <point x="353.48" y="1063.44"/>
      <point x="86.8" y="842.088"/>
      <point x="86.8" y="478.48" type="curve" smooth="yes"/>
      <point x="86.8" y="165.704"/>
      <point x="236.32000000000002" y="-26.48"/>
      <point x="534.544" y="-26.48" type="curve" smooth="yes"/>
      <point x="613.896" y="-26.48"/>
      <point x="666.2719999999999" y="-9.959999999999999"/>
      <point x="944.184" y="193.432" type="curve"/>
      <point x="944.184" y="252.704" type="line"/>
      <point x="865.656" y="226.99200000000002"/>
      <point x="782.0559999999999" y="213.432"/>
      <point x="713.136" y="213.432" type="curve" smooth="yes"/>
      <point x="538.384" y="213.432"/>
      <point x="461.856" y="296.272"/>
      <point x="461.856" y="521.128" type="curve" smooth="yes"/>
      <point x="461.856" y="761.2959999999999"/>
      <point x="547.568" y="854.1600000000001"/>
      <point x="703.5840000000001" y="854.1600000000001" type="curve" smooth="yes"/>
      <point x="824.4720000000001" y="854.1600000000001"/>
      <point x="867.848" y="794.9680000000001"/>
    </contour>
  </outline>
</glyph>
<glyph name="e" format="2">
	<unicode hex="0065"/>
	<advance width="1233.424"/>
	<outline>
		<contour>
			<point x="640.008" y="1063.44" type="curve" smooth="yes"/>
			<point x="285.688" y="1063.44"/>
			<point x="86.152" y="847.2"/>
			<point x="86.152" y="501.888" type="curve" smooth="yes"/>
			<point x="86.152" y="156.816"/>
			<point x="292.928" y="-26.48"/>
			<point x="652.232" y="-26.48" type="curve" smooth="yes"/>
			<point x="775.824" y="-26.48"/>
			<point x="926.512" y="25.336"/>
			<point x="1123.664" y="152.512" type="curve"/>
			<point x="1123.664" y="281.192" type="line"/>
			<point x="1020" y="255.208"/>
			<point x="911.592" y="235.648"/>
			<point x="773.112" y="235.648" type="curve" smooth="yes"/>
			<point x="524.144" y="235.648"/>
			<point x="433.784" y="319.896"/>
			<point x="433.784" y="591.232" type="curve" smooth="yes"/>
			<point x="433.784" y="801.944"/>
			<point x="493.776" y="868.36"/>
			<point x="620.752" y="868.36" type="curve" smooth="yes"/>
			<point x="740.944" y="868.36"/>
			<point x="798.544" y="815.816"/>
			<point x="795.12" y="577.32" type="curve"/>
			<point x="869.968" y="635.256" type="line"/>
			<point x="345.944" y="635.256" type="line"/>
			<point x="348.056" y="483.704" type="line"/>
			<point x="1150.456" y="483.704" type="line"/>
			<point x="1137.088" y="892.6"/>
			<point x="989.28" y="1063.44"/>
		</contour>
	</outline>
	<anchor name="top" x="633.896" y="1036.96"/>
	<anchor name="right" x="1123.664" y="0"/>
	<anchor name="bottom" x="646.92" y="0"/>
</glyph>
<glyph name="f" format="2">
	<unicode hex="0066"/>
	<advance width="1027.952"/>
	<outline>
		<contour>
			<point x="442.248" y="817.808" type="line"/>
			<point x="986.432" y="817.808" type="line"/>
			<point x="986.432" y="1036.96" type="line"/>
			<point x="446.136" y="1036.96" type="line"/>
			<point x="273.224" y="1066.792" type="line"/>
			<point x="41.192" y="966.576" type="line"/>
			<point x="41.192" y="886.376" type="line"/>
			<point x="255.928" y="792.512" type="line"/>
		</contour>
		<contour>
			<point x="634.072" y="146.368" type="line"/>
			<point x="634.072" y="1126.432" type="line" smooth="yes"/>
			<point x="634.072" y="1245.064"/>
			<point x="681.8" y="1297.864"/>
			<point x="821.936" y="1297.864" type="curve" smooth="yes"/>
			<point x="1005.616" y="1297.864"/>
			<point x="1046.136" y="1135.312"/>
			<point x="1087.616" y="1135.312" type="curve" smooth="yes"/>
			<point x="1197.904" y="1135.312"/>
			<point x="1262.864" y="1206.88"/>
			<point x="1262.864" y="1293.544" type="curve" smooth="yes"/>
			<point x="1262.864" y="1408.928"/>
			<point x="1194.824" y="1490.48"/>
			<point x="838.384" y="1490.48" type="curve" smooth="yes"/>
			<point x="437.576" y="1490.48"/>
			<point x="255.928" y="1354.424"/>
			<point x="255.928" y="1029.496" type="curve" smooth="yes"/>
			<point x="255.928" y="146.368" type="line"/>
			<point x="118.088" y="110.904" type="line"/>
			<point x="118.088" y="0" type="line"/>
			<point x="792.264" y="0" type="line"/>
			<point x="792.264" y="110.904" type="line"/>
		</contour>
	</outline>
	<anchor name="UCtop" x="764.312" y="1464"/>
	<anchor name="bottom" x="445" y="0"/>
</glyph>
<glyph name="g" format="2">
	<unicode hex="0067"/>
	<advance width="1291.312"/>
	<outline>
		<contour>
			<point x="602.248" y="-465" type="curve" smooth="yes"/>
			<point x="1045.272" y="-465"/>
			<point x="1262.88" y="-330.464"/>
			<point x="1262.88" y="-99.32" type="curve" smooth="yes"/>
			<point x="1262.232" y="114.752"/>
			<point x="1133.768" y="191.696"/>
			<point x="750.52" y="193.048" type="curve" smooth="yes"/>
			<point x="367.272" y="194.4"/>
			<point x="355.768" y="211.92"/>
			<point x="355.768" y="269.552" type="curve" smooth="yes"/>
			<point x="355.768" y="311.592"/>
			<point x="379.4" y="328.944"/>
			<point x="459.64" y="331.408" type="curve"/>
			<point x="458.176" y="364.832" type="line"/>
			<point x="204.648" y="351.016"/>
			<point x="105.56" y="272.24"/>
			<point x="105.56" y="143.12" type="curve" smooth="yes"/>
			<point x="105.56" y="1.92"/>
			<point x="204.392" y="-94.168"/>
			<point x="578.848" y="-94.168" type="curve" smooth="yes"/>
			<point x="953.304" y="-94.168"/>
			<point x="977.696" y="-119.84"/>
			<point x="977.696" y="-188.92" type="curve" smooth="yes"/>
			<point x="977.696" y="-265.984"/>
			<point x="893.208" y="-307.32"/>
			<point x="642.536" y="-307.32" type="curve" smooth="yes"/>
			<point x="419.76" y="-307.32"/>
			<point x="359.44" y="-274.632"/>
			<point x="359.44" y="-190.792" type="curve" smooth="yes"/>
			<point x="359.44" y="-119.584"/>
			<point x="417.44" y="-86.04"/>
			<point x="591.928" y="-84.632" type="curve"/>
			<point x="591.928" y="-71.464" type="line"/>
			<point x="484.952" y="-71.816" type="line"/>
			<point x="156.368" y="-72.464"/>
			<point x="49.664" y="-139.528"/>
			<point x="49.664" y="-255.768" type="curve" smooth="yes"/>
			<point x="49.664" y="-388.44"/>
			<point x="165.392" y="-465"/>
		</contour>
		<contour>
			<point x="595.192" y="321" type="curve" smooth="yes"/>
			<point x="896.888" y="321"/>
			<point x="1088.936" y="440.096"/>
			<point x="1088.936" y="691.72" type="curve" smooth="yes"/>
			<point x="1088.936" y="924.256"/>
			<point x="896.888" y="1063.44"/>
			<point x="595.192" y="1063.44" type="curve" smooth="yes"/>
			<point x="292.384" y="1063.44"/>
			<point x="98.04" y="942.4"/>
			<point x="98.04" y="691.72" type="curve" smooth="yes"/>
			<point x="98.04" y="442.688"/>
			<point x="271.648" y="321"/>
		</contour>
		<contour>
			<point x="601.896" y="495.528" type="curve" smooth="yes"/>
			<point x="489.456" y="495.528"/>
			<point x="441.32" y="539.128"/>
			<point x="441.32" y="686.112" type="curve" smooth="yes"/>
			<point x="441.32" y="852.776"/>
			<point x="501.016" y="901.576"/>
			<point x="593.84" y="901.576" type="curve" smooth="yes"/>
			<point x="704.52" y="901.576"/>
			<point x="751.6" y="857.976"/>
			<point x="751.6" y="710.992" type="curve" smooth="yes"/>
			<point x="751.6" y="544.328"/>
			<point x="693.312" y="495.528"/>
		</contour>
		<contour>
			<point x="782.912" y="938.144" type="line"/>
			<point x="1093.928" y="871.28"/>
			<point x="1192.736" y="853.392"/>
			<point x="1225.368" y="853.392" type="curve" smooth="yes"/>
			<point x="1247.496" y="853.392"/>
			<point x="1257.256" y="875.712"/>
			<point x="1257.256" y="972.76" type="curve" smooth="yes"/>
			<point x="1257.256" y="1032.424"/>
			<point x="1251.496" y="1044"/>
			<point x="1213.056" y="1044" type="curve" smooth="yes"/>
			<point x="1133.856" y="1044"/>
			<point x="906.616" y="1036.96"/>
			<point x="744.296" y="1036.96" type="curve"/>
		</contour>
	</outline>
	<anchor name="top" x="606.656" y="1036.96"/>
	<anchor name="bottom" x="633.136" y="-457.96"/>
</glyph>
<glyph name="h" format="2">
	<unicode hex="0068"/>
	<advance width="1488.528"/>
	<outline>
		<contour>
			<point x="829.936" y="110.904" type="line"/>
			<point x="829.936" y="0" type="line"/>
			<point x="1438.176" y="0" type="line"/>
			<point x="1438.176" y="110.904" type="line"/>
			<point x="1299.336" y="146.368" type="line"/>
			<point x="1299.336" y="744.216" type="line" smooth="yes"/>
			<point x="1299.336" y="949.2"/>
			<point x="1188.264" y="1063.44"/>
			<point x="952.136" y="1063.44" type="curve" smooth="yes"/>
			<point x="840.392" y="1063.44"/>
			<point x="816.816" y="1054.328"/>
			<point x="526.64" y="828.04" type="curve"/>
			<point x="545.232" y="743.68" type="line"/>
			<point x="615.92" y="761.664"/>
			<point x="693.76" y="772.592"/>
			<point x="759.304" y="772.592" type="curve" smooth="yes"/>
			<point x="881.112" y="772.592"/>
			<point x="921.192" y="730.2"/>
			<point x="921.192" y="639.448" type="curve" smooth="yes"/>
			<point x="921.192" y="137.296" type="line"/>
		</contour>
		<contour>
			<point x="667.056" y="0" type="line"/>
			<point x="667.056" y="110.904" type="line"/>
			<point x="575.8" y="137.296" type="line"/>
			<point x="575.8" y="1223.568" type="line"/>
			<point x="599.688" y="1490.48" type="line"/>
			<point x="505.848" y="1490.48" type="line"/>
			<point x="1.688" y="1402.336" type="line"/>
			<point x="1.688" y="1288.992" type="line"/>
			<point x="79.688" y="1244.2819457519"/>
			<point x="171.656" y="1194.143351416"/>
			<point x="197.656" y="1179.24" type="curve"/>
			<point x="197.656" y="146.368" type="line"/>
			<point x="59.816" y="110.904" type="line"/>
			<point x="59.816" y="0" type="line"/>
		</contour>
	</outline>
	<anchor name="UCtop" x="776.432" y="1464"/>
	<anchor name="bottom" x="739.784" y="0"/>
	<anchor name="center" x="424.144" y="1193.976"/>
</glyph>
<glyph name="i" format="2">
  <advance width="808"/>
  <unicode hex="0069"/>
  <anchor x="422.352" y="1464.0" name="top"/>
  <anchor x="420.67199999999997" y="0.0" name="bottom"/>
  <anchor x="589.0559999999999" y="0.0" name="right"/>
  <outline>
    <contour>
      <point x="410.392" y="1180.896" type="curve" smooth="yes"/>
      <point x="570.192" y="1180.896"/>
      <point x="647.8" y="1233.32"/>
      <point x="647.8" y="1337.632" type="curve" smooth="yes"/>
      <point x="647.8" y="1441.296"/>
      <point x="570.192" y="1490.48"/>
      <point x="410.392" y="1490.48" type="curve" smooth="yes"/>
      <point x="250.592" y="1490.48"/>
      <point x="172.984" y="1441.296"/>
      <point x="172.984" y="1337.632" type="curve" smooth="yes"/>
      <point x="172.984" y="1233.32"/>
      <point x="250.592" y="1180.896"/>
    </contour>
    <contour>
      <point x="631.52" y="1063.44" type="line"/>
      <point x="519.088" y="1063.44" type="line"/>
      <point x="68.09599999999999" y="946.24" type="line"/>
      <point x="68.09599999999999" y="857.376" type="line"/>
      <point x="129.096" y="808.2174318719954"/>
      <point x="209.6" y="746.169319652723"/>
      <point x="231.6" y="728.4399999999999" type="curve"/>
      <point x="231.6" y="146.36800000000002" type="line"/>
      <point x="93.76" y="110.904" type="line"/>
      <point x="93.76" y="0.0" type="line"/>
      <point x="744.416" y="0.0" type="line"/>
      <point x="744.416" y="110.904" type="line"/>
      <point x="609.744" y="146.36800000000002" type="line"/>
      <point x="609.744" y="744.832" type="line"/>
    </contour>
  </outline>
</glyph>
<glyph name="j" format="2">
	<unicode hex="006A"/>
	<advance width="753.08"/>
	<outline>
		<contour>
			<point x="391.168" y="1180.896" type="curve" smooth="yes"/>
			<point x="550.968" y="1180.896"/>
			<point x="628.576" y="1233.32"/>
			<point x="628.576" y="1337.632" type="curve" smooth="yes"/>
			<point x="628.576" y="1441.296"/>
			<point x="550.968" y="1490.48"/>
			<point x="391.168" y="1490.48" type="curve" smooth="yes"/>
			<point x="231.368" y="1490.48"/>
			<point x="153.76" y="1441.296"/>
			<point x="153.76" y="1337.632" type="curve" smooth="yes"/>
			<point x="153.76" y="1233.32"/>
			<point x="231.368" y="1180.896"/>
		</contour>
		<contour>
			<point x="212.376" y="728.44" type="curve"/>
			<point x="212.376" y="42.896" type="line" smooth="yes"/>
			<point x="212.376" y="-82.896"/>
			<point x="204.672" y="-102.08"/>
			<point x="-24.144" y="-319.216" type="curve"/>
			<point x="76.944" y="-465" type="line"/>
			<point x="535.208" y="-232.608"/>
			<point x="590.52" y="-154.112"/>
			<point x="590.52" y="83.952" type="curve" smooth="yes"/>
			<point x="590.52" y="744.832" type="line"/>
			<point x="612.296" y="1063.44" type="line"/>
			<point x="499.864" y="1063.44" type="line"/>
			<point x="48.872" y="946.24" type="line"/>
			<point x="48.872" y="857.376" type="line"/>
			<point x="109.872" y="808.217431872"/>
			<point x="190.376" y="746.1693196527"/>
		</contour>
	</outline>
	<anchor name="top" x="401.48" y="1471.04"/>
	<anchor name="bottom" x="367.96" y="-457.96"/>
</glyph>
<glyph name="k" format="2">
	<unicode hex="006B"/>
	<advance width="1508.44"/>
	<outline>
		<contour>
			<point x="808.176" y="520.88" type="line"/>
			<point x="1262.24" y="902.184" type="line"/>
			<point x="1421.384" y="934.296" type="line"/>
			<point x="1421.384" y="1036.96" type="line"/>
			<point x="844.456" y="1036.96" type="line"/>
			<point x="844.456" y="934.296" type="line"/>
			<point x="1000.584" y="902.424" type="line"/>
			<point x="745.656" y="670.792" type="line"/>
			<point x="435.952" y="670.792" type="line"/>
			<point x="435.952" y="468.712" type="line"/>
			<point x="734.448" y="468.712" type="line"/>
			<point x="988.448" y="111.152" type="line"/>
			<point x="988.8" y="99.888" type="line"/>
			<point x="988.8" y="0" type="line"/>
			<point x="1498.992" y="0" type="line"/>
			<point x="1498.992" y="99.888" type="line"/>
			<point x="1385.672" y="153.016" type="line"/>
			<point x="958.184" y="743.848" type="line"/>
		</contour>
		<contour>
			<point x="575.8" y="146.368" type="line"/>
			<point x="575.8" y="1223.568" type="line"/>
			<point x="599.688" y="1490.48" type="line"/>
			<point x="505.848" y="1490.48" type="line"/>
			<point x="1.688" y="1402.336" type="line"/>
			<point x="1.688" y="1288.992" type="line"/>
			<point x="79.688" y="1244.2819457519"/>
			<point x="171.656" y="1194.143351416"/>
			<point x="197.656" y="1179.24" type="curve"/>
			<point x="197.656" y="146.368" type="line"/>
			<point x="59.816" y="110.904" type="line"/>
			<point x="59.816" y="0" type="line"/>
			<point x="710.472" y="0" type="line"/>
			<point x="710.472" y="110.904" type="line"/>
		</contour>
	</outline>
	<anchor name="bottom" x="817.144" y="0"/>
	<anchor name="UCtop" x="758.904" y="1464"/>
</glyph>
<glyph name="l" format="2">
	<unicode hex="006C"/>
	<advance width="773.456"/>
	<outline>
		<contour>
			<point x="576.856" y="146.368" type="line"/>
			<point x="576.856" y="1223.568" type="line"/>
			<point x="600.744" y="1490.48" type="line"/>
			<point x="506.904" y="1490.48" type="line"/>
			<point x="2.744" y="1402.336" type="line"/>
			<point x="2.744" y="1288.992" type="line"/>
			<point x="80.744" y="1244.2819457519"/>
			<point x="172.712" y="1194.143351416"/>
			<point x="198.712" y="1179.24" type="curve"/>
			<point x="198.712" y="146.368" type="line"/>
			<point x="60.872" y="110.904" type="line"/>
			<point x="60.872" y="0" type="line"/>
			<point x="711.528" y="0" type="line"/>
			<point x="711.528" y="110.904" type="line"/>
		</contour>
	</outline>
	<anchor name="UCtop" x="372.56" y="1464"/>
	<anchor name="right" x="576.856" y="1464"/>
	<anchor name="bottom" x="387.784" y="0"/>
	<anchor name="mid" x="860.408" y="512"/>
</glyph>
<glyph name="n" format="2">
	<unicode hex="006E"/>
	<advance width="1522.064"/>
	<outline>
		<contour>
			<point x="609.336" y="826.112" type="line"/>
			<point x="509.272" y="1065.2" type="line"/>
			<point x="436.28" y="1065.2" type="line"/>
			<point x="67.688" y="939.2" type="line"/>
			<point x="67.688" y="857.376" type="line"/>
			<point x="158.688" y="780.5016393772"/>
			<point x="209.192" y="739.9850102605"/>
			<point x="231.192" y="721.4" type="curve"/>
			<point x="231.192" y="146.368" type="line"/>
			<point x="93.352" y="110.904" type="line"/>
			<point x="93.352" y="0" type="line"/>
			<point x="699.944" y="0" type="line"/>
			<point x="699.944" y="110.904" type="line"/>
			<point x="609.336" y="137.296" type="line"/>
		</contour>
		<contour>
			<point x="863.472" y="110.904" type="line"/>
			<point x="863.472" y="0" type="line"/>
			<point x="1471.712" y="0" type="line"/>
			<point x="1471.712" y="110.904" type="line"/>
			<point x="1332.872" y="146.368" type="line"/>
			<point x="1332.872" y="744.216" type="line" smooth="yes"/>
			<point x="1332.872" y="949.2"/>
			<point x="1221.8" y="1063.44"/>
			<point x="985.672" y="1063.44" type="curve" smooth="yes"/>
			<point x="873.928" y="1063.44"/>
			<point x="850.352" y="1054.328"/>
			<point x="560.176" y="828.04" type="curve"/>
			<point x="578.768" y="743.68" type="line"/>
			<point x="649.456" y="761.664"/>
			<point x="727.296" y="772.592"/>
			<point x="792.84" y="772.592" type="curve" smooth="yes"/>
			<point x="914.648" y="772.592"/>
			<point x="954.728" y="730.2"/>
			<point x="954.728" y="639.448" type="curve" smooth="yes"/>
			<point x="954.728" y="137.296" type="line"/>
		</contour>
	</outline>
	<anchor name="top" x="785.856" y="1036.96"/>
	<anchor name="bottom" x="766.912" y="0"/>
</glyph>
<glyph name="o" format="2">
	<unicode hex="006F"/>
	<advance width="1336.336"/>
	<outline>
		<contour>
			<point x="660.88" y="201.28" type="curve" smooth="yes"/>
			<point x="515.808" y="201.28"/>
			<point x="456.688" y="299.4"/>
			<point x="456.688" y="538.592" type="curve" smooth="yes"/>
			<point x="456.688" y="752.192"/>
			<point x="523.44" y="835.68"/>
			<point x="675.456" y="835.68" type="curve" smooth="yes"/>
			<point x="820.528" y="835.68"/>
			<point x="879.648" y="737.56"/>
			<point x="879.648" y="498.368" type="curve" smooth="yes"/>
			<point x="879.648" y="284.768"/>
			<point x="812.896" y="201.28"/>
		</contour>
		<contour>
			<point x="651.864" y="-26.48" type="curve" smooth="yes"/>
			<point x="1029.928" y="-26.48"/>
			<point x="1251.184" y="178.28"/>
			<point x="1251.184" y="523.016" type="curve" smooth="yes"/>
			<point x="1251.184" y="861.568"/>
			<point x="1042.872" y="1063.44"/>
			<point x="684.472" y="1063.44" type="curve" smooth="yes"/>
			<point x="306.408" y="1063.44"/>
			<point x="85.152" y="858.68"/>
			<point x="85.152" y="513.944" type="curve" smooth="yes"/>
			<point x="85.152" y="175.392"/>
			<point x="293.464" y="-26.48"/>
		</contour>
	</outline>
	<anchor name="top" x="668.344" y="1036.96"/>
	<anchor name="bottom" x="668.344" y="0"/>
	<anchor name="horn" x="888.784" y="1036.96"/>
	<anchor name="right" x="878.784" y="0"/>
</glyph>
<glyph name="p" format="2">
	<unicode hex="0070"/>
	<advance width="1457.664"/>
	<outline>
		<contour>
			<point x="994.512" y="518.144" type="curve" smooth="yes"/>
			<point x="994.512" y="287.328"/>
			<point x="912.688" y="197.76"/>
			<point x="777.264" y="197.76" type="curve" smooth="yes"/>
			<point x="656.2" y="197.76"/>
			<point x="588.52" y="252.84"/>
			<point x="588.52" y="420.208" type="curve" smooth="yes"/>
			<point x="588.52" y="867.168" type="line"/>
			<point x="488.456" y="1065.2" type="line"/>
			<point x="415.464" y="1065.2" type="line"/>
			<point x="46.872" y="939.2" type="line"/>
			<point x="46.872" y="857.376" type="line"/>
			<point x="120.872" y="794.8627836694"/>
			<point x="184.376" y="743.3641030351"/>
			<point x="210.376" y="721.4" type="curve"/>
			<point x="210.376" y="-292.152" type="line"/>
			<point x="70.776" y="-327.616" type="line"/>
			<point x="70.776" y="-438.52" type="line"/>
			<point x="747.416" y="-438.52" type="line"/>
			<point x="747.416" y="-327.616" type="line"/>
			<point x="588.168" y="-292.856" type="line"/>
			<point x="588.168" y="278.128" type="line"/>
			<point x="572.464" y="278.128" type="line"/>
			<point x="575.984" y="106.688"/>
			<point x="694.008" y="-26.48"/>
			<point x="896.672" y="-26.48" type="curve" smooth="yes"/>
			<point x="1154.456" y="-26.48"/>
			<point x="1369.568" y="179.504"/>
			<point x="1369.568" y="558.48" type="curve" smooth="yes"/>
			<point x="1369.568" y="870.608"/>
			<point x="1215.12" y="1063.44"/>
			<point x="915.136" y="1063.44" type="curve" smooth="yes"/>
			<point x="832.264" y="1063.44"/>
			<point x="766.512" y="1042.344"/>
			<point x="518.52" y="875.208" type="curve"/>
			<point x="518.52" y="791.24" type="line"/>
			<point x="592.472" y="811.728"/>
			<point x="676.424" y="823.528"/>
			<point x="743.232" y="823.528" type="curve" smooth="yes"/>
			<point x="914.464" y="823.528"/>
			<point x="994.512" y="738.928"/>
		</contour>
	</outline>
	<anchor name="top" x="745.584" y="1036.96"/>
	<anchor name="bottom" x="399.448" y="-438.52"/>
</glyph>
<glyph name="q" format="2">
	<unicode hex="0071"/>
	<advance width="1410.904"/>
	<outline>
		<contour>
			<point x="461.856" y="523.072" type="curve" smooth="yes"/>
			<point x="461.856" y="761.296"/>
			<point x="548.216" y="854.16"/>
			<point x="703.584" y="854.16" type="curve" smooth="yes"/>
			<point x="828.36" y="854.16"/>
			<point x="867.848" y="791.728"/>
			<point x="867.848" y="649.856" type="curve" smooth="yes"/>
			<point x="867.848" y="-292.856" type="line"/>
			<point x="708.6" y="-327.616" type="line"/>
			<point x="708.6" y="-438.52" type="line"/>
			<point x="1385.592" y="-438.52" type="line"/>
			<point x="1385.592" y="-327.616" type="line"/>
			<point x="1245.992" y="-292.152" type="line"/>
			<point x="1245.992" y="814.2" type="line"/>
			<point x="1299.12" y="1032.72" type="line"/>
			<point x="1248.528" y="1069.272" type="line"/>
			<point x="961.808" y="935.064" type="line"/>
			<point x="1073.656" y="924.176" type="line"/>
			<point x="961.088" y="1031.568"/>
			<point x="856.936" y="1063.44"/>
			<point x="700.92" y="1063.44" type="curve" smooth="yes"/>
			<point x="361.904" y="1063.44"/>
			<point x="86.8" y="845.328"/>
			<point x="86.8" y="478.48" type="curve" smooth="yes"/>
			<point x="86.8" y="165.704"/>
			<point x="236.32" y="-26.48"/>
			<point x="534.544" y="-26.48" type="curve" smooth="yes"/>
			<point x="613.896" y="-26.48"/>
			<point x="666.272" y="-9.96"/>
			<point x="944.184" y="193.432" type="curve"/>
			<point x="944.184" y="252.056" type="line"/>
			<point x="862.84" y="225.936"/>
			<point x="779.24" y="213.432"/>
			<point x="713.136" y="213.432" type="curve" smooth="yes"/>
			<point x="538.384" y="213.432"/>
			<point x="461.856" y="297.568"/>
		</contour>
	</outline>
	<anchor name="top" x="724.928" y="1036.96"/>
	<anchor name="bottom" x="1056.92" y="-438.52"/>
</glyph>
<glyph name="r" format="2">
	<unicode hex="0072"/>
	<advance width="1138.624"/>
	<outline>
		<contour>
			<point x="944.28" y="1059.496" type="curve" smooth="yes"/>
			<point x="817.176" y="1059.496"/>
			<point x="751.672" y="1024.144"/>
			<point x="494.864" y="753.456" type="curve"/>
			<point x="527.16" y="695.776" type="line"/>
			<point x="580.032" y="727.536"/>
			<point x="602.24" y="731.944"/>
			<point x="664.848" y="731.944" type="curve" smooth="yes"/>
			<point x="790.784" y="731.944"/>
			<point x="899.744" y="728.424"/>
			<point x="1028.144" y="728.424" type="curve" smooth="yes"/>
			<point x="1057.68" y="728.424"/>
			<point x="1098.64" y="802.64"/>
			<point x="1098.64" y="904.784" type="curve" smooth="yes"/>
			<point x="1098.64" y="998.112"/>
			<point x="1048.752" y="1059.496"/>
		</contour>
		<contour>
			<point x="609.336" y="826.112" type="line"/>
			<point x="509.272" y="1065.2" type="line"/>
			<point x="436.28" y="1065.2" type="line"/>
			<point x="67.688" y="939.2" type="line"/>
			<point x="67.688" y="857.376" type="line"/>
			<point x="141.688" y="794.8627836694"/>
			<point x="205.192" y="743.3641030351"/>
			<point x="231.192" y="721.4" type="curve"/>
			<point x="231.192" y="146.368" type="line"/>
			<point x="93.352" y="110.904" type="line"/>
			<point x="93.352" y="0" type="line"/>
			<point x="763.64" y="0" type="line"/>
			<point x="763.64" y="110.904" type="line"/>
			<point x="609.336" y="149.608" type="line"/>
		</contour>
	</outline>
	<anchor name="top" x="581.552" y="1036.96"/>
	<anchor name="bottom" x="420.264" y="0"/>
</glyph>
<glyph name="s" format="2">
	<unicode hex="0073"/>
	<advance width="1169.256"/>
	<outline>
		<contour>
			<point x="642.968" y="1063.44" type="curve" smooth="yes"/>
			<point x="288.336" y="1063.44"/>
			<point x="102.376" y="947.184"/>
			<point x="102.376" y="721.488" type="curve" smooth="yes"/>
			<point x="102.376" y="552.664"/>
			<point x="181.48" y="466.968"/>
			<point x="402.208" y="427.304" type="curve" smooth="yes"/>
			<point x="622.936" y="387.64"/>
			<point x="728.384" y="383.792"/>
			<point x="728.384" y="271.576" type="curve" smooth="yes"/>
			<point x="728.384" y="189.736"/>
			<point x="665.728" y="149.048"/>
			<point x="485.648" y="149.048" type="curve" smooth="yes"/>
			<point x="403.408" y="149.048"/>
			<point x="295.264" y="157.992"/>
			<point x="234.576" y="173.568" type="curve"/>
			<point x="392.568" y="50.424" type="line"/>
			<point x="231.392" y="324.352" type="line"/>
			<point x="91.984" y="324.352" type="line"/>
			<point x="139.52" y="12.672" type="line"/>
			<point x="229.648" y="-9.664"/>
			<point x="386.256" y="-25.072"/>
			<point x="531.488" y="-25.072" type="curve" smooth="yes"/>
			<point x="920.696" y="-25.072"/>
			<point x="1086.64" y="109.664"/>
			<point x="1086.64" y="332.792" type="curve" smooth="yes"/>
			<point x="1086.64" y="550.28"/>
			<point x="954.312" y="620.808"/>
			<point x="730.344" y="653.472" type="curve" smooth="yes"/>
			<point x="506.376" y="686.136"/>
			<point x="442.192" y="707.208"/>
			<point x="442.192" y="795.312" type="curve" smooth="yes"/>
			<point x="442.192" y="863.872"/>
			<point x="500.568" y="897.912"/>
			<point x="640.704" y="897.912" type="curve" smooth="yes"/>
			<point x="697.208" y="897.912"/>
			<point x="791.024" y="884.8"/>
			<point x="877.008" y="859.872" type="curve"/>
			<point x="725.136" y="989.96" type="line"/>
			<point x="868.296" y="748.44" type="line"/>
			<point x="1015.664" y="748.44" type="line"/>
			<point x="986.96" y="1026.752" type="line"/>
			<point x="877.976" y="1052.976"/>
			<point x="775.368" y="1063.44"/>
		</contour>
	</outline>
	<anchor name="top" x="575.472" y="1036.96"/>
	<anchor name="bottom" x="593.008" y="0"/>
</glyph>
<glyph name="t" format="2">
	<unicode hex="0074"/>
	<advance width="1049.536"/>
	<outline>
		<contour>
			<point x="594.536" y="367.08" type="curve" smooth="yes"/>
			<point x="594.536" y="1011.032" type="line"/>
			<point x="594.536" y="1300.464" type="line"/>
			<point x="488.616" y="1300.464" type="line"/>
			<point x="346.8046822742" y="1188.384"/>
			<point x="118.1258060201" y="1060.072"/>
			<point x="19.856" y="1023.64" type="curve"/>
			<point x="19.856" y="933.96" type="line"/>
			<point x="217.688" y="801.256" type="line"/>
			<point x="217.688" y="274.152" type="line" smooth="yes"/>
			<point x="217.688" y="74.44"/>
			<point x="344.872" y="-26.48"/>
			<point x="563.208" y="-26.48" type="curve" smooth="yes"/>
			<point x="674.664" y="-26.48"/>
			<point x="767.96" y="1.872"/>
			<point x="1011.848" y="109.72" type="curve"/>
			<point x="1011.848" y="247.208" type="line"/>
			<point x="923.48" y="228.448"/>
			<point x="850.888" y="220.336"/>
			<point x="788.352" y="220.336" type="curve" smooth="yes"/>
			<point x="642.28" y="220.336"/>
			<point x="594.536" y="256.8"/>
		</contour>
		<contour>
			<point x="440.776" y="817.808" type="line"/>
			<point x="983.776" y="817.808" type="line"/>
			<point x="983.776" y="1036.96" type="line"/>
			<point x="446.776" y="1036.96" type="line"/>
		</contour>
	</outline>
	<anchor name="bottom" x="629.872" y="0"/>
	<anchor name="right" x="580.648" y="1535"/>
</glyph>
<glyph name="u" format="2">
  <advance width="1473"/>
  <unicode hex="0075"/>
  <anchor x="711.496" y="1036.96" name="top"/>
  <anchor x="1197.56" y="0.0" name="right"/>
  <anchor x="733.1120000000001" y="0.0" name="bottom"/>
  <anchor x="1171.8" y="1036.96" name="horn"/>
  <outline>
    <contour>
      <point x="574.168" y="385.752" type="curve" smooth="yes"/>
      <point x="574.168" y="883.184" type="line"/>
      <point x="595.52" y="1046.96" type="line"/>
      <point x="32.112" y="1024.0" type="line"/>
      <point x="32.112" y="923.76" type="line"/>
      <point x="196.024" y="828.544" type="line"/>
      <point x="196.024" y="277.984" type="line" smooth="yes"/>
      <point x="196.024" y="82.408"/>
      <point x="302.392" y="-26.48"/>
      <point x="527.4639999999999" y="-26.48" type="curve" smooth="yes"/>
      <point x="633.504" y="-26.48"/>
      <point x="658.024" y="-18.368000000000002"/>
      <point x="934.1999999999999" y="198.568" type="curve"/>
      <point x="916.6080000000001" y="291.22400000000005" type="line"/>
      <point x="847.3839999999999" y="274.296"/>
      <point x="776.248" y="264.368"/>
      <point x="721.9440000000001" y="264.368" type="curve" smooth="yes"/>
      <point x="613.432" y="264.368"/>
      <point x="574.168" y="298.87199999999996"/>
    </contour>
    <contour>
      <point x="977.4240000000001" y="-26.479999999999997" type="line"/>
      <point x="1031.624" y="-26.479999999999997" type="line"/>
      <point x="1434.76" y="101.464" type="line"/>
      <point x="1434.76" y="174.56799999999998" type="line"/>
      <point x="1392.76" y="202.61565217391305"/>
      <point x="1285.128" y="273.5167701863354"/>
      <point x="1261.1280000000002" y="289.544" type="curve"/>
      <point x="1261.1280000000002" y="874.1120000000001" type="line"/>
      <point x="1268.168" y="1040.48" type="line"/>
      <point x="821.032" y="1036.96" type="line"/>
      <point x="821.032" y="936.72" type="line"/>
      <point x="882.984" y="861.592" type="line"/>
      <point x="882.984" y="183.62400000000002" type="line"/>
    </contour>
  </outline>
</glyph>
<glyph name="v" format="2">
	<unicode hex="0076"/>
	<advance width="1422.872"/>
	<outline>
		<contour>
			<point x="1280.456" y="894.408" type="line"/>
			<point x="1381.48" y="925.224" type="line"/>
			<point x="1381.48" y="1036.96" type="line"/>
			<point x="920.32" y="1036.96" type="line"/>
			<point x="920.32" y="925.224" type="line"/>
			<point x="1031.848" y="891.352" type="line"/>
			<point x="761.952" y="129.592" type="line"/>
			<point x="844.848" y="129.592" type="line"/>
			<point x="542.968" y="895.128" type="line"/>
			<point x="664.088" y="925.224" type="line"/>
			<point x="664.088" y="1036.96" type="line"/>
			<point x="13.52" y="1036.96" type="line"/>
			<point x="13.52" y="927.168" type="line"/>
			<point x="141.304" y="880" type="line"/>
			<point x="516.184" y="-7.04" type="line"/>
			<point x="922.616" y="-7.04" type="line"/>
		</contour>
	</outline>
	<anchor name="top" x="757.264" y="1036.96"/>
	<anchor name="bottom" x="720.64" y="0"/>
</glyph>
<glyph name="w" format="2">
	<unicode hex="0077"/>
	<advance width="1948.312"/>
	<outline>
		<contour>
			<point x="1570.104" y="891.352" type="line"/>
			<point x="1428.76" y="151.736" type="line"/>
			<point x="1523.288" y="148.496" type="line"/>
			<point x="1230.584" y="1044" type="line"/>
			<point x="882.88" y="1044" type="line"/>
			<point x="599.816" y="173.168" type="line"/>
			<point x="687.312" y="160.856" type="line"/>
			<point x="522.544" y="895.128" type="line"/>
			<point x="629.296" y="925.224" type="line"/>
			<point x="629.296" y="1036.96" type="line"/>
			<point x="18.984" y="1036.96" type="line"/>
			<point x="18.984" y="927.168" type="line"/>
			<point x="146.768" y="880" type="line"/>
			<point x="365.864" y="-7.04" type="line"/>
			<point x="760.336" y="-7.04" type="line"/>
			<point x="1032.072" y="801.824" type="line"/>
			<point x="945.352" y="795.768" type="line"/>
			<point x="1206.584" y="-7.04" type="line"/>
			<point x="1599.76" y="-7.04" type="line"/>
			<point x="1814.136" y="894.408" type="line"/>
			<point x="1907.272" y="925.224" type="line"/>
			<point x="1907.272" y="1036.96" type="line"/>
			<point x="1470.48" y="1036.96" type="line"/>
			<point x="1470.48" y="925.224" type="line"/>
		</contour>
	</outline>
	<anchor name="top" x="1012.424" y="1036.96"/>
	<anchor name="bottom" x="977.208" y="0"/>
</glyph>
<glyph name="x" format="2">
	<unicode hex="0078"/>
	<advance width="1405.744"/>
	<outline>
		<contour>
			<point x="1275.328" y="142.296" type="line"/>
			<point x="885.44" y="603.328" type="line"/>
			<point x="856.312" y="638.048" type="line"/>
			<point x="628.568" y="911.792" type="line"/>
			<point x="673.976" y="932.352" type="line"/>
			<point x="673.976" y="1036.96" type="line"/>
			<point x="58.056" y="1036.96" type="line"/>
			<point x="58.056" y="932.352" type="line"/>
			<point x="172.208" y="894.664" type="line"/>
			<point x="522.024" y="481.296" type="line"/>
			<point x="549.432" y="448.888" type="line"/>
			<point x="818.968" y="125.168" type="line"/>
			<point x="773.208" y="103.96" type="line"/>
			<point x="773.208" y="0" type="line"/>
			<point x="1389.48" y="0" type="line"/>
			<point x="1389.48" y="103.96" type="line"/>
		</contour>
		<contour>
			<point x="671.728" y="462.736" type="line"/>
			<point x="912.784" y="490.744" type="line"/>
			<point x="1233.48" y="899.296" type="line"/>
			<point x="1342.536" y="932.352" type="line"/>
			<point x="1342.536" y="1036.96" type="line"/>
			<point x="870.088" y="1036.96" type="line"/>
			<point x="870.088" y="932.352" type="line"/>
			<point x="986.184" y="904.888" type="line"/>
			<point x="741.952" y="581.408" type="line"/>
			<point x="489.88" y="553.4" type="line"/>
			<point x="147.152" y="138.368" type="line"/>
			<point x="37.744" y="104.608" type="line"/>
			<point x="37.744" y="0" type="line"/>
			<point x="521.208" y="0" type="line"/>
			<point x="521.208" y="104.608" type="line"/>
			<point x="405.816" y="132.776" type="line"/>
		</contour>
	</outline>
	<anchor name="top" x="729.96" y="1036.96"/>
	<anchor name="bottom" x="710.52" y="0"/>
</glyph>
<glyph name="y" format="2">
  <advance width="1401.5680000000002"/>
  <unicode hex="0079"/>
  <anchor x="747.464" y="1036.96" name="top"/>
  <anchor x="1061.056" y="-97.544" name="bottom"/>
  <outline>
    <contour>
      <point x="908.896" y="173.288" type="line"/>
      <point x="545.8399999999999" y="895.1279999999999" type="line"/>
      <point x="666.9599999999999" y="925.224" type="line"/>
      <point x="666.9599999999999" y="1036.96" type="line"/>
      <point x="10.264" y="1036.96" type="line"/>
      <point x="10.264" y="927.168" type="line"/>
      <point x="144.52800000000002" y="880.0" type="line"/>
      <point x="664.048" y="-73.78399999999999" type="line"/>
    </contour>
    <contour>
      <point x="359.784" y="-465.0" type="curve" smooth="yes"/>
      <point x="576.256" y="-465.0"/>
      <point x="721.392" y="-360.264"/>
      <point x="824.8879999999999" y="-121.44000000000001" type="curve" smooth="yes"/>
      <point x="1264.6719999999998" y="894.408" type="line"/>
      <point x="1372.1760000000002" y="925.224" type="line"/>
      <point x="1372.1760000000002" y="1036.96" type="line"/>
      <point x="906.72" y="1036.96" type="line"/>
      <point x="906.72" y="925.224" type="line"/>
      <point x="1018.248" y="891.3520000000001" type="line"/>
      <point x="718.84" y="127.128" type="line"/>
      <point x="662.312" y="46.176" type="line"/>
      <point x="626.8480000000001" y="-19.384" type="line" smooth="yes"/>
      <point x="581.488" y="-108.14399999999999"/>
      <point x="534.744" y="-158.648"/>
      <point x="418.656" y="-158.648" type="curve" smooth="yes"/>
      <point x="325.128" y="-158.648"/>
      <point x="226.79199999999997" y="-136.888"/>
      <point x="187.832" y="-136.888" type="curve" smooth="yes"/>
      <point x="163.536" y="-136.888"/>
      <point x="114.57600000000001" y="-207.4"/>
      <point x="114.57600000000001" y="-284.544" type="curve" smooth="yes"/>
      <point x="114.57600000000001" y="-401.28"/>
      <point x="192.48000000000002" y="-465.0"/>
    </contour>
  </outline>
</glyph>
<glyph name="braceleft" format="2">
	<unicode hex="007B"/>
	<advance width="838.504"/>
	<outline>
		<contour>
			<point x="63.688" y="539.024" type="line"/>
			<point x="138.336" y="536.728" type="line" smooth="yes"/>
			<point x="238.448" y="533.432"/>
			<point x="276.32" y="498.152"/>
			<point x="276.32" y="415.04" type="curve" smooth="yes"/>
			<point x="276.32" y="300.96"/>
			<point x="220.024" y="186.184"/>
			<point x="220.024" y="48.056" type="curve" smooth="yes"/>
			<point x="220.024" y="-88.48"/>
			<point x="326.112" y="-216.296"/>
			<point x="560.072" y="-232.648" type="curve" smooth="yes"/>
			<point x="750.744" y="-245.888" type="line"/>
			<point x="767.928" y="-71.384" type="line"/>
			<point x="677.856" y="-59.44" type="line" smooth="yes"/>
			<point x="582.128" y="-47.032"/>
			<point x="555.256" y="2.288"/>
			<point x="555.256" y="90.624" type="curve" smooth="yes"/>
			<point x="555.256" y="188.736"/>
			<point x="569.296" y="288.128"/>
			<point x="569.296" y="372.264" type="curve" smooth="yes"/>
			<point x="569.296" y="521.984"/>
			<point x="483.928" y="611.112"/>
			<point x="265.288" y="655.96" type="curve"/>
			<point x="265.288" y="588.28" type="line"/>
			<point x="483.928" y="632.776"/>
			<point x="569.296" y="721.904"/>
			<point x="569.296" y="872.328" type="curve" smooth="yes"/>
			<point x="569.296" y="956.112"/>
			<point x="555.256" y="1055.856"/>
			<point x="555.256" y="1153.616" type="curve" smooth="yes"/>
			<point x="555.256" y="1242.304"/>
			<point x="582.128" y="1291.272"/>
			<point x="677.856" y="1303.68" type="curve" smooth="yes"/>
			<point x="767.928" y="1315.624" type="line"/>
			<point x="750.744" y="1490.48" type="line"/>
			<point x="560.072" y="1477.24" type="line" smooth="yes"/>
			<point x="326.112" y="1460.888"/>
			<point x="220.024" y="1332.368"/>
			<point x="220.024" y="1195.832" type="curve" smooth="yes"/>
			<point x="220.024" y="1058.408"/>
			<point x="276.32" y="943.632"/>
			<point x="276.32" y="829.552" type="curve" smooth="yes"/>
			<point x="276.32" y="746.088"/>
			<point x="238.448" y="710.808"/>
			<point x="138.336" y="707.512" type="curve" smooth="yes"/>
			<point x="63.688" y="704.864" type="line"/>
		</contour>
	</outline>
</glyph>
<glyph name="bar" format="2">
	<unicode hex="007C"/>
	<advance width="646.768"/>
	<outline>
		<contour>
			<point x="198.024" y="-465" type="line"/>
			<point x="448.744" y="-465" type="line"/>
			<point x="448.744" y="1535" type="line"/>
			<point x="198.024" y="1535" type="line"/>
		</contour>
	</outline>
</glyph>
<glyph name="braceright" format="2">
	<unicode hex="007D"/>
	<advance width="838.504"/>
	<outline>
		<contour>
			<point x="774.816" y="705.568" type="line"/>
			<point x="700.168" y="707.864" type="line" smooth="yes"/>
			<point x="600.056" y="711.16"/>
			<point x="562.184" y="746.44"/>
			<point x="562.184" y="829.552" type="curve" smooth="yes"/>
			<point x="562.184" y="943.632"/>
			<point x="618.48" y="1058.408"/>
			<point x="618.48" y="1196.536" type="curve" smooth="yes"/>
			<point x="618.48" y="1333.072"/>
			<point x="512.392" y="1460.888"/>
			<point x="278.432" y="1477.24" type="curve" smooth="yes"/>
			<point x="87.76" y="1490.48" type="line"/>
			<point x="70.576" y="1315.976" type="line"/>
			<point x="160.648" y="1304.032" type="line" smooth="yes"/>
			<point x="256.376" y="1291.624"/>
			<point x="283.248" y="1242.304"/>
			<point x="283.248" y="1153.968" type="curve" smooth="yes"/>
			<point x="283.248" y="1055.856"/>
			<point x="269.208" y="956.464"/>
			<point x="269.208" y="872.328" type="curve" smooth="yes"/>
			<point x="269.208" y="722.608"/>
			<point x="354.576" y="633.48"/>
			<point x="573.216" y="588.632" type="curve"/>
			<point x="573.216" y="656.312" type="line"/>
			<point x="354.576" y="611.816"/>
			<point x="269.208" y="522.688"/>
			<point x="269.208" y="372.264" type="curve" smooth="yes"/>
			<point x="269.208" y="288.48"/>
			<point x="283.248" y="188.736"/>
			<point x="283.248" y="90.976" type="curve" smooth="yes"/>
			<point x="283.248" y="2.288"/>
			<point x="256.376" y="-46.68"/>
			<point x="160.648" y="-59.088" type="curve" smooth="yes"/>
			<point x="70.576" y="-71.032" type="line"/>
			<point x="87.76" y="-245.888" type="line"/>
			<point x="278.432" y="-232.648" type="line" smooth="yes"/>
			<point x="512.392" y="-216.296"/>
			<point x="618.48" y="-87.776"/>
			<point x="618.48" y="48.76" type="curve" smooth="yes"/>
			<point x="618.48" y="186.184"/>
			<point x="562.184" y="300.96"/>
			<point x="562.184" y="415.04" type="curve" smooth="yes"/>
			<point x="562.184" y="498.504"/>
			<point x="600.056" y="533.784"/>
			<point x="700.168" y="537.08" type="curve" smooth="yes"/>
			<point x="774.816" y="539.728" type="line"/>
		</contour>
	</outline>
</glyph>
<glyph name="asciitilde" format="2">
	<unicode hex="007E"/>
	<advance width="1140"/>
	<outline>
		<contour>
			<point x="119.976" y="342.672" type="curve"/>
			<point x="347.664" y="342.672" type="line"/>
			<point x="351.424" y="436.6"/>
			<point x="376.296" y="476.472"/>
			<point x="438.152" y="476.472" type="curve" smooth="yes"/>
			<point x="524.88" y="476.472"/>
			<point x="583.12" y="330.376"/>
			<point x="769.008" y="330.376" type="curve" smooth="yes"/>
			<point x="935.688" y="330.376"/>
			<point x="1022.912" y="443.296"/>
			<point x="1022.024" y="696.808" type="curve"/>
			<point x="794.336" y="696.808" type="line"/>
			<point x="790.576" y="601.88"/>
			<point x="765.704" y="563.008"/>
			<point x="703.848" y="563.008" type="curve" smooth="yes"/>
			<point x="617.12" y="563.008"/>
			<point x="558.88" y="708.752"/>
			<point x="372.992" y="708.752" type="curve" smooth="yes"/>
			<point x="206.312" y="708.752"/>
			<point x="119.088" y="596.184"/>
		</contour>
	</outline>
</glyph>
<glyph name="exclamdown" format="2">
  <advance width="703"/>
  <unicode hex="00A1"/>
  <outline>
    <contour>
      <point x="122.25600000000001" y="-308.808" type="line" smooth="yes"/>
      <point x="119.66399999999999" y="-368.67199999999997"/>
      <point x="147.904" y="-401.872"/>
      <point x="351.47200000000004" y="-401.872" type="curve" smooth="yes"/>
      <point x="553.744" y="-401.872"/>
      <point x="583.28" y="-368.67199999999997"/>
      <point x="580.688" y="-308.808" type="curve" smooth="yes"/>
      <point x="577.448" y="-227.38400000000001" type="line" smooth="yes"/>
      <point x="572.912" y="-130.71199999999996"/>
      <point x="491.86400000000003" y="266.67999999999995"/>
      <point x="466.608" y="517.72" type="curve"/>
      <point x="236.33599999999998" y="517.72" type="line"/>
      <point x="211.432" y="266.67999999999995"/>
      <point x="130.032" y="-130.71199999999996"/>
      <point x="125.496" y="-227.38400000000001" type="curve" smooth="yes"/>
    </contour>
    <contour>
      <point x="351.472" y="662.608" type="curve" smooth="yes"/>
      <point x="491.832" y="662.608"/>
      <point x="573.272" y="731.512"/>
      <point x="573.272" y="856.1360000000001" type="curve" smooth="yes"/>
      <point x="573.272" y="984.0"/>
      <point x="491.832" y="1054.848"/>
      <point x="351.472" y="1054.848" type="curve" smooth="yes"/>
      <point x="211.112" y="1054.848"/>
      <point x="129.672" y="984.0"/>
      <point x="129.672" y="856.1360000000001" type="curve" smooth="yes"/>
      <point x="129.672" y="731.512"/>
      <point x="211.112" y="662.608"/>
    </contour>
  </outline>
</glyph>
<glyph name="currency" format="2">
  <advance width="1182"/>
  <unicode hex="00A4"/>
  <outline>
    <contour>
      <point x="284.208" y="977.544" type="line"/>
      <point x="132.49599999999998" y="826.184" type="line"/>
      <point x="306.88" y="651.8" type="line"/>
      <point x="458.592" y="803.16" type="line"/>
    </contour>
    <contour>
      <point x="132.49599999999998" y="212.296" type="line"/>
      <point x="284.208" y="60.93599999999999" type="line"/>
      <point x="471.42400000000004" y="248.152" type="line"/>
      <point x="320.064" y="399.86400000000003" type="line"/>
    </contour>
    <contour>
      <point x="591.1519999999999" y="900.176" type="curve" smooth="yes"/>
      <point x="357.232" y="900.176"/>
      <point x="203.92000000000002" y="750.512"/>
      <point x="203.92000000000002" y="520.24" type="curve" smooth="yes"/>
      <point x="203.92000000000002" y="289.616"/>
      <point x="357.232" y="139.952"/>
      <point x="591.1519999999999" y="139.952" type="curve" smooth="yes"/>
      <point x="824.72" y="139.952"/>
      <point x="978.032" y="289.616"/>
      <point x="978.032" y="520.24" type="curve" smooth="yes"/>
      <point x="978.032" y="750.512"/>
      <point x="824.72" y="900.176"/>
    </contour>
    <contour>
      <point x="591.1519999999999" y="322.792" type="curve" smooth="yes"/>
      <point x="472.632" y="322.792"/>
      <point x="394.408" y="401.31199999999995"/>
      <point x="394.408" y="520.24" type="curve" smooth="yes"/>
      <point x="394.408" y="638.816"/>
      <point x="472.632" y="717.336"/>
      <point x="591.1519999999999" y="717.336" type="curve" smooth="yes"/>
      <point x="709.3199999999999" y="717.336"/>
      <point x="787.544" y="638.816"/>
      <point x="787.544" y="520.24" type="curve" smooth="yes"/>
      <point x="787.544" y="401.31199999999995"/>
      <point x="709.3199999999999" y="322.792"/>
    </contour>
    <contour>
      <point x="1049.456" y="826.184" type="line"/>
      <point x="897.7439999999999" y="977.544" type="line"/>
      <point x="717.768" y="797.568" type="line"/>
      <point x="869.1279999999999" y="646.208" type="line"/>
    </contour>
    <contour>
      <point x="1049.456" y="212.296" type="line"/>
      <point x="875.0719999999999" y="386.68" type="line"/>
      <point x="723.36" y="235.32" type="line"/>
      <point x="897.7439999999999" y="60.93599999999999" type="line"/>
    </contour>
  </outline>
</glyph>
<glyph name="brokenbar" format="2">
  <advance width="646.768"/>
  <unicode hex="00A6"/>
  <outline>
    <contour>
      <point x="448.744" y="742.6" type="line"/>
      <point x="448.744" y="1535.0" type="line"/>
      <point x="198.02399999999997" y="1535.0" type="line"/>
      <point x="198.02399999999997" y="742.6" type="line"/>
    </contour>
    <contour>
      <point x="198.02399999999997" y="-465.0" type="line"/>
      <point x="448.744" y="-465.0" type="line"/>
      <point x="448.744" y="327.4" type="line"/>
      <point x="198.02399999999997" y="327.4" type="line"/>
    </contour>
  </outline>
</glyph>
<glyph name="section" format="2">
  <advance width="1462.2559999999999"/>
  <unicode hex="00A7"/>
  <outline>
    <contour>
      <point x="657.0" y="-245.59199999999998" type="curve" smooth="yes"/>
      <point x="1120.7359999999999" y="-245.59199999999998"/>
      <point x="1271.288" y="-106.648"/>
      <point x="1271.288" y="104.696" type="curve" smooth="yes"/>
      <point x="1271.288" y="622.96"/>
      <point x="447.096" y="344.28000000000003"/>
      <point x="447.096" y="607.72" type="curve" smooth="yes"/>
      <point x="447.096" y="707.504"/>
      <point x="539.432" y="754.7919999999999"/>
      <point x="722.168" y="761.68" type="curve"/>
      <point x="543.32" y="803.1439999999999" type="line"/>
      <point x="230.968" y="802.144"/>
      <point x="94.928" y="699.3439999999999"/>
      <point x="94.928" y="479.272" type="curve" smooth="yes"/>
      <point x="94.928" y="52.512"/>
      <point x="911.4" y="262.512"/>
      <point x="911.4" y="37.536" type="curve" smooth="yes"/>
      <point x="911.4" y="-25.304000000000002"/>
      <point x="857.32" y="-59.80799999999999"/>
      <point x="696.0" y="-59.80799999999999" type="curve" smooth="yes"/>
      <point x="463.44" y="-59.80799999999999"/>
      <point x="372.21599999999995" y="83.47200000000001"/>
      <point x="344.27200000000005" y="83.47200000000001" type="curve" smooth="yes"/>
      <point x="258.776" y="83.47200000000001"/>
      <point x="193.424" y="25.752000000000002"/>
      <point x="193.424" y="-55.744" type="curve" smooth="yes"/>
      <point x="193.424" y="-174.408"/>
      <point x="281.96" y="-245.59199999999998"/>
    </contour>
    <contour>
      <point x="1014.5120000000001" y="587.168" type="curve" smooth="yes"/>
      <point x="1014.5120000000001" y="487.384"/>
      <point x="922.5279999999999" y="440.096"/>
      <point x="739.7919999999999" y="433.208" type="curve"/>
      <point x="918.288" y="391.744" type="line"/>
      <point x="1230.64" y="392.744"/>
      <point x="1366.68" y="495.544"/>
      <point x="1366.68" y="715.616" type="curve" smooth="yes"/>
      <point x="1366.68" y="1142.376"/>
      <point x="550.5600000000001" y="932.376"/>
      <point x="550.5600000000001" y="1157.3519999999999" type="curve" smooth="yes"/>
      <point x="550.5600000000001" y="1220.192"/>
      <point x="604.288" y="1254.696"/>
      <point x="765.608" y="1254.696" type="curve" smooth="yes"/>
      <point x="998.52" y="1254.696"/>
      <point x="1089.392" y="1111.416"/>
      <point x="1117.336" y="1111.416" type="curve" smooth="yes"/>
      <point x="1203.184" y="1111.416"/>
      <point x="1268.184" y="1169.136"/>
      <point x="1268.184" y="1250.632" type="curve" smooth="yes"/>
      <point x="1268.184" y="1369.296"/>
      <point x="1179.6480000000001" y="1440.48"/>
      <point x="804.608" y="1440.48" type="curve" smooth="yes"/>
      <point x="340.87199999999996" y="1440.48"/>
      <point x="190.32" y="1301.5359999999998"/>
      <point x="190.32" y="1090.192" type="curve" smooth="yes"/>
      <point x="190.32" y="571.928"/>
      <point x="1014.5120000000001" y="850.6080000000001"/>
    </contour>
  </outline>
</glyph>
<glyph name="copyright" format="2">
	<unicode hex="00A9"/>
	<advance width="1724.704"/>
	<outline>
		<contour>
			<point x="862.352" y="1440.48" type="curve" smooth="yes"/>
			<point x="391.096" y="1440.48"/>
			<point x="121.224" y="1176.776"/>
			<point x="121.224" y="707" type="curve" smooth="yes"/>
			<point x="121.224" y="237.224"/>
			<point x="391.096" y="-26.48"/>
			<point x="862.352" y="-26.48" type="curve" smooth="yes"/>
			<point x="1333.608" y="-26.48"/>
			<point x="1603.832" y="237.224"/>
			<point x="1603.832" y="707" type="curve" smooth="yes"/>
			<point x="1603.832" y="1176.776"/>
			<point x="1333.608" y="1440.48"/>
		</contour>
		<contour>
			<point x="862.352" y="1324.184" type="curve" smooth="yes"/>
			<point x="1251.24" y="1324.184"/>
			<point x="1471.704" y="1105.648"/>
			<point x="1471.704" y="707" type="curve" smooth="yes"/>
			<point x="1471.704" y="308.352"/>
			<point x="1251.24" y="89.816"/>
			<point x="862.352" y="89.816" type="curve" smooth="yes"/>
			<point x="473.816" y="89.816"/>
			<point x="253.352" y="308.352"/>
			<point x="253.352" y="707" type="curve" smooth="yes"/>
			<point x="253.352" y="1105.648"/>
			<point x="473.816" y="1324.184"/>
		</contour>
		<contour>
			<point x="969.808" y="444.528" type="curve"/>
			<point x="792.544" y="444.528"/>
			<point x="704.112" y="519.272"/>
			<point x="704.112" y="709.832" type="curve" smooth="yes"/>
			<point x="704.112" y="903.32"/>
			<point x="779.36" y="970.584"/>
			<point x="932.496" y="970.584" type="curve" smooth="yes"/>
			<point x="1016.424" y="970.584"/>
			<point x="1077.128" y="955.232"/>
			<point x="1143.24" y="916.528" type="curve"/>
			<point x="1052.784" y="1027.376" type="line"/>
			<point x="1122.76" y="813.544" type="line"/>
			<point x="1223.976" y="813.544" type="line"/>
			<point x="1223.976" y="1140" type="line"/>
			<point x="1144.536" y="1140" type="line"/>
			<point x="1080.152" y="1063.408" type="line"/>
			<point x="1148.52" y="1086.832" type="line"/>
			<point x="1072.336" y="1110.592"/>
			<point x="993.224" y="1123"/>
			<point x="911.24" y="1123" type="curve" smooth="yes"/>
			<point x="588.896" y="1123"/>
			<point x="433.968" y="948.744"/>
			<point x="433.968" y="693.632" type="curve" smooth="yes"/>
			<point x="433.968" y="426.352"/>
			<point x="587.728" y="301"/>
			<point x="913.296" y="301" type="curve" smooth="yes"/>
			<point x="1019.016" y="301"/>
			<point x="1108.312" y="315.056"/>
			<point x="1196.976" y="344.648" type="curve"/>
			<point x="1228.68" y="592.16" type="line"/>
			<point x="1135.056" y="592.16" type="line"/>
			<point x="1040.152" y="376.032" type="line"/>
			<point x="1141.608" y="478.288" type="line"/>
			<point x="1086.904" y="455.528"/>
			<point x="1021.568" y="444.528"/>
		</contour>
	</outline>
</glyph>
<glyph name="ordfeminine" format="2">
	<unicode hex="00AA"/>
	<advance width="1078.112"/>
	<outline>
		<contour>
			<point x="143.744" y="446.496" type="line"/>
			<point x="953.976" y="446.496" type="line"/>
			<point x="953.976" y="624.32" type="line"/>
			<point x="143.744" y="624.32" type="line"/>
		</contour>
		<contour>
			<point x="605.448" y="1073.56" type="curve"/>
			<point x="605.448" y="1177.56" type="line"/>
			<point x="227.464" y="1126.112"/>
			<point x="138.32" y="1069.408"/>
			<point x="138.32" y="929.392" type="curve" smooth="yes"/>
			<point x="138.32" y="805.264"/>
			<point x="215.208" y="742.728"/>
			<point x="369.392" y="742.728" type="curve" smooth="yes"/>
			<point x="505.872" y="742.728"/>
			<point x="566.672" y="797.024"/>
			<point x="604.448" y="951.984" type="curve"/>
			<point x="592.688" y="945.504" type="line"/>
			<point x="598.816" y="801.856"/>
			<point x="654.144" y="744.488"/>
			<point x="768.12" y="744.488" type="curve" smooth="yes"/>
			<point x="830.136" y="744.488"/>
			<point x="891.688" y="760.024"/>
			<point x="956.944" y="791.096" type="curve"/>
			<point x="956.944" y="879.632" type="line"/>
			<point x="929.944" y="873.872"/>
			<point x="918.536" y="872.52"/>
			<point x="906.72" y="872.52" type="curve" smooth="yes"/>
			<point x="867.608" y="872.52"/>
			<point x="853.96" y="885.872"/>
			<point x="853.96" y="931.136" type="curve" smooth="yes"/>
			<point x="853.96" y="1200.576" type="line" smooth="yes"/>
			<point x="853.96" y="1367"/>
			<point x="769.744" y="1440.832"/>
			<point x="562.656" y="1440.832" type="curve" smooth="yes"/>
			<point x="352.312" y="1440.832"/>
			<point x="151.208" y="1347.424"/>
			<point x="151.208" y="1258.464" type="curve" smooth="yes"/>
			<point x="151.208" y="1222.688"/>
			<point x="182.336" y="1203.096"/>
			<point x="243.352" y="1203.096" type="curve" smooth="yes"/>
			<point x="315.736" y="1203.096"/>
			<point x="336.68" y="1218.688"/>
			<point x="357.568" y="1250.52" type="curve" smooth="yes"/>
			<point x="375.864" y="1278.464"/>
			<point x="386.216" y="1316.464"/>
			<point x="399.216" y="1381.128" type="curve"/>
			<point x="349.304" y="1302.984" type="line"/>
			<point x="386.864" y="1310.912"/>
			<point x="418.44" y="1314.024"/>
			<point x="461.96" y="1314.024" type="curve" smooth="yes"/>
			<point x="552.28" y="1314.024"/>
			<point x="583.152" y="1276.856"/>
			<point x="583.152" y="1198.464" type="curve" smooth="yes"/>
			<point x="583.152" y="980.448" type="line" smooth="yes"/>
			<point x="583.152" y="933.424"/>
			<point x="555.608" y="902.864"/>
			<point x="488.12" y="902.864" type="curve" smooth="yes"/>
			<point x="421.392" y="902.864"/>
			<point x="399.76" y="921.736"/>
			<point x="399.76" y="973.2" type="curve" smooth="yes"/>
			<point x="399.76" y="1032.48"/>
			<point x="436.392" y="1054.704"/>
		</contour>
	</outline>
</glyph>
<glyph name="guillemotleft" format="2">
	<unicode hex="00AB"/>
	<advance width="1420.328"/>
	<outline>
		<contour>
			<point x="424.64" y="572.496" type="line"/>
			<point x="424.64" y="471.504" type="line"/>
			<point x="710.96" y="903.128" type="line"/>
			<point x="559.344" y="1041.968" type="line"/>
			<point x="87.744" y="635.952" type="line"/>
			<point x="87.744" y="408.048" type="line"/>
			<point x="559.344" y="2.032" type="line"/>
			<point x="710.96" y="140.872" type="line"/>
		</contour>
		<contour>
			<point x="1044.8" y="572.496" type="line"/>
			<point x="1044.8" y="471.504" type="line"/>
			<point x="1331.12" y="903.128" type="line"/>
			<point x="1179.504" y="1041.968" type="line"/>
			<point x="707.904" y="635.952" type="line"/>
			<point x="707.904" y="408.048" type="line"/>
			<point x="1179.504" y="2.032" type="line"/>
			<point x="1331.12" y="140.872" type="line"/>
		</contour>
	</outline>
</glyph>
<glyph name="logicalnot" format="2">
	<unicode hex="00AC"/>
	<advance width="1140"/>
	<outline>
		<contour>
			<point x="97.848" y="826.936" type="line"/>
			<point x="97.848" y="597.304" type="line"/>
			<point x="1023.56" y="597.304" type="line"/>
			<point x="1023.56" y="826.936" type="line"/>
		</contour>
		<contour>
			<point x="1023.56" y="744.496" type="line"/>
			<point x="793.928" y="744.496" type="line"/>
			<point x="793.928" y="210.376" type="line"/>
			<point x="1023.56" y="210.376" type="line"/>
		</contour>
	</outline>
</glyph>
<glyph name="registered" format="2">
	<unicode hex="00AE"/>
	<advance width="1263.44"/>
	<outline>
		<contour>
			<point x="629.544" y="1440.48" type="curve" smooth="yes"/>
			<point x="305.272519084" y="1440.48"/>
			<point x="124.408" y="1272.872"/>
			<point x="124.408" y="972.656" type="curve" smooth="yes"/>
			<point x="124.408" y="672.44"/>
			<point x="305.272519084" y="504.832"/>
			<point x="629.544" y="504.832" type="curve" smooth="yes"/>
			<point x="957.1727272727" y="504.832"/>
			<point x="1139.032" y="672.44"/>
			<point x="1139.032" y="972.656" type="curve" smooth="yes"/>
			<point x="1139.032" y="1272.872"/>
			<point x="957.1727272727" y="1440.48"/>
		</contour>
		<contour>
			<point x="629.544" y="1340.928" type="curve" smooth="yes"/>
			<point x="904.168" y="1340.928"/>
			<point x="1019.76" y="1210.1260689655"/>
			<point x="1019.76" y="972.656" type="curve" smooth="yes"/>
			<point x="1019.76" y="735.1892103746"/>
			<point x="904.168" y="604.736"/>
			<point x="629.544" y="604.736" type="curve" smooth="yes"/>
			<point x="355.624" y="604.736"/>
			<point x="244.032" y="735.1892103746"/>
			<point x="244.032" y="972.656" type="curve" smooth="yes"/>
			<point x="244.032" y="1210.1260689655"/>
			<point x="355.624" y="1340.928"/>
		</contour>
		<contour>
			<point x="512.768" y="1014.136" type="line"/>
			<point x="514.88" y="947.472" type="line"/>
			<point x="628.88" y="947.472" type="line" smooth="yes"/>
			<point x="675.12" y="947.472"/>
			<point x="684.176" y="940.824"/>
			<point x="691.824" y="898.232" type="curve" smooth="yes"/>
			<point x="702.176" y="826.288" type="line" smooth="yes"/>
			<point x="711.176" y="762.752"/>
			<point x="750.952" y="749.4"/>
			<point x="905.464" y="762.992" type="curve"/>
			<point x="905.464" y="820.064" type="line"/>
			<point x="868.76" y="820.064"/>
			<point x="860.76" y="825.064"/>
			<point x="856.76" y="861.656" type="curve" smooth="yes"/>
			<point x="851.704" y="903.176" type="line" smooth="yes"/>
			<point x="845.704" y="955.36"/>
			<point x="819.872" y="976.36"/>
			<point x="748.448" y="980.36" type="curve"/>
			<point x="747.392" y="979.008" type="line"/>
			<point x="834.52" y="984.064"/>
			<point x="875.648" y="1025.304"/>
			<point x="875.648" y="1097.728" type="curve" smooth="yes"/>
			<point x="875.648" y="1177.856"/>
			<point x="826.112" y="1214.152"/>
			<point x="716.76" y="1214.152" type="curve" smooth="yes"/>
			<point x="511.008" y="1214.152" type="line"/>
			<point x="512.768" y="1125.36" type="line"/>
			<point x="671.392" y="1125.36" type="line" smooth="yes"/>
			<point x="712.248" y="1125.36"/>
			<point x="725.656" y="1109.008"/>
			<point x="725.656" y="1069.304" type="curve" smooth="yes"/>
			<point x="725.656" y="1031.192"/>
			<point x="707.544" y="1014.136"/>
			<point x="668.616" y="1014.136" type="curve" smooth="yes"/>
		</contour>
		<contour>
			<point x="440.68" y="1158.376" type="line"/>
			<point x="440.68" y="819.416" type="line"/>
			<point x="384.68" y="804.528" type="line"/>
			<point x="384.68" y="762.992" type="line"/>
			<point x="637.84" y="762.992" type="line"/>
			<point x="637.84" y="804.528" type="line"/>
			<point x="596.264" y="819.416" type="line"/>
			<point x="596.264" y="1214.152" type="line"/>
			<point x="384.68" y="1214.152" type="line"/>
			<point x="384.68" y="1171.616" type="line"/>
		</contour>
	</outline>
</glyph>
<glyph name="degree" format="2">
  <advance width="765"/>
  <unicode hex="00B0"/>
  <outline>
    <contour>
      <point x="381.856" y="1434.0" type="curve" smooth="yes"/>
      <point x="209.856" y="1434.0"/>
      <point x="85.856" y="1313.0"/>
      <point x="85.856" y="1140.0" type="curve" smooth="yes"/>
      <point x="85.856" y="967.0"/>
      <point x="209.856" y="846.0"/>
      <point x="381.856" y="846.0" type="curve" smooth="yes"/>
      <point x="554.856" y="846.0"/>
      <point x="678.856" y="967.0"/>
      <point x="678.856" y="1140.0" type="curve" smooth="yes"/>
      <point x="678.856" y="1313.0"/>
      <point x="554.856" y="1434.0"/>
    </contour>
    <contour>
      <point x="381.856" y="990.328" type="curve" smooth="yes"/>
      <point x="297.464" y="990.328"/>
      <point x="236.832" y="1049.608"/>
      <point x="236.832" y="1140.0" type="curve" smooth="yes"/>
      <point x="236.832" y="1230.392"/>
      <point x="297.464" y="1289.672"/>
      <point x="381.856" y="1289.672" type="curve" smooth="yes"/>
      <point x="467.248" y="1289.672"/>
      <point x="526.88" y="1230.392"/>
      <point x="526.88" y="1140.0" type="curve" smooth="yes"/>
      <point x="526.88" y="1049.608"/>
      <point x="467.248" y="990.328"/>
    </contour>
  </outline>
</glyph>
<glyph name="uni00B2" format="2">
	<unicode hex="00B2"/>
	<advance width="852.64"/>
	<outline>
		<contour>
			<point x="550.704" y="746.384" type="line"/>
			<point x="744.968" y="874.152" type="line"/>
			<point x="268.12" y="874.152" type="line"/>
			<point x="268.64" y="819.984" type="line"/>
			<point x="422.24" y="906.664" type="line" smooth="yes"/>
			<point x="679.672" y="1037.448"/>
			<point x="729.728" y="1101.52"/>
			<point x="729.728" y="1215.76" type="curve" smooth="yes"/>
			<point x="729.728" y="1361.776"/>
			<point x="620.84" y="1434.48"/>
			<point x="426.568" y="1434.48" type="curve" smooth="yes"/>
			<point x="227.016" y="1434.48"/>
			<point x="115.4357303846" y="1355.5984315383"/>
			<point x="52.504" y="1166.296" type="curve"/>
			<point x="163.888" y="1116.56" type="line"/>
			<point x="205.776" y="1202.528"/>
			<point x="247.352" y="1242.808"/>
			<point x="332.8" y="1242.808" type="curve" smooth="yes"/>
			<point x="414.84" y="1242.808"/>
			<point x="455.6" y="1210.416"/>
			<point x="455.6" y="1151.84" type="curve" smooth="yes"/>
			<point x="455.6" y="1084.376"/>
			<point x="420.784" y="1044.152"/>
			<point x="272.824" y="933.872" type="curve" smooth="yes"/>
			<point x="95.672" y="799.104" type="line"/>
			<point x="95.672" y="662" type="line"/>
			<point x="617.216" y="662" type="line"/>
			<point x="660.36" y="627.24" type="line"/>
			<point x="728.416" y="627.24" type="line"/>
			<point x="792.488" y="954.472" type="line"/>
			<point x="699.192" y="954.472" type="line"/>
		</contour>
	</outline>
</glyph>
<glyph name="uni00B3" format="2">
	<unicode hex="00B3"/>
	<advance width="818.064"/>
	<outline>
		<contour>
			<point x="318.368" y="645.52" type="curve" smooth="yes"/>
			<point x="629.616" y="645.52"/>
			<point x="748.56" y="745.52"/>
			<point x="748.56" y="916.24" type="curve" smooth="yes"/>
			<point x="748.56" y="1054.016"/>
			<point x="629.472" y="1116.072"/>
			<point x="446.808" y="1101.48" type="curve"/>
			<point x="463.176" y="1094.48" type="line"/>
			<point x="635.984" y="1115.016"/>
			<point x="700.152" y="1182.368"/>
			<point x="700.152" y="1269.536" type="curve" smooth="yes"/>
			<point x="700.152" y="1376.72"/>
			<point x="616.672" y="1434.48"/>
			<point x="428.752" y="1434.48" type="curve" smooth="yes"/>
			<point x="225.352" y="1434.48"/>
			<point x="129.28" y="1358.648"/>
			<point x="68.856" y="1202.04" type="curve"/>
			<point x="169" y="1150.432" type="line"/>
			<point x="204.704" y="1224.712"/>
			<point x="257" y="1266.712"/>
			<point x="334.632" y="1266.712" type="curve" smooth="yes"/>
			<point x="407.096" y="1266.712"/>
			<point x="439.56" y="1235.84"/>
			<point x="439.56" y="1186.968" type="curve" smooth="yes"/>
			<point x="439.56" y="1122.392"/>
			<point x="407.856" y="1093.816"/>
			<point x="258.04" y="1073.816" type="curve"/>
			<point x="269.336" y="968.264" type="line"/>
			<point x="310.392" y="971.616" type="line" smooth="yes"/>
			<point x="450.024" y="983.024"/>
			<point x="487.968" y="952.744"/>
			<point x="487.968" y="882.576" type="curve" smooth="yes"/>
			<point x="487.968" y="794.592"/>
			<point x="430.04" y="767.96"/>
			<point x="338.368" y="767.96" type="curve" smooth="yes"/>
			<point x="226.832" y="767.96"/>
			<point x="171.872" y="851.256"/>
			<point x="156.28" y="851.256" type="curve" smooth="yes"/>
			<point x="97.968" y="851.256"/>
			<point x="65.616" y="813.776"/>
			<point x="65.616" y="761.296" type="curve" smooth="yes"/>
			<point x="65.616" y="700.888"/>
			<point x="125.448" y="645.52"/>
		</contour>
	</outline>
</glyph>
<glyph name="uni00B9" format="2">
	<unicode hex="00B9"/>
	<advance width="709.2"/>
	<outline>
		<contour>
			<point x="253.288" y="782.368" type="line"/>
			<point x="126.576" y="754.312" type="line"/>
			<point x="126.576" y="662" type="line"/>
			<point x="643.792" y="662" type="line"/>
			<point x="643.792" y="754.312" type="line"/>
			<point x="533.32" y="782.368" type="line"/>
			<point x="533.32" y="1414" type="line"/>
			<point x="328.04" y="1414" type="line"/>
			<point x="36.856" y="1260.704" type="line"/>
			<point x="76.504" y="1156.208" type="line"/>
			<point x="316.784" y="1235.824" type="line"/>
			<point x="253.288" y="1350.592" type="line"/>
		</contour>
	</outline>
</glyph>
<glyph name="ordmasculine" format="2">
  <advance width="1094"/>
  <unicode hex="00BA"/>
  <outline>
    <contour>
      <point x="141.67200000000003" y="446.496" type="line"/>
      <point x="951.904" y="446.496" type="line"/>
      <point x="951.904" y="624.3199999999999" type="line"/>
      <point x="141.67200000000003" y="624.3199999999999" type="line"/>
    </contour>
    <contour>
      <point x="542.5840000000001" y="913.736" type="curve" smooth="yes"/>
      <point x="448.28000000000003" y="913.736"/>
      <point x="407.552" y="968.24"/>
      <point x="407.552" y="1098.112" type="curve" smooth="yes"/>
      <point x="407.552" y="1218.56"/>
      <point x="450.98400000000004" y="1268.824"/>
      <point x="550.9920000000001" y="1268.824" type="curve" smooth="yes"/>
      <point x="645.2959999999999" y="1268.824"/>
      <point x="686.024" y="1214.968"/>
      <point x="686.024" y="1084.4479999999999" type="curve" smooth="yes"/>
      <point x="686.024" y="964.0"/>
      <point x="643.24" y="913.736"/>
    </contour>
    <contour>
      <point x="535.1039999999999" y="742.728" type="curve" smooth="yes"/>
      <point x="815.168" y="742.728"/>
      <point x="956.8320000000001" y="859.264"/>
      <point x="956.8320000000001" y="1095.52" type="curve" smooth="yes"/>
      <point x="956.8320000000001" y="1324.128"/>
      <point x="819.944" y="1440.48"/>
      <point x="557.8240000000001" y="1440.48" type="curve" smooth="yes"/>
      <point x="278.408" y="1440.48"/>
      <point x="136.744" y="1323.944"/>
      <point x="136.744" y="1088.9840000000002" type="curve" smooth="yes"/>
      <point x="136.744" y="859.08"/>
      <point x="273.632" y="742.728"/>
    </contour>
  </outline>
</glyph>
<glyph name="guillemotright" format="2">
	<unicode hex="00BB"/>
	<advance width="1446.568"/>
	<outline>
		<contour>
			<point x="384.176" y="471.504" type="line"/>
			<point x="384.176" y="572.496" type="line"/>
			<point x="97.856" y="140.872" type="line"/>
			<point x="249.472" y="2.032" type="line"/>
			<point x="721.072" y="408.048" type="line"/>
			<point x="721.072" y="635.952" type="line"/>
			<point x="249.472" y="1041.968" type="line"/>
			<point x="97.856" y="903.128" type="line"/>
		</contour>
		<contour>
			<point x="1004.336" y="471.504" type="line"/>
			<point x="1004.336" y="572.496" type="line"/>
			<point x="718.016" y="140.872" type="line"/>
			<point x="869.632" y="2.032" type="line"/>
			<point x="1341.232" y="408.048" type="line"/>
			<point x="1341.232" y="635.952" type="line"/>
			<point x="869.632" y="1041.968" type="line"/>
			<point x="718.016" y="903.128" type="line"/>
		</contour>
	</outline>
</glyph>
<glyph name="questiondown" format="2">
	<unicode hex="00BF"/>
	<advance width="1400.688"/>
	<outline>
		<contour>
			<point x="748.272" y="-410" type="curve" smooth="yes"/>
			<point x="1209.048" y="-410"/>
			<point x="1347.28" y="-299.928"/>
			<point x="1347.28" y="-156.496" type="curve" smooth="yes"/>
			<point x="1347.28" y="-62.168"/>
			<point x="1275.544" y="-0.728"/>
			<point x="1167.44" y="-0.728" type="curve" smooth="yes"/>
			<point x="1095.608" y="-0.728"/>
			<point x="1005.744" y="-183.704"/>
			<point x="789.296" y="-183.704" type="curve" smooth="yes"/>
			<point x="584.976" y="-183.704"/>
			<point x="508.712" y="-96.568"/>
			<point x="508.712" y="6.496" type="curve" smooth="yes"/>
			<point x="508.712" y="152.592"/>
			<point x="591.752" y="201.856"/>
			<point x="908.792" y="192.192" type="curve"/>
			<point x="858.296" y="537.808" type="line"/>
			<point x="600.992" y="537.808" type="line"/>
			<point x="555.312" y="308.608" type="line"/>
			<point x="645.768" y="399.44" type="line"/>
			<point x="220.184" y="384.96"/>
			<point x="78.112" y="248.976"/>
			<point x="78.112" y="-2.984" type="curve" smooth="yes"/>
			<point x="78.112" y="-226.744"/>
			<point x="260.488" y="-410"/>
		</contour>
		<contour>
			<point x="737.92" y="662.608" type="curve" smooth="yes"/>
			<point x="878.28" y="662.608"/>
			<point x="959.72" y="731.512"/>
			<point x="959.72" y="856.136" type="curve" smooth="yes"/>
			<point x="959.72" y="984"/>
			<point x="878.28" y="1054.848"/>
			<point x="737.92" y="1054.848" type="curve" smooth="yes"/>
			<point x="597.56" y="1054.848"/>
			<point x="516.12" y="984"/>
			<point x="516.12" y="856.136" type="curve" smooth="yes"/>
			<point x="516.12" y="731.512"/>
			<point x="597.56" y="662.608"/>
		</contour>
	</outline>
</glyph>
<glyph name="AE" format="2">
	<unicode hex="00C6"/>
	<advance width="2536.88"/>
	<outline>
		<contour>
			<point x="579.344" y="423.552" type="line"/>
			<point x="1220.688" y="423.552" type="line"/>
			<point x="1220.688" y="650.832" type="line"/>
			<point x="579.344" y="650.832" type="line"/>
		</contour>
		<contour>
			<point x="1045.36" y="1414" type="line"/>
			<point x="169.76" y="162.664" type="line"/>
			<point x="1.76" y="125.44" type="line"/>
			<point x="1.76" y="0" type="line"/>
			<point x="629.112" y="0" type="line"/>
			<point x="629.112" y="125.44" type="line"/>
			<point x="461.904" y="166.552" type="line"/>
			<point x="1214.704" y="1250.464" type="line"/>
			<point x="1214.704" y="1414" type="line"/>
		</contour>
		<contour>
			<point x="716.824" y="1288.56" type="line"/>
			<point x="1013.824" y="1208.248" type="line"/>
			<point x="1081.432" y="1414" type="line"/>
			<point x="716.824" y="1414" type="line"/>
		</contour>
		<contour>
			<point x="2040.632" y="990" type="line"/>
			<point x="1875.288" y="990" type="line"/>
			<point x="1858.288" y="835.088" type="line"/>
			<point x="1389.856" y="835.088" type="line"/>
			<point x="1389.856" y="638.912" type="line"/>
			<point x="1858.288" y="638.912" type="line"/>
			<point x="1875.288" y="480" type="line"/>
			<point x="2040.632" y="480" type="line"/>
			<point x="2040.632" y="735" type="line"/>
		</contour>
		<contour>
			<point x="2402.304" y="981.088" type="line"/>
			<point x="2402.304" y="1502.144" type="line"/>
			<point x="2271.216" y="1502.144" type="line"/>
			<point x="2159.224" y="1414" type="line"/>
			<point x="1389.856" y="1414" type="line"/>
			<point x="1389.856" y="1192.552" type="line"/>
			<point x="2220.776" y="1192.552" type="line"/>
			<point x="2093.824" y="1332.928" type="line"/>
			<point x="2220.832" y="981.088" type="line"/>
		</contour>
		<contour>
			<point x="2068.568" y="84.312" type="line"/>
			<point x="2181.928" y="221.448" type="line"/>
			<point x="1389.856" y="221.448" type="line"/>
			<point x="1389.856" y="0" type="line"/>
			<point x="2131.896" y="0" type="line"/>
			<point x="2214.072" y="-92.088" type="line"/>
			<point x="2365.048" y="-92.088" type="line"/>
			<point x="2458.544" y="498.744" type="line"/>
			<point x="2272.056" y="498.744" type="line"/>
		</contour>
		<contour>
			<point x="994.584" y="0" type="line"/>
			<point x="1597.8" y="0" type="line"/>
			<point x="1597.8" y="1414" type="line"/>
			<point x="1172.44" y="1414" type="line"/>
			<point x="1172.44" y="173.032" type="line"/>
			<point x="994.584" y="125.44" type="line"/>
		</contour>
	</outline>
	<anchor name="UCtop" x="1395.192" y="1414"/>
	<anchor name="bottom" x="1278.552" y="0"/>
</glyph>
<glyph name="Ccedilla" format="2">
	<unicode hex="00C7"/>
	<advance width="1606.784"/>
	<outline>
		<contour>
			<point x="1025.608" y="204.504" type="curve" smooth="yes"/>
			<point x="698.896" y="204.504"/>
			<point x="527.104" y="362.088"/>
			<point x="532.032" y="735.872" type="curve" smooth="yes"/>
			<point x="536.256" y="1066.376"/>
			<point x="660.968" y="1197.072"/>
			<point x="967.376" y="1197.072" type="curve" smooth="yes"/>
			<point x="1106.28" y="1197.072"/>
			<point x="1210.072" y="1171.648"/>
			<point x="1326.776" y="1100.688" type="curve"/>
			<point x="1172.984" y="1278.592" type="line"/>
			<point x="1295.048" y="912.048" type="line"/>
			<point x="1479.504" y="912.048" type="line"/>
			<point x="1479.504" y="1502.144" type="line"/>
			<point x="1335.288" y="1502.144" type="line"/>
			<point x="1221.48" y="1369.056" type="line"/>
			<point x="1327.36" y="1379.832" type="line"/>
			<point x="1199.864" y="1418.72"/>
			<point x="1073.72" y="1440.48"/>
			<point x="938.792" y="1440.48" type="curve" smooth="yes"/>
			<point x="375.176" y="1440.48"/>
			<point x="104.32" y="1140.6"/>
			<point x="102.208" y="689.632" type="curve" smooth="yes"/>
			<point x="100.096" y="210.688"/>
			<point x="382.856" y="-26.48"/>
			<point x="951.512" y="-26.48" type="curve" smooth="yes"/>
			<point x="1143.104" y="-26.48"/>
			<point x="1309.496" y="1.744"/>
			<point x="1452.672" y="55.928" type="curve"/>
			<point x="1501.744" y="504.264" type="line"/>
			<point x="1344.712" y="504.264" type="line"/>
			<point x="1156.52" y="118.864" type="line"/>
			<point x="1355.84" y="269.616" type="line"/>
			<point x="1252.912" y="227.56"/>
			<point x="1131.76" y="204.504"/>
		</contour>
		<contour>
			<point x="821.08" y="-465" type="curve" smooth="yes"/>
			<point x="1006.408" y="-465"/>
			<point x="1133.736" y="-413.72"/>
			<point x="1133.736" y="-269.688" type="curve" smooth="yes"/>
			<point x="1133.736" y="-173.784"/>
			<point x="1093.384" y="-113.968"/>
			<point x="845.744" y="-75.912" type="curve"/>
			<point x="853.152" y="-183.312" type="line"/>
			<point x="1049.624" y="39.848" type="line"/>
			<point x="905.688" y="39.848" type="line"/>
			<point x="713.88" y="-186.112" type="line"/>
			<point x="713.88" y="-223.016" type="line"/>
			<point x="908.712" y="-247.888"/>
			<point x="938.952" y="-265.408"/>
			<point x="938.952" y="-309.112" type="curve" smooth="yes"/>
			<point x="938.952" y="-348.688"/>
			<point x="916.728" y="-366.208"/>
			<point x="853.504" y="-366.208" type="curve" smooth="yes"/>
			<point x="790.208" y="-366.208"/>
			<point x="720.472" y="-313.056"/>
			<point x="698.64" y="-313.056" type="curve" smooth="yes"/>
			<point x="674.584" y="-313.056"/>
			<point x="644.824" y="-332.872"/>
			<point x="644.824" y="-375.816" type="curve" smooth="yes"/>
			<point x="644.824" y="-435.944"/>
			<point x="678.88" y="-465"/>
		</contour>
	</outline>
</glyph>
<glyph name="multiply" format="2">
	<unicode hex="00D7"/>
	<advance width="1140"/>
	<outline>
		<contour>
			<point x="143.128" y="256.088" type="line"/>
			<point x="306.024" y="93.192" type="line"/>
			<point x="996.872" y="784.04" type="line"/>
			<point x="833.976" y="946.936" type="line"/>
		</contour>
		<contour>
			<point x="143.128" y="784.04" type="line"/>
			<point x="833.976" y="93.192" type="line"/>
			<point x="996.872" y="256.088" type="line"/>
			<point x="306.024" y="946.936" type="line"/>
		</contour>
	</outline>
</glyph>
<glyph name="Oslash" format="2">
	<unicode hex="00D8"/>
	<advance width="1795.56"/>
	<outline>
		<contour>
			<point x="474.728" y="372.448" type="line"/>
			<point x="368.536" y="283.048" type="line"/>
			<point x="99.472" y="0" type="line"/>
			<point x="354.696" y="0" type="line"/>
			<point x="506.768" y="160.296" type="line"/>
			<point x="607.496" y="246.696" type="line"/>
			<point x="1320.832" y="1041.552" type="line"/>
			<point x="1427.024" y="1130.952" type="line"/>
			<point x="1696.088" y="1414" type="line"/>
			<point x="1440.864" y="1414" type="line"/>
			<point x="1288.792" y="1253.704" type="line"/>
			<point x="1188.064" y="1167.304" type="line"/>
		</contour>
		<contour>
			<point x="919.432" y="1440.48" type="curve" smooth="yes"/>
			<point x="423.184" y="1440.48"/>
			<point x="118.912" y="1164.456"/>
			<point x="118.912" y="705.648" type="curve" smooth="yes"/>
			<point x="118.912" y="249.84"/>
			<point x="393.432" y="-25.832"/>
			<point x="876.128" y="-25.832" type="curve" smooth="yes"/>
			<point x="1372.376" y="-25.832"/>
			<point x="1676.648" y="250.192"/>
			<point x="1676.648" y="709" type="curve" smooth="yes"/>
			<point x="1676.648" y="1164.808"/>
			<point x="1402.128" y="1440.48"/>
		</contour>
		<contour>
			<point x="899.976" y="229.944" type="curve" smooth="yes"/>
			<point x="653.992" y="229.944"/>
			<point x="549.032" y="399.752"/>
			<point x="549.032" y="761.032" type="curve" smooth="yes"/>
			<point x="549.032" y="1053.096"/>
			<point x="667.432" y="1184.704"/>
			<point x="895.584" y="1184.704" type="curve" smooth="yes"/>
			<point x="1141.568" y="1184.704"/>
			<point x="1246.528" y="1014.896"/>
			<point x="1246.528" y="653.616" type="curve" smooth="yes"/>
			<point x="1246.528" y="361.552"/>
			<point x="1128.128" y="229.944"/>
		</contour>
	</outline>
	<anchor name="UCtop" x="897.456" y="1414"/>
	<anchor name="bottom" x="897.456" y="0"/>
</glyph>
<glyph name="Thorn" format="2">
  <advance width="1619.624"/>
  <unicode hex="00DE"/>
  <outline>
    <contour>
      <point x="1117.2559999999999" y="710.0" type="curve" smooth="yes"/>
      <point x="1117.2559999999999" y="559.12"/>
      <point x="1048.488" y="496.96799999999996"/>
      <point x="908.2" y="496.96799999999996" type="curve" smooth="yes"/>
      <point x="582.0" y="496.96799999999996" type="line"/>
      <point x="455.64" y="260.61600000000004" type="line"/>
      <point x="987.24" y="260.61600000000004" type="line" smooth="yes"/>
      <point x="1378.808" y="260.61600000000004"/>
      <point x="1531.12" y="446.096"/>
      <point x="1531.12" y="711.408" type="curve" smooth="yes"/>
      <point x="1531.12" y="993.624"/>
      <point x="1366.5520000000001" y="1166.048"/>
      <point x="951.944" y="1166.048" type="curve" smooth="yes"/>
      <point x="477.024" y="1166.048" type="line"/>
      <point x="582.0" y="920.624" type="line"/>
      <point x="892.776" y="920.624" type="line" smooth="yes"/>
      <point x="1065.416" y="920.624"/>
      <point x="1117.2559999999999" y="851.12"/>
    </contour>
    <contour>
      <point x="880.7040000000001" y="125.44" type="line"/>
      <point x="702.848" y="173.03199999999998" type="line"/>
      <point x="702.848" y="1240.9679999999998" type="line"/>
      <point x="880.7040000000001" y="1288.56" type="line"/>
      <point x="880.7040000000001" y="1414.0" type="line"/>
      <point x="99.632" y="1414.0" type="line"/>
      <point x="99.632" y="1288.56" type="line"/>
      <point x="277.488" y="1240.9679999999998" type="line"/>
      <point x="277.488" y="173.03199999999998" type="line"/>
      <point x="99.632" y="125.44" type="line"/>
      <point x="99.632" y="0.0" type="line"/>
      <point x="880.7040000000001" y="0.0" type="line"/>
    </contour>
  </outline>
</glyph>
<glyph name="germandbls" format="2">
  <advance width="1714.6399999999999"/>
  <unicode hex="00DF"/>
  <outline>
    <contour>
      <point x="255.928" y="1029.496" type="curve" smooth="yes"/>
      <point x="255.928" y="146.36800000000002" type="line"/>
      <point x="118.088" y="110.904" type="line"/>
      <point x="118.088" y="0.0" type="line"/>
      <point x="739.5120000000001" y="0.0" type="line"/>
      <point x="739.5120000000001" y="110.904" type="line"/>
      <point x="634.072" y="146.368" type="line"/>
      <point x="634.072" y="1088.488" type="line" smooth="yes"/>
      <point x="634.072" y="1248.232"/>
      <point x="689.304" y="1297.864"/>
      <point x="897.736" y="1297.864" type="curve" smooth="yes"/>
      <point x="1062.888" y="1297.864"/>
      <point x="1121.208" y="1249.432"/>
      <point x="1121.208" y="1153.448" type="curve" smooth="yes"/>
      <point x="1121.208" y="997.784"/>
      <point x="877.72" y="1000.368"/>
      <point x="877.72" y="727.784" type="curve" smooth="yes"/>
      <point x="877.72" y="380.84"/>
      <point x="1300.304" y="524.12"/>
      <point x="1300.304" y="281.94399999999996" type="curve" smooth="yes"/>
      <point x="1300.304" y="201.864"/>
      <point x="1260.52" y="149.048"/>
      <point x="1120.272" y="149.048" type="curve" smooth="yes"/>
      <point x="1051.92" y="149.048"/>
      <point x="962.904" y="157.992"/>
      <point x="912.864" y="173.56799999999998" type="curve"/>
      <point x="1105.272" y="50.424" type="line"/>
      <point x="964.4480000000001" y="324.352" type="line"/>
      <point x="825.392" y="324.352" type="line"/>
      <point x="859.9680000000001" y="12.671999999999997" type="line"/>
      <point x="934.56" y="-9.664000000000001"/>
      <point x="1057.2640000000001" y="-25.072"/>
      <point x="1156.7440000000001" y="-25.072" type="curve" smooth="yes"/>
      <point x="1498.416" y="-25.072"/>
      <point x="1640.416" y="104.05600000000001"/>
      <point x="1640.416" y="362.176" type="curve" smooth="yes"/>
      <point x="1640.416" y="780.576"/>
      <point x="1175.304" y="679.816"/>
      <point x="1175.304" y="840.936" type="curve" smooth="yes"/>
      <point x="1175.304" y="991.808"/>
      <point x="1489.912" y="945.048"/>
      <point x="1489.912" y="1211.4080000000001" type="curve" smooth="yes"/>
      <point x="1489.912" y="1384.76"/>
      <point x="1380.576" y="1490.48"/>
      <point x="923.92" y="1490.48" type="curve" smooth="yes"/>
      <point x="455.544" y="1490.48"/>
      <point x="255.928" y="1354.424"/>
    </contour>
    <contour>
      <point x="273.224" y="1066.792" type="line"/>
      <point x="41.192" y="966.576" type="line"/>
      <point x="41.192" y="886.376" type="line"/>
      <point x="255.928" y="792.5120000000001" type="line"/>
    </contour>
  </outline>
</glyph>
<glyph name="ae" format="2">
  <advance width="1916"/>
  <unicode hex="00E6"/>
  <anchor x="955.024" y="1036.96" name="top"/>
  <anchor x="955.024" y="0.0" name="bottom"/>
  <outline>
    <contour>
      <point x="563.384" y="903.056" type="curve" smooth="yes"/>
      <point x="701.984" y="903.056"/>
      <point x="752.744" y="841.5920000000001"/>
      <point x="752.744" y="709.328" type="curve" smooth="yes"/>
      <point x="752.744" y="347.04" type="line" smooth="yes"/>
      <point x="752.744" y="262.472"/>
      <point x="686.864" y="214.632"/>
      <point x="588.096" y="214.632" type="curve" smooth="yes"/>
      <point x="487.42400000000004" y="214.632"/>
      <point x="457.232" y="247.784"/>
      <point x="457.232" y="335.71200000000005" type="curve" smooth="yes"/>
      <point x="457.232" y="434.624"/>
      <point x="500.73600000000005" y="474.48"/>
      <point x="805.4" y="505.32" type="curve"/>
      <point x="821.9440000000001" y="650.928" type="line"/>
      <point x="194.288" y="573.056"/>
      <point x="86.896" y="465.888"/>
      <point x="86.896" y="263.128" type="curve" smooth="yes"/>
      <point x="86.896" y="70.28"/>
      <point x="206.08" y="-26.48"/>
      <point x="425.03999999999996" y="-26.48" type="curve" smooth="yes"/>
      <point x="631.0559999999999" y="-26.48"/>
      <point x="770.432" y="58.65599999999999"/>
      <point x="802.76" y="339.568" type="curve"/>
      <point x="759.04" y="334.992" type="line"/>
      <point x="801.048" y="95.24"/>
      <point x="1007.4267115789473" y="-26.48"/>
      <point x="1334.728" y="-26.48" type="curve" smooth="yes"/>
      <point x="1458.32" y="-26.48"/>
      <point x="1609.008" y="25.336"/>
      <point x="1806.16" y="152.512" type="curve"/>
      <point x="1806.16" y="281.192" type="line"/>
      <point x="1702.4959999999999" y="255.208"/>
      <point x="1594.088" y="235.648"/>
      <point x="1455.608" y="235.648" type="curve" smooth="yes"/>
      <point x="1206.6399999999999" y="235.648"/>
      <point x="1116.28" y="319.896"/>
      <point x="1116.28" y="591.232" type="curve" smooth="yes"/>
      <point x="1116.28" y="801.944"/>
      <point x="1176.2720000000002" y="868.36"/>
      <point x="1303.248" y="868.36" type="curve" smooth="yes"/>
      <point x="1423.4399999999998" y="868.36"/>
      <point x="1481.04" y="815.816"/>
      <point x="1477.616" y="577.32" type="curve"/>
      <point x="1617.2640000000001" y="635.256" type="line"/>
      <point x="1028.44" y="635.2560000000001" type="line"/>
      <point x="1030.552" y="483.704" type="line"/>
      <point x="1832.952" y="483.704" type="line"/>
      <point x="1819.584" y="892.6"/>
      <point x="1671.776" y="1063.44"/>
      <point x="1322.5040000000001" y="1063.44" type="curve" smooth="yes"/>
      <point x="1122.4369855072462" y="1063.44"/>
      <point x="994.6729545933847" y="966.1591501379205"/>
      <point x="916.4079999999999" y="834.5120000000001" type="curve"/>
      <point x="1134.032" y="834.5120000000001" type="line"/>
      <point x="1089.2228595841832" y="951.0259519452069"/>
      <point x="957.6674509803921" y="1063.4399999999998"/>
      <point x="697.848" y="1063.4399999999998" type="curve" smooth="yes"/>
      <point x="334.032" y="1063.4399999999998"/>
      <point x="99.688" y="896.7760000000001"/>
      <point x="99.688" y="788.576" type="curve" smooth="yes"/>
      <point x="99.688" y="735.5039999999999"/>
      <point x="144.632" y="698.856"/>
      <point x="241.536" y="698.856" type="curve" smooth="yes"/>
      <point x="334.416" y="698.856"/>
      <point x="381.08000000000004" y="711.6880000000001"/>
      <point x="404.08000000000004" y="772.76" type="curve" smooth="yes"/>
      <point x="427.08" y="832.5360000000001"/>
      <point x="444.67199999999997" y="893.088"/>
      <point x="463.376" y="973.848" type="curve"/>
      <point x="400.336" y="891.128" type="line"/>
      <point x="438.59999999999997" y="898.2959999999999"/>
      <point x="484.512" y="903.056"/>
    </contour>
  </outline>
</glyph>
<glyph name="ccedilla" format="2">
	<unicode hex="00E7"/>
	<advance width="1188.016"/>
	<outline>
		<contour>
			<point x="718.792" y="1063.44" type="curve" smooth="yes"/>
			<point x="307.36" y="1063.44"/>
			<point x="84.504" y="832.56"/>
			<point x="84.504" y="501.888" type="curve" smooth="yes"/>
			<point x="84.504" y="156.816"/>
			<point x="290.336" y="-26.48"/>
			<point x="640.064" y="-26.48" type="curve" smooth="yes"/>
			<point x="755.176" y="-26.48"/>
			<point x="889.92" y="19.8"/>
			<point x="1100.92" y="152.512" type="curve"/>
			<point x="1100.92" y="294.8" type="line"/>
			<point x="987.752" y="262.296"/>
			<point x="881.992" y="244.72"/>
			<point x="755.072" y="244.72" type="curve" smooth="yes"/>
			<point x="519.312" y="244.72"/>
			<point x="432.136" y="333.008"/>
			<point x="432.136" y="599.952" type="curve" smooth="yes"/>
			<point x="432.136" y="826.768"/>
			<point x="515.888" y="901.648"/>
			<point x="651.344" y="901.648" type="curve" smooth="yes"/>
			<point x="716.696" y="901.648"/>
			<point x="916.784" y="672.736"/>
			<point x="964.464" y="672.736" type="curve" smooth="yes"/>
			<point x="1037.336" y="672.736"/>
			<point x="1126.328" y="741.328"/>
			<point x="1126.328" y="844.84" type="curve" smooth="yes"/>
			<point x="1126.328" y="965.144"/>
			<point x="1025.168" y="1063.44"/>
		</contour>
		<contour>
			<point x="538.6" y="-465" type="curve" smooth="yes"/>
			<point x="723.928" y="-465"/>
			<point x="851.256" y="-413.72"/>
			<point x="851.256" y="-269.688" type="curve" smooth="yes"/>
			<point x="851.256" y="-173.784"/>
			<point x="810.904" y="-113.968"/>
			<point x="563.264" y="-75.912" type="curve"/>
			<point x="570.672" y="-183.312" type="line"/>
			<point x="767.144" y="39.848" type="line"/>
			<point x="623.208" y="39.848" type="line"/>
			<point x="431.4" y="-186.112" type="line"/>
			<point x="431.4" y="-223.016" type="line"/>
			<point x="626.232" y="-247.888"/>
			<point x="656.472" y="-265.408"/>
			<point x="656.472" y="-309.112" type="curve" smooth="yes"/>
			<point x="656.472" y="-348.688"/>
			<point x="634.248" y="-366.208"/>
			<point x="571.024" y="-366.208" type="curve" smooth="yes"/>
			<point x="507.728" y="-366.208"/>
			<point x="437.992" y="-313.056"/>
			<point x="416.16" y="-313.056" type="curve" smooth="yes"/>
			<point x="392.104" y="-313.056"/>
			<point x="362.344" y="-332.872"/>
			<point x="362.344" y="-375.816" type="curve" smooth="yes"/>
			<point x="362.344" y="-435.944"/>
			<point x="396.4" y="-465"/>
		</contour>
	</outline>
</glyph>
<glyph name="divide" format="2">
  <advance width="1140.0"/>
  <unicode hex="00F7"/>
  <outline>
    <contour>
      <point x="570.176" y="305.032" type="curve" smooth="yes"/>
      <point x="467.32800000000003" y="305.032"/>
      <point x="402.312" y="245.72"/>
      <point x="402.312" y="146.112" type="curve" smooth="yes"/>
      <point x="402.312" y="46.504"/>
      <point x="467.32800000000003" y="-13.808000000000002"/>
      <point x="570.176" y="-13.808000000000002" type="curve" smooth="yes"/>
      <point x="672.672" y="-13.808000000000002"/>
      <point x="737.6880000000001" y="46.504"/>
      <point x="737.6880000000001" y="146.112" type="curve" smooth="yes"/>
      <point x="737.6880000000001" y="245.72"/>
      <point x="672.672" y="305.032"/>
    </contour>
    <contour>
      <point x="570.176" y="1053.9360000000001" type="curve" smooth="yes"/>
      <point x="467.32800000000003" y="1053.9360000000001"/>
      <point x="402.312" y="994.624"/>
      <point x="402.312" y="895.016" type="curve" smooth="yes"/>
      <point x="402.312" y="795.4079999999999"/>
      <point x="467.32800000000003" y="735.448"/>
      <point x="570.176" y="735.448" type="curve" smooth="yes"/>
      <point x="672.672" y="735.448"/>
      <point x="737.6880000000001" y="795.4079999999999"/>
      <point x="737.6880000000001" y="895.016" type="curve" smooth="yes"/>
      <point x="737.6880000000001" y="994.624"/>
      <point x="672.672" y="1053.9360000000001"/>
    </contour>
    <contour>
      <point x="119.328" y="634.8800000000001" type="line"/>
      <point x="119.328" y="405.248" type="line"/>
      <point x="1020.672" y="405.248" type="line"/>
      <point x="1020.672" y="634.8800000000001" type="line"/>
    </contour>
  </outline>
</glyph>
<glyph name="oslash" format="2">
	<unicode hex="00F8"/>
	<advance width="1370.264"/>
	<outline>
		<contour>
			<point x="77.8" y="0" type="line"/>
			<point x="270.24" y="0" type="line"/>
			<point x="391.848" y="123.128" type="line"/>
			<point x="440.12" y="160.312" type="line"/>
			<point x="1014.312" y="776.856" type="line"/>
			<point x="1072.008" y="814.112" type="line"/>
			<point x="1291.52" y="1036.96" type="line"/>
			<point x="1099.08" y="1036.96" type="line"/>
			<point x="977.472" y="913.832" type="line"/>
			<point x="929.2" y="876.648" type="line"/>
			<point x="355.008" y="260.104" type="line"/>
			<point x="297.312" y="222.848" type="line"/>
		</contour>
		<contour>
			<point x="677.696" y="201.28" type="curve" smooth="yes"/>
			<point x="532.624" y="201.28"/>
			<point x="473.504" y="299.4"/>
			<point x="473.504" y="538.592" type="curve" smooth="yes"/>
			<point x="473.504" y="752.192"/>
			<point x="540.256" y="835.68"/>
			<point x="692.272" y="835.68" type="curve" smooth="yes"/>
			<point x="837.344" y="835.68"/>
			<point x="896.464" y="737.56"/>
			<point x="896.464" y="498.368" type="curve" smooth="yes"/>
			<point x="896.464" y="284.768"/>
			<point x="829.712" y="201.28"/>
		</contour>
		<contour>
			<point x="668.68" y="-26.48" type="curve" smooth="yes"/>
			<point x="1046.744" y="-26.48"/>
			<point x="1268" y="178.28"/>
			<point x="1268" y="523.016" type="curve" smooth="yes"/>
			<point x="1268" y="861.568"/>
			<point x="1059.688" y="1063.44"/>
			<point x="701.288" y="1063.44" type="curve" smooth="yes"/>
			<point x="323.224" y="1063.44"/>
			<point x="101.968" y="858.68"/>
			<point x="101.968" y="513.944" type="curve" smooth="yes"/>
			<point x="101.968" y="175.392"/>
			<point x="310.28" y="-26.48"/>
		</contour>
	</outline>
	<anchor name="top" x="684.512" y="1036.96"/>
	<anchor name="bottom" x="684.512" y="0"/>
</glyph>
<glyph name="thorn" format="2">
	<unicode hex="00FE"/>
	<advance width="1406.552"/>
	<outline>
		<contour>
			<point x="158.616" y="1179.24" type="curve"/>
			<point x="158.616" y="-292.152" type="line"/>
			<point x="19.016" y="-327.616" type="line"/>
			<point x="19.016" y="-438.52" type="line"/>
			<point x="695.656" y="-438.52" type="line"/>
			<point x="695.656" y="-327.616" type="line"/>
			<point x="536.408" y="-292.856" type="line"/>
			<point x="536.408" y="278.128" type="line"/>
			<point x="520.704" y="278.128" type="line"/>
			<point x="524.224" y="106.688"/>
			<point x="642.248" y="-26.48"/>
			<point x="844.912" y="-26.48" type="curve" smooth="yes"/>
			<point x="1102.696" y="-26.48"/>
			<point x="1317.808" y="179.504"/>
			<point x="1317.808" y="558.48" type="curve" smooth="yes"/>
			<point x="1317.808" y="870.608"/>
			<point x="1163.36" y="1063.44"/>
			<point x="863.376" y="1063.44" type="curve" smooth="yes"/>
			<point x="780.504" y="1063.44"/>
			<point x="714.752" y="1042.344"/>
			<point x="466.76" y="875.208" type="curve"/>
			<point x="466.76" y="791.24" type="line"/>
			<point x="540.712" y="811.728"/>
			<point x="624.664" y="823.528"/>
			<point x="691.472" y="823.528" type="curve" smooth="yes"/>
			<point x="862.704" y="823.528"/>
			<point x="942.752" y="738.928"/>
			<point x="942.752" y="518.144" type="curve" smooth="yes"/>
			<point x="942.752" y="287.328"/>
			<point x="860.928" y="197.76"/>
			<point x="725.504" y="197.76" type="curve" smooth="yes"/>
			<point x="604.44" y="197.76"/>
			<point x="536.76" y="252.84"/>
			<point x="536.76" y="420.208" type="curve" smooth="yes"/>
			<point x="536.76" y="1223.568" type="line"/>
			<point x="560.648" y="1490.48" type="line"/>
			<point x="466.808" y="1490.48" type="line"/>
			<point x="-37.352" y="1402.336" type="line"/>
			<point x="-37.352" y="1288.992" type="line"/>
			<point x="40.648" y="1244.2496521739"/>
			<point x="132.616" y="1194.0367826087"/>
		</contour>
	</outline>
</glyph>
<glyph name="Aogonek" format="2">
	<unicode hex="0104"/>
	<advance width="1851.176"/>
	<outline>
		<contour>
			<point x="447.184" y="403.552" type="line"/>
			<point x="1189.808" y="403.552" type="line"/>
			<point x="1189.808" y="630.832" type="line"/>
			<point x="447.184" y="630.832" type="line"/>
		</contour>
		<contour>
			<point x="1657.528" y="175.624" type="line"/>
			<point x="1170.632" y="1421.04" type="line"/>
			<point x="663.984" y="1421.04" type="line"/>
			<point x="184.224" y="162.664" type="line"/>
			<point x="16.224" y="125.44" type="line"/>
			<point x="16.224" y="0" type="line"/>
			<point x="626.392" y="0" type="line"/>
			<point x="626.392" y="125.44" type="line"/>
			<point x="459.184" y="166.552" type="line"/>
			<point x="840.304" y="1250.464" type="line"/>
			<point x="800.376" y="1250.464" type="line"/>
			<point x="1203.576" y="162.664" type="line"/>
			<point x="1034.424" y="125.44" type="line"/>
			<point x="1034.424" y="0" type="line"/>
			<point x="1842.88" y="0" type="line"/>
			<point x="1842.88" y="125.44" type="line"/>
		</contour>
		<contour>
			<point x="1486.912" y="-76.352" type="curve" smooth="yes"/>
			<point x="1590.624" y="78.696" type="line"/>
			<point x="1491.128" y="78.696" type="line"/>
			<point x="1370.08" y="-46.896" type="line" smooth="yes"/>
			<point x="1246.496" y="-174.024"/>
			<point x="1227.96" y="-229.616"/>
			<point x="1227.96" y="-299.096" type="curve" smooth="yes"/>
			<point x="1227.96" y="-403"/>
			<point x="1282.144" y="-465"/>
			<point x="1417.4" y="-465" type="curve" smooth="yes"/>
			<point x="1490.696" y="-465"/>
			<point x="1537.528" y="-447.352"/>
			<point x="1623.544" y="-387.704" type="curve"/>
			<point x="1623.544" y="-291.784" type="line"/>
			<point x="1570.248" y="-315.544"/>
			<point x="1543.952" y="-319.896"/>
			<point x="1503.36" y="-319.896" type="curve" smooth="yes"/>
			<point x="1454.488" y="-319.896"/>
			<point x="1419.896" y="-295.024"/>
			<point x="1419.896" y="-245.152" type="curve" smooth="yes"/>
			<point x="1419.896" y="-201.688"/>
			<point x="1431.84" y="-162.632"/>
		</contour>
	</outline>
</glyph>
<glyph name="aogonek" format="2">
	<unicode hex="0105"/>
	<advance width="1317.472"/>
	<outline>
		<contour>
			<point x="1298.936" y="59.096" type="line"/>
			<point x="1298.936" y="182.144" type="line"/>
			<point x="1264.824" y="176.088"/>
			<point x="1238.896" y="173.032"/>
			<point x="1216.672" y="173.032" type="curve" smooth="yes"/>
			<point x="1158.224" y="173.032"/>
			<point x="1129.24" y="193.664"/>
			<point x="1129.24" y="258.76" type="curve" smooth="yes"/>
			<point x="1129.24" y="706.84" type="line" smooth="yes"/>
			<point x="1129.24" y="932.424"/>
			<point x="1016.096" y="1063.44"/>
			<point x="697.848" y="1063.44" type="curve" smooth="yes"/>
			<point x="334.032" y="1063.44"/>
			<point x="99.688" y="896.776"/>
			<point x="99.688" y="788.576" type="curve" smooth="yes"/>
			<point x="99.688" y="735.504"/>
			<point x="144.632" y="698.856"/>
			<point x="241.536" y="698.856" type="curve" smooth="yes"/>
			<point x="334.416" y="698.856"/>
			<point x="381.08" y="711.688"/>
			<point x="404.08" y="772.76" type="curve" smooth="yes"/>
			<point x="427.08" y="832.536"/>
			<point x="444.672" y="893.088"/>
			<point x="463.376" y="973.848" type="curve"/>
			<point x="400.336" y="891.128" type="line"/>
			<point x="438.6" y="898.296"/>
			<point x="484.512" y="903.056"/>
			<point x="563.384" y="903.056" type="curve" smooth="yes"/>
			<point x="701.984" y="903.056"/>
			<point x="752.744" y="841.592"/>
			<point x="752.744" y="709.328" type="curve" smooth="yes"/>
			<point x="752.744" y="332.128" type="line" smooth="yes"/>
			<point x="752.744" y="262.472"/>
			<point x="686.864" y="214.632"/>
			<point x="588.096" y="214.632" type="curve" smooth="yes"/>
			<point x="487.424" y="214.632"/>
			<point x="457.232" y="247.784"/>
			<point x="457.232" y="335.712" type="curve" smooth="yes"/>
			<point x="457.232" y="434.624"/>
			<point x="500.736" y="474.48"/>
			<point x="805.4" y="505.32" type="curve"/>
			<point x="821.944" y="650.928" type="line"/>
			<point x="194.288" y="573.056"/>
			<point x="86.896" y="465.888"/>
			<point x="86.896" y="263.128" type="curve" smooth="yes"/>
			<point x="86.896" y="70.28"/>
			<point x="206.08" y="-26.48"/>
			<point x="425.04" y="-26.48" type="curve" smooth="yes"/>
			<point x="622.224" y="-26.48"/>
			<point x="725.672" y="59.952"/>
			<point x="776.592" y="292.736" type="curve"/>
			<point x="764.056" y="282.368" type="line"/>
			<point x="776.24" y="63.28"/>
			<point x="861.496" y="-24.72"/>
			<point x="1021.84" y="-24.72" type="curve" smooth="yes"/>
			<point x="1070.224" y="-24.72"/>
			<point x="1116.72" y="-17.128"/>
			<point x="1160.92" y="-4.24" type="curve"/>
			<point x="1150.92" y="10.704" type="line"/>
			<point x="1087.064" y="-47.6" type="line" smooth="yes"/>
			<point x="940.536" y="-170.84"/>
			<point x="908.816" y="-229.616"/>
			<point x="908.816" y="-299.096" type="curve" smooth="yes"/>
			<point x="908.816" y="-403"/>
			<point x="963" y="-465"/>
			<point x="1098.256" y="-465" type="curve" smooth="yes"/>
			<point x="1171.552" y="-465"/>
			<point x="1218.384" y="-447.352"/>
			<point x="1304.4" y="-387.704" type="curve"/>
			<point x="1304.4" y="-291.784" type="line"/>
			<point x="1251.104" y="-315.544"/>
			<point x="1224.808" y="-319.896"/>
			<point x="1184.216" y="-319.896" type="curve" smooth="yes"/>
			<point x="1135.344" y="-319.896"/>
			<point x="1100.752" y="-295.024"/>
			<point x="1100.752" y="-245.152" type="curve" smooth="yes"/>
			<point x="1100.752" y="-204.928"/>
			<point x="1113.624" y="-172"/>
			<point x="1177.328" y="-91.96" type="curve" smooth="yes"/>
		</contour>
	</outline>
</glyph>
<glyph name="Dcroat" format="2">
  <advance width="1790"/>
  <unicode hex="0110"/>
  <outline>
    <contour>
      <point x="103.632" y="619.728" type="line"/>
      <point x="965.344" y="619.728" type="line"/>
      <point x="965.344" y="809.344" type="line"/>
      <point x="103.632" y="809.344" type="line"/>
    </contour>
    <contour>
      <point x="1251.464" y="722.0559999999999" type="curve" smooth="yes"/>
      <point x="1251.464" y="383.56"/>
      <point x="1147.1119999999999" y="245.424"/>
      <point x="917.584" y="245.424" type="curve" smooth="yes"/>
      <point x="515.752" y="245.424" type="line"/>
      <point x="480.76" y="0.0" type="line"/>
      <point x="928.12" y="0.0" type="line" smooth="yes"/>
      <point x="1387.1200000000001" y="0.0"/>
      <point x="1686.1200000000001" y="257.0"/>
      <point x="1686.1200000000001" y="736.0" type="curve" smooth="yes"/>
      <point x="1686.1200000000001" y="1177.0"/>
      <point x="1432.1200000000001" y="1414.0"/>
      <point x="937.12" y="1414.0" type="curve" smooth="yes"/>
      <point x="480.76" y="1414.0" type="line"/>
      <point x="515.752" y="1168.576" type="line"/>
      <point x="871.0640000000001" y="1168.576" type="line" smooth="yes"/>
      <point x="1149.816" y="1168.576"/>
      <point x="1251.464" y="1032.864"/>
    </contour>
    <contour>
      <point x="103.632" y="0.0" type="line"/>
      <point x="706.8480000000001" y="0.0" type="line"/>
      <point x="706.8480000000001" y="1414.0" type="line"/>
      <point x="103.632" y="1414.0" type="line"/>
      <point x="103.632" y="1288.56" type="line"/>
      <point x="281.488" y="1240.9679999999998" type="line"/>
      <point x="281.488" y="173.03199999999998" type="line"/>
      <point x="103.632" y="125.44" type="line"/>
    </contour>
  </outline>
</glyph>
<glyph name="dcroat" format="2">
  <advance width="1452"/>
  <unicode hex="0111"/>
  <outline>
    <contour>
      <point x="867.848" y="658.928" type="curve" smooth="yes"/>
      <point x="867.848" y="197.704" type="line"/>
      <point x="962.2879999999999" y="-26.480000000000004" type="line"/>
      <point x="1016.4879999999999" y="-26.480000000000004" type="line"/>
      <point x="1419.624" y="101.464" type="line"/>
      <point x="1419.624" y="174.56799999999998" type="line"/>
      <point x="1377.624" y="202.61565217391305"/>
      <point x="1269.992" y="273.5167701863354"/>
      <point x="1245.992" y="289.544" type="curve"/>
      <point x="1245.992" y="1223.568" type="line"/>
      <point x="1269.88" y="1490.48" type="line"/>
      <point x="1176.0400000000002" y="1490.48" type="line"/>
      <point x="776.456" y="1446.4" type="line"/>
      <point x="776.456" y="1333.056" type="line"/>
      <point x="802.776" y="1316.2240000000002"/>
      <point x="852.384" y="1293.76"/>
      <point x="867.848" y="1279.04" type="curve"/>
      <point x="867.848" y="941.136" type="line"/>
      <point x="1101.136" y="958.032" type="line"/>
      <point x="957.2320000000001" y="1037.384"/>
      <point x="856.936" y="1063.44"/>
      <point x="700.9200000000001" y="1063.44" type="curve" smooth="yes"/>
      <point x="353.48" y="1063.44"/>
      <point x="86.8" y="842.088"/>
      <point x="86.8" y="478.48" type="curve" smooth="yes"/>
      <point x="86.8" y="165.704"/>
      <point x="236.32000000000002" y="-26.48"/>
      <point x="534.544" y="-26.48" type="curve" smooth="yes"/>
      <point x="613.896" y="-26.48"/>
      <point x="666.2719999999999" y="-9.959999999999999"/>
      <point x="944.184" y="193.432" type="curve"/>
      <point x="944.184" y="252.704" type="line"/>
      <point x="865.656" y="226.99200000000002"/>
      <point x="782.0559999999999" y="213.432"/>
      <point x="713.136" y="213.432" type="curve" smooth="yes"/>
      <point x="538.384" y="213.432"/>
      <point x="461.856" y="296.272"/>
      <point x="461.856" y="521.128" type="curve" smooth="yes"/>
      <point x="461.856" y="761.2959999999999"/>
      <point x="547.568" y="854.1600000000001"/>
      <point x="703.5840000000001" y="854.1600000000001" type="curve" smooth="yes"/>
      <point x="824.4720000000001" y="854.1600000000001"/>
      <point x="867.848" y="794.9680000000001"/>
    </contour>
    <contour>
      <point x="614.848" y="1130.7359999999999" type="line"/>
      <point x="1404.7199999999998" y="1130.7359999999999" type="line"/>
      <point x="1404.7199999999998" y="1257.216" type="line"/>
      <point x="614.848" y="1257.216" type="line"/>
    </contour>
  </outline>
</glyph>
<glyph name="Eogonek" format="2">
  <advance width="1642"/>
  <unicode hex="0118"/>
  <outline>
    <contour>
      <point x="1145.68" y="990.0" type="line"/>
      <point x="980.336" y="990.0" type="line"/>
      <point x="963.336" y="835.088" type="line"/>
      <point x="494.904" y="835.088" type="line"/>
      <point x="494.904" y="638.912" type="line"/>
      <point x="963.336" y="638.912" type="line"/>
      <point x="980.336" y="480.0" type="line"/>
      <point x="1145.68" y="480.0" type="line"/>
      <point x="1145.68" y="735.0" type="line"/>
    </contour>
    <contour>
      <point x="1507.3519999999999" y="981.088" type="line"/>
      <point x="1507.352" y="1502.144" type="line"/>
      <point x="1376.264" y="1502.144" type="line"/>
      <point x="1264.2720000000002" y="1414.0" type="line"/>
      <point x="494.904" y="1414.0" type="line"/>
      <point x="494.904" y="1192.5520000000001" type="line"/>
      <point x="1325.824" y="1192.5520000000001" type="line"/>
      <point x="1198.872" y="1332.9279999999999" type="line"/>
      <point x="1325.88" y="981.0880000000001" type="line"/>
    </contour>
    <contour>
      <point x="1173.616" y="84.312" type="line"/>
      <point x="1286.976" y="221.448" type="line"/>
      <point x="494.904" y="221.448" type="line"/>
      <point x="494.904" y="0.0" type="line"/>
      <point x="1236.944" y="0.0" type="line"/>
      <point x="1319.1200000000001" y="-92.088" type="line"/>
      <point x="1470.096" y="-92.088" type="line"/>
      <point x="1563.592" y="498.744" type="line"/>
      <point x="1377.104" y="498.744" type="line"/>
    </contour>
    <contour>
      <point x="99.632" y="0.0" type="line"/>
      <point x="702.848" y="0.0" type="line"/>
      <point x="702.848" y="1414.0" type="line"/>
      <point x="99.632" y="1414.0" type="line"/>
      <point x="99.632" y="1288.56" type="line"/>
      <point x="277.488" y="1240.9679999999998" type="line"/>
      <point x="277.488" y="173.03199999999998" type="line"/>
      <point x="99.632" y="125.44" type="line"/>
    </contour>
    <contour>
      <point x="1238.008" y="-70.576" type="curve" smooth="yes"/>
      <point x="1313.696" y="78.696" type="line"/>
      <point x="1214.2" y="78.696" type="line"/>
      <point x="1113.4" y="-41.12" type="line" smooth="yes"/>
      <point x="1005.992" y="-168.784"/>
      <point x="986.9920000000001" y="-229.61599999999999"/>
      <point x="986.9920000000001" y="-299.096" type="curve" smooth="yes"/>
      <point x="986.9920000000001" y="-403.0"/>
      <point x="1041.176" y="-465.0"/>
      <point x="1176.432" y="-465.0" type="curve" smooth="yes"/>
      <point x="1249.728" y="-465.0"/>
      <point x="1296.56" y="-447.35200000000003"/>
      <point x="1382.576" y="-387.704" type="curve"/>
      <point x="1382.576" y="-291.784" type="line"/>
      <point x="1329.28" y="-315.544"/>
      <point x="1302.984" y="-319.896"/>
      <point x="1262.392" y="-319.896" type="curve" smooth="yes"/>
      <point x="1207.688" y="-319.896"/>
      <point x="1178.928" y="-293.08000000000004"/>
      <point x="1178.928" y="-237.376" type="curve" smooth="yes"/>
      <point x="1178.928" y="-195.856"/>
      <point x="1192.096" y="-156.448"/>
    </contour>
  </outline>
</glyph>
<glyph name="eogonek" format="2">
	<unicode hex="0119"/>
	<advance width="1235.424"/>
	<outline>
		<contour>
			<point x="1123.664" y="152.512" type="line"/>
			<point x="1123.664" y="281.192" type="line"/>
			<point x="1020" y="255.208"/>
			<point x="911.592" y="235.648"/>
			<point x="773.112" y="235.648" type="curve" smooth="yes"/>
			<point x="524.144" y="235.648"/>
			<point x="433.784" y="319.896"/>
			<point x="433.784" y="591.232" type="curve" smooth="yes"/>
			<point x="433.784" y="801.944"/>
			<point x="493.776" y="868.36"/>
			<point x="620.752" y="868.36" type="curve" smooth="yes"/>
			<point x="740.944" y="868.36"/>
			<point x="798.544" y="815.816"/>
			<point x="795.12" y="577.32" type="curve"/>
			<point x="869.968" y="635.256" type="line"/>
			<point x="345.944" y="635.256" type="line"/>
			<point x="348.056" y="483.704" type="line"/>
			<point x="1150.456" y="483.704" type="line"/>
			<point x="1137.088" y="892.6"/>
			<point x="989.28" y="1063.44"/>
			<point x="640.008" y="1063.44" type="curve" smooth="yes"/>
			<point x="285.688" y="1063.44"/>
			<point x="86.152" y="847.2"/>
			<point x="86.152" y="501.888" type="curve" smooth="yes"/>
			<point x="86.152" y="156.816"/>
			<point x="292.928" y="-26.48"/>
			<point x="652.232" y="-26.48" type="curve" smooth="yes"/>
			<point x="744.064" y="-26.48"/>
			<point x="851.064" y="2.52"/>
			<point x="983.224" y="70.608" type="curve"/>
			<point x="971.224" y="84.608" type="line"/>
			<point x="901.648" y="8.808" type="line" smooth="yes"/>
			<point x="768.152" y="-134.616"/>
			<point x="730.728" y="-207.912"/>
			<point x="730.728" y="-294.52" type="curve" smooth="yes"/>
			<point x="730.728" y="-403"/>
			<point x="788.784" y="-465"/>
			<point x="926.504" y="-465" type="curve" smooth="yes"/>
			<point x="1001.208" y="-465"/>
			<point x="1043.112" y="-447.352"/>
			<point x="1129.128" y="-387.704" type="curve"/>
			<point x="1129.128" y="-291.784" type="line"/>
			<point x="1075.832" y="-315.544"/>
			<point x="1049.536" y="-319.896"/>
			<point x="1008.944" y="-319.896" type="curve" smooth="yes"/>
			<point x="956.184" y="-319.896"/>
			<point x="921.608" y="-297.84"/>
			<point x="921.608" y="-235.728" type="curve" smooth="yes"/>
			<point x="921.608" y="-193.336"/>
			<point x="935.592" y="-133.112"/>
			<point x="996.928" y="-40.72" type="curve" smooth="yes"/>
		</contour>
	</outline>
</glyph>
<glyph name="Hbar" format="2">
	<unicode hex="0126"/>
	<advance width="1970.352"/>
	<outline>
		<contour>
			<point x="706.496" y="173.032" type="line"/>
			<point x="706.496" y="1240.968" type="line"/>
			<point x="884.352" y="1288.56" type="line"/>
			<point x="884.352" y="1414" type="line"/>
			<point x="103.28" y="1414" type="line"/>
			<point x="103.28" y="1288.56" type="line"/>
			<point x="281.136" y="1240.968" type="line"/>
			<point x="281.136" y="173.032" type="line"/>
			<point x="103.28" y="125.44" type="line"/>
			<point x="103.28" y="0" type="line"/>
			<point x="884.352" y="0" type="line"/>
			<point x="884.352" y="125.44" type="line"/>
		</contour>
		<contour>
			<point x="1689.216" y="173.032" type="line"/>
			<point x="1689.216" y="1240.968" type="line"/>
			<point x="1867.072" y="1288.56" type="line"/>
			<point x="1867.072" y="1414" type="line"/>
			<point x="1086" y="1414" type="line"/>
			<point x="1086" y="1288.56" type="line"/>
			<point x="1263.856" y="1240.968" type="line"/>
			<point x="1263.856" y="173.032" type="line"/>
			<point x="1086" y="125.44" type="line"/>
			<point x="1086" y="0" type="line"/>
			<point x="1867.072" y="0" type="line"/>
			<point x="1867.072" y="125.44" type="line"/>
		</contour>
		<contour>
			<point x="103.28" y="978.152" type="line"/>
			<point x="1867.072" y="978.152" type="line"/>
			<point x="1867.072" y="1167.768" type="line"/>
			<point x="103.28" y="1167.768" type="line"/>
		</contour>
		<contour>
			<point x="483" y="599.232" type="line"/>
			<point x="1489" y="599.232" type="line"/>
			<point x="1489" y="844.656" type="line"/>
			<point x="483" y="844.656" type="line"/>
		</contour>
	</outline>
</glyph>
<glyph name="hbar" format="2">
	<unicode hex="0127"/>
	<advance width="1488.528"/>
	<outline>
		<contour>
			<point x="829.936" y="110.904" type="line"/>
			<point x="829.936" y="0" type="line"/>
			<point x="1438.176" y="0" type="line"/>
			<point x="1438.176" y="110.904" type="line"/>
			<point x="1299.336" y="146.368" type="line"/>
			<point x="1299.336" y="744.216" type="line" smooth="yes"/>
			<point x="1299.336" y="949.2"/>
			<point x="1188.264" y="1063.44"/>
			<point x="952.136" y="1063.44" type="curve" smooth="yes"/>
			<point x="840.392" y="1063.44"/>
			<point x="816.816" y="1054.328"/>
			<point x="526.64" y="828.04" type="curve"/>
			<point x="545.232" y="743.68" type="line"/>
			<point x="615.92" y="761.664"/>
			<point x="693.76" y="772.592"/>
			<point x="759.304" y="772.592" type="curve" smooth="yes"/>
			<point x="881.112" y="772.592"/>
			<point x="921.192" y="730.2"/>
			<point x="921.192" y="639.448" type="curve" smooth="yes"/>
			<point x="921.192" y="137.296" type="line"/>
		</contour>
		<contour>
			<point x="667.056" y="0" type="line"/>
			<point x="667.056" y="110.904" type="line"/>
			<point x="575.8" y="137.296" type="line"/>
			<point x="575.8" y="1223.568" type="line"/>
			<point x="599.688" y="1490.48" type="line"/>
			<point x="505.848" y="1490.48" type="line"/>
			<point x="106.264" y="1446.4" type="line"/>
			<point x="106.264" y="1373.232" type="line"/>
			<point x="131.936" y="1316.872"/>
			<point x="180.896" y="1259.416"/>
			<point x="197.656" y="1191.56" type="curve"/>
			<point x="197.656" y="146.368" type="line"/>
			<point x="59.816" y="110.904" type="line"/>
			<point x="59.816" y="0" type="line"/>
		</contour>
		<contour>
			<point x="38.928" y="1130.736" type="line"/>
			<point x="828.8" y="1130.736" type="line"/>
			<point x="828.8" y="1257.216" type="line"/>
			<point x="38.928" y="1257.216" type="line"/>
		</contour>
	</outline>
</glyph>
<glyph name="Iogonek" format="2">
  <advance width="980.336"/>
  <unicode hex="012E"/>
  <outline>
    <contour>
      <point x="880.7040000000001" y="125.44" type="line"/>
      <point x="702.848" y="173.03199999999998" type="line"/>
      <point x="702.848" y="1240.9679999999998" type="line"/>
      <point x="880.7040000000001" y="1288.56" type="line"/>
      <point x="880.7040000000001" y="1414.0" type="line"/>
      <point x="99.632" y="1414.0" type="line"/>
      <point x="99.632" y="1288.56" type="line"/>
      <point x="277.488" y="1240.9679999999998" type="line"/>
      <point x="277.488" y="173.03199999999998" type="line"/>
      <point x="99.632" y="125.44" type="line"/>
      <point x="99.632" y="0.0" type="line"/>
      <point x="880.7040000000001" y="0.0" type="line"/>
    </contour>
    <contour>
      <point x="521.088" y="-68.464" type="curve" smooth="yes"/>
      <point x="592.1039999999999" y="78.696" type="line"/>
      <point x="492.25600000000003" y="78.696" type="line"/>
      <point x="396.776" y="-44.896" type="line" smooth="yes"/>
      <point x="296.81600000000003" y="-174.56"/>
      <point x="278.928" y="-229.61599999999999"/>
      <point x="278.928" y="-299.096" type="curve" smooth="yes"/>
      <point x="278.928" y="-403.0"/>
      <point x="333.11199999999997" y="-465.0"/>
      <point x="468.36800000000005" y="-465.0" type="curve" smooth="yes"/>
      <point x="541.664" y="-465.0"/>
      <point x="588.496" y="-447.35200000000003"/>
      <point x="674.512" y="-387.704" type="curve"/>
      <point x="674.512" y="-291.784" type="line"/>
      <point x="621.2159999999999" y="-315.544"/>
      <point x="594.92" y="-319.896"/>
      <point x="554.328" y="-319.896" type="curve" smooth="yes"/>
      <point x="505.456" y="-319.896"/>
      <point x="470.86400000000003" y="-295.024"/>
      <point x="470.86400000000003" y="-245.15200000000002" type="curve" smooth="yes"/>
      <point x="470.86400000000003" y="-201.688"/>
      <point x="478.92" y="-154.68800000000002"/>
    </contour>
  </outline>
</glyph>
<glyph name="iogonek" format="2">
	<unicode hex="012F"/>
	<advance width="807.64"/>
	<outline>
		<contour>
			<point x="410.392" y="1180.896" type="curve" smooth="yes"/>
			<point x="570.192" y="1180.896"/>
			<point x="647.8" y="1233.32"/>
			<point x="647.8" y="1337.632" type="curve" smooth="yes"/>
			<point x="647.8" y="1441.296"/>
			<point x="570.192" y="1490.48"/>
			<point x="410.392" y="1490.48" type="curve" smooth="yes"/>
			<point x="250.592" y="1490.48"/>
			<point x="172.984" y="1441.296"/>
			<point x="172.984" y="1337.632" type="curve" smooth="yes"/>
			<point x="172.984" y="1233.32"/>
			<point x="250.592" y="1180.896"/>
		</contour>
		<contour>
			<point x="631.52" y="1063.44" type="line"/>
			<point x="519.088" y="1063.44" type="line"/>
			<point x="68.096" y="946.24" type="line"/>
			<point x="68.096" y="857.376" type="line"/>
			<point x="129.096" y="808.217431872"/>
			<point x="209.6" y="746.1693196527"/>
			<point x="231.6" y="728.44" type="curve"/>
			<point x="231.6" y="146.368" type="line"/>
			<point x="93.76" y="110.904" type="line"/>
			<point x="93.76" y="0" type="line"/>
			<point x="744.416" y="0" type="line"/>
			<point x="744.416" y="110.904" type="line"/>
			<point x="609.744" y="146.368" type="line"/>
			<point x="609.744" y="744.832" type="line"/>
		</contour>
		<contour>
			<point x="445.04" y="-76.352" type="curve" smooth="yes"/>
			<point x="533.312" y="78.696" type="line"/>
			<point x="433.816" y="78.696" type="line"/>
			<point x="327.56" y="-47.544" type="line" smooth="yes"/>
			<point x="218.528" y="-176.208"/>
			<point x="198.936" y="-229.616"/>
			<point x="198.936" y="-299.096" type="curve" smooth="yes"/>
			<point x="198.936" y="-403"/>
			<point x="253.12" y="-465"/>
			<point x="388.376" y="-465" type="curve" smooth="yes"/>
			<point x="461.672" y="-465"/>
			<point x="508.504" y="-447.352"/>
			<point x="594.52" y="-387.704" type="curve"/>
			<point x="594.52" y="-291.784" type="line"/>
			<point x="541.224" y="-315.544"/>
			<point x="514.928" y="-319.896"/>
			<point x="474.336" y="-319.896" type="curve" smooth="yes"/>
			<point x="418.984" y="-319.896"/>
			<point x="390.872" y="-293.728"/>
			<point x="390.872" y="-238.024" type="curve" smooth="yes"/>
			<point x="390.872" y="-197.8"/>
			<point x="396.688" y="-162.28"/>
		</contour>
	</outline>
</glyph>
<glyph name="dotlessi" format="2">
	<unicode hex="0131"/>
	<advance width="807.64"/>
	<outline>
		<contour>
			<point x="631.52" y="1063.44" type="line"/>
			<point x="519.088" y="1063.44" type="line"/>
			<point x="68.096" y="946.24" type="line"/>
			<point x="68.096" y="857.376" type="line"/>
			<point x="129.096" y="808.217431872"/>
			<point x="209.6" y="746.1693196527"/>
			<point x="231.6" y="728.44" type="curve"/>
			<point x="231.6" y="146.368" type="line"/>
			<point x="93.76" y="110.904" type="line"/>
			<point x="93.76" y="0" type="line"/>
			<point x="744.416" y="0" type="line"/>
			<point x="744.416" y="110.904" type="line"/>
			<point x="609.744" y="146.368" type="line"/>
			<point x="609.744" y="744.832" type="line"/>
		</contour>
	</outline>
	<anchor name="top" x="389.392" y="1036.96"/>
	<anchor name="bottom" x="420.672" y="0"/>
	<anchor name="right" x="589.056" y="0"/>
</glyph>
<glyph name="kgreenlandic" format="2">
	<unicode hex="0138"/>
	<advance width="1541.68"/>
	<outline>
		<contour>
			<point x="767.688" y="435.544" type="line"/>
			<point x="1021.688" y="111.152" type="line"/>
			<point x="1022.04" y="99.888" type="line"/>
			<point x="1022.04" y="0" type="line"/>
			<point x="1532.232" y="0" type="line"/>
			<point x="1532.232" y="99.888" type="line"/>
			<point x="1418.912" y="153.016" type="line"/>
			<point x="991.424" y="710.68" type="line"/>
			<point x="841.416" y="487.712" type="line"/>
			<point x="1295.48" y="902.184" type="line"/>
			<point x="1454.624" y="934.296" type="line"/>
			<point x="1454.624" y="1036.96" type="line"/>
			<point x="877.696" y="1036.96" type="line"/>
			<point x="877.696" y="934.296" type="line"/>
			<point x="1033.824" y="902.424" type="line"/>
			<point x="778.896" y="637.624" type="line"/>
			<point x="469.192" y="637.624" type="line"/>
			<point x="469.192" y="435.544" type="line"/>
		</contour>
		<contour>
			<point x="630.816" y="1063.44" type="line"/>
			<point x="518.384" y="1063.44" type="line"/>
			<point x="67.392" y="946.24" type="line"/>
			<point x="67.392" y="857.376" type="line"/>
			<point x="128.392" y="808.217431872"/>
			<point x="208.896" y="746.1693196527"/>
			<point x="230.896" y="728.44" type="curve"/>
			<point x="230.896" y="146.368" type="line"/>
			<point x="93.056" y="110.904" type="line"/>
			<point x="93.056" y="0" type="line"/>
			<point x="743.712" y="0" type="line"/>
			<point x="743.712" y="110.904" type="line"/>
			<point x="609.04" y="146.368" type="line"/>
			<point x="609.04" y="744.832" type="line"/>
		</contour>
	</outline>
</glyph>
<glyph name="Lslash" format="2">
	<unicode hex="0141"/>
	<advance width="1560.152"/>
	<outline>
		<contour>
			<point x="447.376" y="569.136" type="line"/>
			<point x="600.104" y="604.432" type="line"/>
			<point x="1033.248" y="830.912" type="line"/>
			<point x="1033.248" y="1028.584" type="line"/>
			<point x="600.104" y="802.104" type="line"/>
			<point x="447.376" y="766.808" type="line"/>
			<point x="124.688" y="597.816" type="line"/>
			<point x="124.688" y="400.144" type="line"/>
		</contour>
		<contour>
			<point x="1409.432" y="-92.088" type="line"/>
			<point x="1517" y="563.928" type="line"/>
			<point x="1330.512" y="563.928" type="line"/>
			<point x="1102.712" y="121.248" type="line"/>
			<point x="1234.736" y="245.424" type="line"/>
			<point x="528.384" y="245.424" type="line"/>
			<point x="519.96" y="0" type="line"/>
			<point x="1176.28" y="0" type="line"/>
			<point x="1258.456" y="-92.088" type="line"/>
		</contour>
		<contour>
			<point x="727.904" y="1240.968" type="line"/>
			<point x="905.76" y="1288.56" type="line"/>
			<point x="905.76" y="1414" type="line"/>
			<point x="124.688" y="1414" type="line"/>
			<point x="124.688" y="1288.56" type="line"/>
			<point x="302.544" y="1240.968" type="line"/>
			<point x="302.544" y="173.032" type="line"/>
			<point x="124.688" y="125.44" type="line"/>
			<point x="124.688" y="0" type="line"/>
			<point x="727.904" y="0" type="line"/>
		</contour>
	</outline>
</glyph>
<glyph name="lslash" format="2">
  <advance width="858.7040000000001"/>
  <unicode hex="0142"/>
  <outline>
    <contour>
      <point x="345.52" y="588.0640000000001" type="line"/>
      <point x="464.20000000000005" y="596.24" type="line"/>
      <point x="787.352" y="826.896" type="line"/>
      <point x="787.352" y="985.504" type="line"/>
      <point x="464.20000000000005" y="754.848" type="line"/>
      <point x="345.52" y="746.672" type="line"/>
      <point x="87.22399999999999" y="563.024" type="line"/>
      <point x="87.22399999999999" y="404.416" type="line"/>
    </contour>
    <contour>
      <point x="617.416" y="146.36800000000002" type="line"/>
      <point x="617.416" y="1223.568" type="line"/>
      <point x="641.304" y="1490.48" type="line"/>
      <point x="547.4639999999999" y="1490.48" type="line"/>
      <point x="43.303999999999995" y="1402.336" type="line"/>
      <point x="43.303999999999995" y="1288.992" type="line"/>
      <point x="121.30399999999999" y="1244.2819457518947"/>
      <point x="213.27200000000002" y="1194.143351416035"/>
      <point x="239.272" y="1179.24" type="curve"/>
      <point x="239.272" y="146.36800000000002" type="line"/>
      <point x="101.432" y="110.904" type="line"/>
      <point x="101.432" y="0.0" type="line"/>
      <point x="752.088" y="0.0" type="line"/>
      <point x="752.088" y="110.904" type="line"/>
    </contour>
  </outline>
</glyph>
<glyph name="eng" format="2">
	<unicode hex="014B"/>
	<advance width="1477.488"/>
	<outline>
		<contour>
			<point x="609.336" y="826.112" type="line"/>
			<point x="509.272" y="1065.2" type="line"/>
			<point x="436.28" y="1065.2" type="line"/>
			<point x="67.688" y="939.2" type="line"/>
			<point x="67.688" y="857.376" type="line"/>
			<point x="158.688" y="780.5016393772"/>
			<point x="209.192" y="739.9850102605"/>
			<point x="231.192" y="721.4" type="curve"/>
			<point x="231.192" y="146.368" type="line"/>
			<point x="93.352" y="110.904" type="line"/>
			<point x="93.352" y="0" type="line"/>
			<point x="699.944" y="0" type="line"/>
			<point x="699.944" y="110.904" type="line"/>
			<point x="609.336" y="137.296" type="line"/>
		</contour>
		<contour>
			<point x="954.728" y="42.896" type="line" smooth="yes"/>
			<point x="954.728" y="-82.896"/>
			<point x="947.024" y="-102.08"/>
			<point x="718.208" y="-319.216" type="curve"/>
			<point x="819.296" y="-465" type="line"/>
			<point x="1277.56" y="-232.608"/>
			<point x="1332.872" y="-154.112"/>
			<point x="1332.872" y="83.952" type="curve" smooth="yes"/>
			<point x="1332.872" y="744.216" type="line" smooth="yes"/>
			<point x="1332.872" y="949.2"/>
			<point x="1221.8" y="1063.44"/>
			<point x="985.672" y="1063.44" type="curve" smooth="yes"/>
			<point x="873.928" y="1063.44"/>
			<point x="850.352" y="1054.328"/>
			<point x="560.176" y="828.04" type="curve"/>
			<point x="578.768" y="743.68" type="line"/>
			<point x="649.456" y="761.664"/>
			<point x="727.296" y="772.592"/>
			<point x="792.84" y="772.592" type="curve" smooth="yes"/>
			<point x="914.648" y="772.592"/>
			<point x="954.728" y="730.2"/>
			<point x="954.728" y="639.448" type="curve" smooth="yes"/>
		</contour>
	</outline>
</glyph>
<glyph name="OE" format="2">
  <advance width="2480"/>
  <unicode hex="0152"/>
  <outline>
    <contour>
      <point x="1983.72" y="990.0" type="line"/>
      <point x="1818.376" y="990.0" type="line"/>
      <point x="1801.376" y="835.088" type="line"/>
      <point x="1332.944" y="835.088" type="line"/>
      <point x="1332.944" y="638.912" type="line"/>
      <point x="1801.376" y="638.912" type="line"/>
      <point x="1818.376" y="480.0" type="line"/>
      <point x="1983.72" y="480.0" type="line"/>
      <point x="1983.72" y="735.0" type="line"/>
    </contour>
    <contour>
      <point x="1115.528" y="1414.0" type="line"/>
      <point x="1115.528" y="0.0" type="line"/>
      <point x="1540.888" y="0.0" type="line"/>
      <point x="1540.888" y="1414.0" type="line"/>
    </contour>
    <contour>
      <point x="852.856" y="0.0" type="curve" smooth="yes"/>
      <point x="2074.9840000000004" y="0.0" type="line"/>
      <point x="2157.16" y="-92.088" type="line"/>
      <point x="2308.136" y="-92.088" type="line"/>
      <point x="2401.6319999999996" y="498.744" type="line"/>
      <point x="2215.1440000000002" y="498.744" type="line"/>
      <point x="2011.656" y="84.312" type="line"/>
      <point x="2125.0159999999996" y="221.448" type="line"/>
      <point x="933.816" y="221.448" type="line" smooth="yes"/>
      <point x="643.4" y="222.096"/>
      <point x="538.5120000000001" y="363.64000000000004"/>
      <point x="538.5120000000001" y="690.648" type="curve" smooth="yes"/>
      <point x="538.5120000000001" y="1047.288"/>
      <point x="646.104" y="1192.5520000000001"/>
      <point x="885.352" y="1192.5520000000001" type="curve" smooth="yes"/>
      <point x="2163.864" y="1192.5520000000001" type="line"/>
      <point x="2036.912" y="1332.9279999999999" type="line"/>
      <point x="2163.92" y="981.0880000000001" type="line"/>
      <point x="2345.392" y="981.088" type="line"/>
      <point x="2345.392" y="1502.144" type="line"/>
      <point x="2214.304" y="1502.144" type="line"/>
      <point x="2102.312" y="1414.0" type="line"/>
      <point x="861.856" y="1414.0" type="line" smooth="yes"/>
      <point x="402.856" y="1414.0"/>
      <point x="103.856" y="1157.0"/>
      <point x="103.856" y="678.0" type="curve" smooth="yes"/>
      <point x="103.856" y="237.0"/>
      <point x="357.856" y="-0.648"/>
    </contour>
  </outline>
</glyph>
<glyph name="oe" format="2">
  <advance width="2038.104"/>
  <unicode hex="0153"/>
  <anchor x="1020.1439999999999" y="1036.96" name="top"/>
  <anchor x="1020.1439999999999" y="0.0" name="bottom"/>
  <outline>
    <contour>
      <point x="660.88" y="201.28" type="curve" smooth="yes"/>
      <point x="515.808" y="201.28"/>
      <point x="456.688" y="299.4"/>
      <point x="456.688" y="538.592" type="curve" smooth="yes"/>
      <point x="456.688" y="752.192"/>
      <point x="523.4399999999999" y="835.6800000000001"/>
      <point x="675.456" y="835.6800000000001" type="curve" smooth="yes"/>
      <point x="820.528" y="835.6800000000001"/>
      <point x="879.648" y="737.5600000000001"/>
      <point x="879.648" y="498.368" type="curve" smooth="yes"/>
      <point x="879.648" y="284.768"/>
      <point x="812.896" y="201.28"/>
    </contour>
    <contour>
      <point x="1184.1680000000001" y="269.40799999999996" type="curve"/>
      <point x="946.016" y="269.40799999999996" type="line"/>
      <point x="1034.328" y="96.056"/>
      <point x="1203.8960000000002" y="-26.48"/>
      <point x="1456.912" y="-26.48" type="curve" smooth="yes"/>
      <point x="1580.504" y="-26.48"/>
      <point x="1731.192" y="25.336"/>
      <point x="1928.344" y="152.512" type="curve"/>
      <point x="1928.344" y="281.192" type="line"/>
      <point x="1824.68" y="255.208"/>
      <point x="1716.272" y="235.648"/>
      <point x="1577.792" y="235.648" type="curve" smooth="yes"/>
      <point x="1328.824" y="235.648"/>
      <point x="1238.464" y="319.896"/>
      <point x="1238.464" y="591.232" type="curve" smooth="yes"/>
      <point x="1238.464" y="801.944"/>
      <point x="1298.456" y="868.36"/>
      <point x="1425.432" y="868.36" type="curve" smooth="yes"/>
      <point x="1545.624" y="868.36"/>
      <point x="1603.2240000000002" y="815.816"/>
      <point x="1599.8000000000002" y="577.32" type="curve"/>
      <point x="1739.448" y="635.256" type="line"/>
      <point x="1150.624" y="635.256" type="line"/>
      <point x="1152.7359999999999" y="483.704" type="line"/>
      <point x="1955.136" y="483.704" type="line"/>
      <point x="1941.768" y="892.6"/>
      <point x="1793.96" y="1063.44"/>
      <point x="1444.688" y="1063.44" type="curve" smooth="yes"/>
      <point x="1223.2640000000001" y="1063.44"/>
      <point x="1064.84" y="948.496"/>
      <point x="970.64" y="791.104" type="curve"/>
      <point x="1173.744" y="791.104" type="line"/>
      <point x="1077.896" y="949.44"/>
      <point x="914.6400000000001" y="1063.44"/>
      <point x="684.472" y="1063.44" type="curve" smooth="yes"/>
      <point x="306.408" y="1063.44"/>
      <point x="85.15199999999999" y="858.68"/>
      <point x="85.15199999999999" y="513.944" type="curve" smooth="yes"/>
      <point x="85.15199999999999" y="175.392"/>
      <point x="293.464" y="-26.48"/>
      <point x="651.8639999999999" y="-26.48" type="curve" smooth="yes"/>
      <point x="908.992" y="-26.48"/>
      <point x="1086.912" y="100.464"/>
    </contour>
  </outline>
</glyph>
<glyph name="Scedilla" format="2">
  <advance width="1458"/>
  <unicode hex="015E"/>
  <outline>
    <contour>
      <point x="1191.936" y="1358.368" type="line"/>
      <point x="1051.68" y="1419.368"/>
      <point x="929.2560000000001" y="1440.48"/>
      <point x="773.296" y="1440.48" type="curve" smooth="yes"/>
      <point x="360.2" y="1440.48"/>
      <point x="120.544" y="1293.04"/>
      <point x="120.544" y="994.272" type="curve" smooth="yes"/>
      <point x="120.544" y="675.408"/>
      <point x="329.6" y="604.224"/>
      <point x="540.08" y="571.536" type="curve" smooth="yes"/>
      <point x="750.56" y="538.848"/>
      <point x="966.816" y="544.248"/>
      <point x="966.816" y="374.112" type="curve" smooth="yes"/>
      <point x="966.816" y="248.192"/>
      <point x="881.4" y="192.61599999999999"/>
      <point x="603.2" y="192.61599999999999" type="curve" smooth="yes"/>
      <point x="450.368" y="192.61599999999999"/>
      <point x="352.296" y="209.728"/>
      <point x="227.168" y="264.432" type="curve"/>
      <point x="525.648" y="33.928" type="line"/>
      <point x="289.664" y="441.408" type="line"/>
      <point x="126.536" y="441.408" type="line"/>
      <point x="169.04000000000002" y="22.928" type="line"/>
      <point x="319.072" y="-22.016"/>
      <point x="455.86400000000003" y="-26.48"/>
      <point x="637.2479999999999" y="-26.48" type="curve" smooth="yes"/>
      <point x="1108.096" y="-26.48"/>
      <point x="1349.296" y="125.272"/>
      <point x="1349.296" y="453.59999999999997" type="curve" smooth="yes"/>
      <point x="1349.296" y="796.672"/>
      <point x="1097.0" y="859.336"/>
      <point x="884.928" y="892.504" type="curve" smooth="yes"/>
      <point x="672.856" y="925.672"/>
      <point x="498.08" y="934.936"/>
      <point x="498.08" y="1078.592" type="curve" smooth="yes"/>
      <point x="498.08" y="1192.4160000000002"/>
      <point x="597.1039999999999" y="1222.144"/>
      <point x="777.552" y="1222.144" type="curve" smooth="yes"/>
      <point x="915.952" y="1222.144"/>
      <point x="1018.8000000000001" y="1202.144"/>
      <point x="1094.4879999999998" y="1152.2720000000002" type="curve"/>
      <point x="1000.6800000000001" y="1259.8" type="line"/>
      <point x="1109.84" y="998.552" type="line"/>
      <point x="1289.872" y="998.552" type="line"/>
      <point x="1289.8719999999998" y="1502.144" type="line"/>
      <point x="1143.952" y="1502.144" type="line"/>
      <point x="1034.92" y="1357.3919999999998" type="line"/>
    </contour>
    <contour>
      <point x="637.08" y="-465.0" type="curve" smooth="yes"/>
      <point x="822.408" y="-465.0"/>
      <point x="949.736" y="-413.71999999999997"/>
      <point x="949.736" y="-269.68800000000005" type="curve" smooth="yes"/>
      <point x="949.736" y="-173.784"/>
      <point x="909.384" y="-113.968"/>
      <point x="661.744" y="-75.91199999999999" type="curve"/>
      <point x="669.1519999999999" y="-183.312" type="line"/>
      <point x="865.624" y="39.848" type="line"/>
      <point x="721.688" y="39.848" type="line"/>
      <point x="529.88" y="-186.112" type="line"/>
      <point x="529.88" y="-223.016" type="line"/>
      <point x="724.712" y="-247.88799999999998"/>
      <point x="754.952" y="-265.408"/>
      <point x="754.952" y="-309.112" type="curve" smooth="yes"/>
      <point x="754.952" y="-348.688"/>
      <point x="732.7280000000001" y="-366.20799999999997"/>
      <point x="669.504" y="-366.20799999999997" type="curve" smooth="yes"/>
      <point x="606.208" y="-366.20799999999997"/>
      <point x="536.472" y="-313.05600000000004"/>
      <point x="514.64" y="-313.05600000000004" type="curve" smooth="yes"/>
      <point x="490.58399999999995" y="-313.05600000000004"/>
      <point x="460.824" y="-332.87199999999996"/>
      <point x="460.824" y="-375.81600000000003" type="curve" smooth="yes"/>
      <point x="460.824" y="-435.944"/>
      <point x="494.88" y="-465.0"/>
    </contour>
  </outline>
</glyph>
